<svg width="163" height="200" viewBox="0 0 163 200" fill="none" xmlns="http://www.w3.org/2000/svg">
    <g clip-path="url(#clip0_1_1551)">
        <path d="M16.4129 164.381L16.408 166.132L0 143.611L0.00490964 141.86L16.4129 164.381Z" fill="#898883"/>
        <path d="M56.4093 174.946L56.4044 176.697L16.408 166.131L16.4129 164.38L56.4093 174.946Z" fill="#BAB9B1"/>
        <path d="M104.318 113.377L16.3466 164.287L16.4129 164.381L56.4093 174.946L56.5369 175.105L144.567 123.609L104.318 113.377Z" fill="#E8E8E8"/>
        <path d="M163 147.238L144.753 123.657L144.567 123.608L56.5369 175.105L75.1346 198.249L163 147.238Z" fill="#F4F4F4"/>
        <path d="M104.278 113.367L87.8702 90.8462L0.00488281 141.86L16.3466 164.287L104.318 113.377L104.278 113.367Z" fill="#CECECE"/>
        <path d="M163 147.238L162.995 148.989L75.1298 200L75.1347 198.249L163 147.238Z" fill="#C6C5C1"/>
        <path d="M75.1347 198.249L75.1297 200L56.4044 176.697L56.4093 174.946L75.1347 198.249Z" fill="#919087"/>
        <path d="M93.2488 80.2933C93.4206 80.2467 93.5875 80.1927 93.752 80.1363C93.86 80.102 93.968 80.0676 94.0736 80.0309C94.2552 79.9646 94.4295 79.8886 94.6063 79.8126C94.6922 79.7758 94.7806 79.7415 94.864 79.7022C95.1218 79.5821 95.3722 79.4521 95.6177 79.3098L104.848 73.9512C104.602 74.0935 104.352 74.2235 104.094 74.3436C104.008 74.3829 103.92 74.4172 103.834 74.454C103.66 74.53 103.483 74.606 103.304 74.6723C103.198 74.7115 103.09 74.7434 102.982 74.7777C102.815 74.8317 102.648 74.8881 102.479 74.9347C102.363 74.9665 102.243 74.9935 102.125 75.0205C101.958 75.0597 101.792 75.0965 101.62 75.1284C101.49 75.1529 101.357 75.1726 101.224 75.1946C101.077 75.2167 100.93 75.2363 100.783 75.2535C100.643 75.2682 100.503 75.2805 100.363 75.2903C100.213 75.3001 100.061 75.3099 99.9062 75.3148C99.7638 75.3197 99.619 75.3222 99.4742 75.3222C99.3195 75.3222 99.1624 75.3197 99.0053 75.3148C98.858 75.3099 98.7083 75.3001 98.561 75.2903C98.4014 75.278 98.2419 75.2657 98.0798 75.2486C97.9154 75.2314 97.7509 75.2118 97.5864 75.1897C97.4661 75.1726 97.3458 75.1554 97.2256 75.1358C97.0415 75.1063 96.8573 75.0696 96.6708 75.0328C96.5529 75.0082 96.4351 74.9862 96.3173 74.9592C96.116 74.915 95.9122 74.8611 95.7085 74.8071C95.6029 74.7802 95.4998 74.7556 95.3943 74.7262C95.1193 74.6477 94.8395 74.5619 94.5596 74.4687C94.5253 74.4564 94.4909 74.4466 94.4541 74.4344C94.1399 74.3265 93.8207 74.2087 93.4992 74.0812C93.401 74.042 93.3003 73.9978 93.2021 73.9561C92.9787 73.8629 92.7553 73.7698 92.5295 73.6668C92.4068 73.6103 92.2816 73.5515 92.1588 73.4926C91.9551 73.3945 91.7489 73.2964 91.5427 73.191C91.4101 73.1248 91.2775 73.0536 91.145 72.9825C90.87 72.8378 90.5951 72.6907 90.3177 72.5288L81.0876 77.8874C81.257 77.9855 81.4288 78.0812 81.5982 78.1744C81.7037 78.2332 81.8093 78.2847 81.9149 78.3411C82.0474 78.4122 82.18 78.4809 82.3125 78.5496C82.5187 78.655 82.7249 78.7531 82.9287 78.8512C83.0514 78.9101 83.1766 78.9714 83.2994 79.0254C83.5252 79.1284 83.7486 79.2216 83.972 79.3148C84.0702 79.3564 84.1708 79.4006 84.2715 79.4398C84.5882 79.5649 84.9024 79.6826 85.2166 79.7905C85.219 79.7905 85.224 79.7905 85.2264 79.793C85.2632 79.8052 85.2976 79.815 85.332 79.8273C85.6118 79.9205 85.8892 80.0063 86.1641 80.0848C86.2697 80.1142 86.3728 80.1388 86.4784 80.1658C86.6821 80.2197 86.8859 80.2712 87.0872 80.3178C87.205 80.3448 87.3228 80.3668 87.4407 80.3914C87.6272 80.4282 87.8113 80.465 87.9954 80.4944C88.1157 80.514 88.236 80.5312 88.3563 80.5483C88.4447 80.5606 88.5331 80.5778 88.619 80.5876C88.6975 80.5974 88.7712 80.5998 88.8497 80.6072C89.0117 80.6244 89.1713 80.6391 89.3309 80.6489C89.4806 80.6587 89.6279 80.6685 89.7752 80.6734C89.9323 80.6783 90.0894 80.6808 90.2441 80.6808C90.3889 80.6808 90.5337 80.6808 90.6761 80.6734C90.8283 80.6685 90.9805 80.6587 91.1327 80.6489C91.2751 80.6391 91.415 80.6268 91.5525 80.6121C91.7022 80.5949 91.8495 80.5753 91.9943 80.5532C92.0729 80.541 92.1539 80.5361 92.2325 80.5214C92.2865 80.5115 92.3356 80.4968 92.3896 80.487C92.5589 80.4551 92.7283 80.4184 92.8953 80.3791C93.0131 80.3521 93.1334 80.3252 93.2488 80.2933Z" fill="#A492FF"/>
        <path d="M78.6794 76.3325C78.8095 76.4257 78.9396 76.5189 79.0697 76.6096C79.2906 76.7617 79.5165 76.9088 79.7399 77.056C79.8503 77.1271 79.9584 77.2031 80.0713 77.2742C80.4076 77.4876 80.7439 77.6911 81.0851 77.8873L90.3152 72.5287C89.9765 72.3325 89.6377 72.1265 89.3014 71.9156C89.1909 71.8445 89.0805 71.7709 88.97 71.6973C88.7466 71.5526 88.5232 71.4055 88.2998 71.2534C88.1697 71.1627 88.0396 71.0671 87.9095 70.9739C87.7107 70.8316 87.5118 70.6894 87.313 70.5422C87.1755 70.4392 87.0381 70.3338 86.903 70.2283C86.7165 70.0861 86.5324 69.9414 86.3483 69.7942C86.1887 69.6667 86.0316 69.5343 85.8745 69.4043C85.7051 69.2621 85.5357 69.1223 85.3663 68.9776C85.2117 68.8427 85.057 68.7053 84.9024 68.568C84.7354 68.4209 84.571 68.2713 84.4065 68.1192C84.2518 67.977 84.1021 67.8323 83.9499 67.6876C83.7879 67.5331 83.6259 67.3786 83.4663 67.2192C83.3166 67.0696 83.1668 66.92 83.0195 66.7679C82.86 66.606 82.7028 66.4442 82.5457 66.2799C82.3985 66.1254 82.2536 65.9684 82.1088 65.8115C81.9541 65.6447 81.7995 65.4755 81.6473 65.3038C81.5049 65.1444 81.3625 64.9825 81.2201 64.8182C81.0704 64.6441 80.9182 64.47 80.7709 64.2934C80.631 64.1266 80.4935 63.9599 80.356 63.7931C80.2087 63.6141 80.0639 63.435 79.9215 63.2535C79.7865 63.0819 79.6515 62.9102 79.5189 62.7385C79.3766 62.5546 79.2366 62.3682 79.0967 62.1818C78.9666 62.0077 78.8365 61.8311 78.7064 61.6545C78.5689 61.4657 78.4339 61.2769 78.2989 61.0856C78.1712 60.9065 78.0461 60.7251 77.9233 60.5436C77.7908 60.3498 77.6606 60.1561 77.5305 59.9624C77.4078 59.7784 77.2875 59.5945 77.1672 59.4081C77.0396 59.2119 76.9144 59.0133 76.7892 58.8146C76.6714 58.6282 76.556 58.4394 76.4406 58.2505C76.3179 58.0494 76.2 57.8483 76.0797 57.6472C75.9668 57.4559 75.8564 57.2647 75.7459 57.0734C75.6305 56.8698 75.5151 56.6638 75.4022 56.4603C75.2942 56.2665 75.1886 56.0728 75.0855 55.8766C74.9751 55.6706 74.8671 55.4621 74.7591 55.2536C74.6584 55.0574 74.5578 54.8612 74.4596 54.6651C74.354 54.4541 74.2534 54.2432 74.1503 54.0323C74.0545 53.8337 73.9612 53.6375 73.868 53.4388C73.7771 53.2426 73.6888 53.0489 73.6004 52.8527C73.4899 52.605 73.3794 52.3573 73.2739 52.1096C73.1904 51.9183 73.1119 51.7246 73.0309 51.5333C72.9278 51.2856 72.8271 51.0354 72.7289 50.7877C72.6528 50.594 72.5767 50.4002 72.5055 50.2065C72.4098 49.9563 72.319 49.7037 72.2281 49.4511C72.1594 49.2598 72.0907 49.0661 72.0244 48.8748C71.936 48.6198 71.8525 48.3623 71.7715 48.1072C71.7077 47.911 71.6439 47.7148 71.5825 47.5162C71.531 47.3494 71.4843 47.1851 71.4352 47.0183C71.364 46.778 71.2953 46.5376 71.2315 46.2973C71.1848 46.1256 71.1406 45.9539 71.0965 45.7847C71.0351 45.5493 70.9762 45.3114 70.9197 45.076C70.878 44.9043 70.8387 44.7326 70.7994 44.5609C70.7454 44.3231 70.6963 44.0852 70.6472 43.8497C70.6129 43.683 70.5785 43.5138 70.5466 43.347C70.4975 43.0919 70.4533 42.8393 70.4116 42.5843C70.387 42.442 70.3625 42.2998 70.3404 42.1575C70.2937 41.851 70.252 41.5469 70.2127 41.2403C70.2004 41.1496 70.1857 41.0613 70.1759 40.9706C70.1293 40.5782 70.09 40.1858 70.0581 39.7958C70.0507 39.6953 70.0458 39.5947 70.0384 39.4942C70.0188 39.2146 69.9992 38.935 69.9869 38.6554C69.9672 38.1993 69.955 37.7431 69.955 37.2943C69.955 36.9363 69.9672 36.5856 69.982 36.2398C69.9869 36.1466 69.9918 36.0558 69.9967 35.9626C70.0139 35.6684 70.0335 35.3765 70.0581 35.0896C70.063 35.0381 70.0654 34.9866 70.0703 34.9351C70.1023 34.6113 70.1415 34.2974 70.1857 33.986C70.2029 33.8732 70.2201 33.7628 70.2373 33.65C70.2716 33.4317 70.3085 33.2159 70.3477 33.005C70.3698 32.8873 70.3944 32.772 70.4165 32.6567C70.4607 32.4507 70.5073 32.2472 70.5564 32.0461C70.5834 31.9406 70.6079 31.8327 70.635 31.7297C70.6963 31.4992 70.7626 31.276 70.8313 31.0528C70.851 30.9866 70.8706 30.918 70.8927 30.8517C70.986 30.5673 71.0842 30.2901 71.1873 30.0204C71.2143 29.9517 71.2437 29.8879 71.2707 29.8193C71.3518 29.6182 71.4352 29.422 71.5236 29.2282C71.5653 29.1375 71.6095 29.0492 71.6513 28.9609C71.7323 28.7966 71.8133 28.6323 71.8992 28.4729C71.9458 28.3846 71.9949 28.2938 72.044 28.208C72.1349 28.0486 72.2257 27.8965 72.3214 27.7445C72.3705 27.6685 72.4172 27.59 72.4663 27.5164C72.589 27.3276 72.7191 27.1461 72.8492 26.9695C72.8713 26.9376 72.8934 26.9057 72.9179 26.8739C73.075 26.6679 73.2371 26.4692 73.404 26.2779C73.4531 26.2215 73.5046 26.17 73.5537 26.116C73.6765 25.9836 73.7992 25.8512 73.9269 25.7261C73.9907 25.6623 74.057 25.601 74.1233 25.5397C74.2435 25.4269 74.3638 25.319 74.4866 25.2135C74.5553 25.1547 74.6265 25.0958 74.6952 25.0394C74.8278 24.934 74.9628 24.831 75.1003 24.7329C75.1641 24.6863 75.2255 24.6397 75.2893 24.5955C75.4906 24.4557 75.6968 24.3233 75.9079 24.2007L66.6778 29.5593C66.4667 29.6819 66.2605 29.8143 66.0592 29.9541C65.9953 29.9983 65.9315 30.0473 65.8701 30.0915C65.7327 30.1896 65.5977 30.2926 65.4651 30.398C65.3939 30.4544 65.3252 30.5133 65.2564 30.5722C65.1337 30.6776 65.011 30.7855 64.8931 30.8983C64.8269 30.9596 64.7606 31.021 64.6967 31.0847C64.5691 31.2098 64.4464 31.3398 64.3261 31.4722C64.277 31.5262 64.2254 31.5801 64.1739 31.6365C64.0069 31.8278 63.8425 32.0265 63.6878 32.2325C63.6633 32.2643 63.6412 32.2987 63.6191 32.3306C63.4865 32.5071 63.3589 32.6886 63.2361 32.8775C63.187 32.951 63.1404 33.0295 63.0913 33.1055C62.9956 33.2576 62.9023 33.4121 62.8139 33.5691C62.7648 33.6573 62.7157 33.7456 62.6666 33.8339C62.5807 33.9933 62.4997 34.1552 62.4187 34.3195C62.3745 34.4078 62.3328 34.4985 62.291 34.5893C62.2026 34.7806 62.1192 34.9768 62.0382 35.1779C62.0112 35.2465 61.9817 35.3127 61.9547 35.3814C61.8492 35.6512 61.751 35.9283 61.6601 36.2103C61.638 36.2766 61.6209 36.3452 61.5988 36.4114C61.53 36.6322 61.4638 36.8578 61.4024 37.0859C61.3754 37.1913 61.3484 37.2968 61.3238 37.4047C61.2747 37.6058 61.2281 37.8069 61.1839 38.0129C61.1594 38.1282 61.1373 38.2434 61.1127 38.3611C61.0734 38.5721 61.0366 38.7879 61.0022 39.0061C60.9851 39.119 60.9654 39.2293 60.9507 39.3421C60.9433 39.3887 60.936 39.4329 60.9286 39.4795C60.8918 39.7443 60.8623 40.0166 60.8353 40.2912C60.8304 40.3427 60.828 40.3942 60.823 40.4457C60.796 40.7327 60.7764 41.0221 60.7617 41.3188C60.7568 41.412 60.7519 41.5027 60.7469 41.5959C60.7322 41.9417 60.7224 42.2924 60.7199 42.6505C60.7199 43.1017 60.7322 43.5554 60.7519 44.0116C60.7519 44.0484 60.7519 44.0827 60.7543 44.1195C60.7666 44.3623 60.7862 44.6051 60.8034 44.8479C60.8108 44.9484 60.8157 45.049 60.823 45.1495C60.855 45.5395 60.8942 45.9319 60.9433 46.3243C60.9531 46.4125 60.9679 46.5033 60.9802 46.594C61.0194 46.8981 61.0612 47.2047 61.1078 47.5112C61.1299 47.6535 61.1569 47.7957 61.179 47.938C61.2084 48.1195 61.2379 48.3034 61.2723 48.4849C61.2845 48.556 61.3017 48.6296 61.3165 48.7007C61.3484 48.8675 61.3827 49.0342 61.4171 49.2034C61.4662 49.4413 61.5153 49.6792 61.5693 49.9171C61.6086 50.0863 61.6479 50.258 61.6896 50.4297C61.7461 50.6676 61.805 50.903 61.8663 51.1409C61.9105 51.3125 61.9547 51.4818 62.0014 51.6534C62.0676 51.8938 62.1364 52.1341 62.2051 52.3745C62.2542 52.5412 62.3008 52.7055 62.3524 52.8723C62.372 52.9361 62.3892 52.9998 62.4089 53.0636C62.4506 53.196 62.4972 53.3285 62.539 53.4609C62.6224 53.7184 62.7059 53.9735 62.7918 54.2285C62.8581 54.4223 62.9268 54.6136 62.9956 54.8048C63.0864 55.0574 63.1772 55.3076 63.273 55.5602C63.3466 55.7539 63.4202 55.9477 63.4963 56.1414C63.5945 56.3916 63.6952 56.6393 63.7983 56.887C63.8768 57.0807 63.9578 57.272 64.0413 57.4658C64.1469 57.7135 64.2573 57.9612 64.3678 58.2064C64.4193 58.3241 64.4684 58.4418 64.5225 58.5571C64.5593 58.6356 64.5986 58.7165 64.6354 58.795C64.7262 58.9936 64.8219 59.1898 64.9152 59.386C65.0183 59.5994 65.1214 59.8103 65.2245 60.0212C65.3227 60.2174 65.4234 60.4112 65.524 60.6073C65.632 60.8158 65.74 61.0243 65.8505 61.2327C65.9536 61.4265 66.0592 61.6202 66.1647 61.8115C66.2776 62.0175 66.393 62.2235 66.5109 62.4271C66.6189 62.6184 66.7318 62.8097 66.8423 62.9985C66.9625 63.202 67.0828 63.4031 67.2031 63.6042C67.3185 63.7931 67.4339 63.9795 67.5492 64.1659C67.6744 64.3645 67.7996 64.5632 67.9273 64.7593C68.0476 64.9457 68.1679 65.1297 68.2906 65.3136C68.4207 65.5098 68.5508 65.7035 68.6834 65.8973C68.8086 66.0788 68.9313 66.2578 69.059 66.4368C69.194 66.6281 69.3314 66.8194 69.4689 67.0083C69.5966 67.1848 69.7267 67.3614 69.8568 67.5355C69.9967 67.7219 70.1391 67.9083 70.279 68.0922C70.4116 68.2639 70.5466 68.4356 70.6816 68.6073C70.8264 68.7887 70.9713 68.9702 71.1186 69.1492C71.256 69.316 71.3935 69.4828 71.5334 69.6495C71.6832 69.8261 71.8329 70.0002 71.9827 70.1744C72.1226 70.3362 72.265 70.4981 72.4073 70.6575C72.5595 70.8292 72.7142 70.9984 72.8713 71.1652C73.0161 71.3221 73.161 71.4791 73.3083 71.6336C73.4654 71.7979 73.6225 71.9598 73.782 72.1216C73.9318 72.2737 74.0791 72.4233 74.2313 72.5729C74.3908 72.7323 74.5528 72.8868 74.7149 73.0413C74.8671 73.186 75.0193 73.3307 75.1715 73.4729C75.3359 73.625 75.5029 73.7746 75.6673 73.9217C75.822 74.0591 75.9766 74.1964 76.1313 74.3313C76.2982 74.476 76.4701 74.6182 76.6394 74.758C76.7966 74.888 76.9537 75.0204 77.1132 75.1479C77.1648 75.1896 77.2139 75.2338 77.2654 75.273C77.398 75.3785 77.533 75.4766 77.6656 75.5796C77.803 75.685 77.938 75.7905 78.0755 75.8935C78.2743 76.0406 78.4732 76.1829 78.672 76.3251L78.6794 76.3325Z" fill="#A492FF"/>
        <path d="M111.77 95.4128L80.8421 131.292C86.9521 127.746 92.4264 123.202 97.0365 117.853L120.998 90.0542L111.768 95.4128H111.77Z" fill="#A492FF"/>
        <path d="M56.0926 7.15391C56.1859 7.10976 56.2792 7.07052 56.3725 7.02883C56.5173 6.96507 56.6597 6.89885 56.807 6.83999C56.9076 6.7983 57.0083 6.75906 57.1089 6.71737C57.2513 6.66096 57.3937 6.60456 57.5385 6.55306C57.6441 6.51382 57.7496 6.47703 57.8527 6.44024C57.9975 6.39119 58.1399 6.34215 58.2848 6.29555C58.3928 6.26121 58.5008 6.22688 58.6088 6.195C58.7561 6.15085 58.9034 6.10916 59.0531 6.06747C59.1611 6.03804 59.2691 6.00861 59.3772 5.98164C59.5318 5.9424 59.6865 5.90561 59.8411 5.87127C59.9467 5.84675 60.0522 5.82223 60.1602 5.80015C60.3247 5.76582 60.4941 5.73394 60.661 5.70451C60.7617 5.68734 60.8599 5.66527 60.9605 5.65055C61.1004 5.62603 61.2404 5.60886 61.3803 5.58679C61.4981 5.56962 61.616 5.55 61.7362 5.53529C61.8786 5.51812 62.0235 5.50341 62.1683 5.48624C62.2861 5.47398 62.4064 5.45926 62.5267 5.447C62.674 5.43474 62.8213 5.42493 62.971 5.41512C63.0913 5.40776 63.2091 5.3955 63.3294 5.39059C63.4816 5.38324 63.6363 5.37833 63.7885 5.37343C63.9063 5.36852 64.0241 5.36362 64.142 5.36117C64.304 5.35871 64.466 5.36117 64.628 5.36117C64.7409 5.36117 64.8539 5.36117 64.9668 5.36117C65.1435 5.36362 65.3203 5.37343 65.497 5.38078C65.5977 5.38569 65.7008 5.38569 65.8014 5.39305C66.0346 5.40531 66.2678 5.42248 66.5035 5.4421C66.5526 5.447 66.5992 5.447 66.6459 5.45191C66.9306 5.47643 67.2154 5.50586 67.5051 5.54265C67.5124 5.54265 67.5198 5.54265 67.5272 5.5451C67.9813 5.59905 68.4379 5.67017 68.8994 5.7511C68.9632 5.76337 69.027 5.77318 69.0933 5.78299C69.5377 5.86392 69.9869 5.95711 70.4386 6.06011C70.522 6.07973 70.608 6.09935 70.6914 6.11897C71.1431 6.22688 71.5972 6.3446 72.0563 6.47458C72.1299 6.49665 72.206 6.51872 72.2797 6.54079C72.7584 6.68058 73.2395 6.83018 73.7256 6.99695C73.7428 7.00186 73.7599 7.00921 73.7771 7.01657C74.2558 7.18088 74.737 7.35991 75.223 7.54875C75.2893 7.57573 75.3556 7.60025 75.4219 7.62478C75.8956 7.81362 76.3743 8.01472 76.8555 8.22563C76.9463 8.26487 77.0347 8.30411 77.1255 8.3458C77.6042 8.56162 78.0853 8.78724 78.5689 9.02513C78.6475 9.06437 78.7285 9.10606 78.8095 9.1453C79.3127 9.3979 79.8209 9.66032 80.329 9.93989C80.6433 10.1116 80.9575 10.2881 81.2741 10.4721L90.5043 5.11347C90.1925 4.93444 89.8832 4.76031 89.5739 4.58864C89.569 4.58619 89.5641 4.58374 89.5592 4.58128C89.0485 4.3017 88.5429 4.03929 88.0372 3.78669C87.9586 3.74745 87.8776 3.70576 87.7991 3.66652C87.3155 3.42618 86.8343 3.20055 86.3556 2.98474C86.2648 2.94305 86.1764 2.90381 86.0856 2.86457C85.6044 2.65366 85.1258 2.4501 84.652 2.26372C84.5857 2.23674 84.5194 2.21222 84.4531 2.18769C83.9671 1.99885 83.4859 1.81982 83.0072 1.65551C82.995 1.6506 82.9802 1.6457 82.968 1.64079C82.9631 1.64079 82.9606 1.64079 82.9557 1.63589C82.4696 1.46912 81.9885 1.32197 81.5098 1.17973C81.4362 1.15766 81.3601 1.13559 81.2864 1.11352C80.8274 0.983536 80.3732 0.865818 79.9215 0.75791C79.8381 0.738291 79.7522 0.718671 79.6687 0.699051C79.217 0.596048 78.7678 0.502855 78.3235 0.421924C78.2596 0.409662 78.1933 0.399852 78.1295 0.390042C77.668 0.309111 77.209 0.240443 76.7573 0.184036C76.7524 0.184036 76.7475 0.184036 76.7425 0.184036H76.7376C76.4504 0.149702 76.1632 0.120273 75.8785 0.0932956C75.8294 0.0883907 75.7827 0.0859382 75.7361 0.0834858C75.5004 0.0638661 75.2647 0.046699 75.034 0.0344367C74.9309 0.0295318 74.8302 0.0270794 74.7296 0.0221744C74.5529 0.0148171 74.3736 0.00745973 74.1994 0.00255482C74.0864 0.00255482 73.9735 0.00255482 73.8606 0.00255482C73.6986 0.00255482 73.5366 0.00010237 73.3745 0.00255482C73.2567 0.00255482 73.1389 0.00991218 73.021 0.0148171C72.8688 0.019722 72.7142 0.0246269 72.562 0.0319843C72.4417 0.0393416 72.3239 0.0491514 72.2036 0.0565088C72.0563 0.0663186 71.9066 0.0761284 71.7593 0.0883907C71.639 0.0982005 71.5211 0.112915 71.4009 0.12763C71.256 0.142345 71.1112 0.157059 70.9688 0.176679C70.8485 0.191394 70.7307 0.211013 70.6129 0.22818C70.4729 0.2478 70.333 0.26742 70.1931 0.291944C70.1735 0.294397 70.1514 0.296849 70.1317 0.301754C70.0532 0.316469 69.9746 0.333636 69.8936 0.348351C69.7267 0.380233 69.5597 0.409662 69.3928 0.443996C69.2848 0.466068 69.1793 0.490593 69.0737 0.515117C68.919 0.549452 68.7644 0.586239 68.6097 0.625478C68.5017 0.652455 68.3937 0.681884 68.2857 0.711314C68.136 0.753005 67.9887 0.794697 67.8414 0.838841C67.7334 0.870723 67.6254 0.905057 67.5173 0.939392C67.3725 0.985988 67.2277 1.03504 67.0853 1.08409C66.9797 1.12087 66.8742 1.15766 66.7711 1.1969C66.6262 1.25085 66.4839 1.30481 66.3415 1.36121C66.2408 1.40045 66.1402 1.43969 66.0395 1.48138C65.8922 1.5427 65.7474 1.60646 65.605 1.67268C65.5118 1.71437 65.4185 1.75361 65.3276 1.79775C65.1681 1.87132 65.0134 1.9498 64.8563 2.03073C64.7802 2.06752 64.7041 2.10431 64.6305 2.14355C64.3997 2.26372 64.1739 2.38879 63.9505 2.51877L54.7204 7.87738C54.9438 7.7474 55.1721 7.62233 55.4003 7.50216C55.4764 7.46292 55.5526 7.42613 55.6286 7.38934C55.7833 7.31086 55.9404 7.23239 56.0975 7.15881L56.0926 7.15391Z" fill="#A492FF"/>
        <path d="M81.4509 10.1155C60.8328 -1.77641 44.0689 7.77098 44.0002 31.4396C43.9756 40.4107 46.8576 50.0954 50.449 59.584L81.0164 130.933L111.945 95.0538C115.968 88.9398 118.629 83.5592 118.656 74.4998C118.722 50.8312 102.064 22.005 81.4484 10.1131L81.4509 10.1155ZM81.2594 77.531C69.9771 71.0247 60.8599 55.248 60.8967 42.2942C60.9335 29.3452 70.1096 24.119 81.392 30.6254C92.6768 37.1342 101.792 52.9108 101.755 65.8598C101.718 78.8137 92.5442 84.0398 81.2594 77.531Z" fill="#7B61FF"/>
        <path d="M122.324 87.9768C122.397 87.8566 122.471 87.7364 122.542 87.6163C122.687 87.3759 122.832 87.1356 122.972 86.8952C123.036 86.7873 123.099 86.6794 123.161 86.5715C123.36 86.2282 123.553 85.8848 123.74 85.539C123.745 85.5292 123.75 85.5194 123.755 85.5121C123.936 85.1785 124.111 84.8425 124.28 84.5066C124.334 84.3986 124.388 84.2883 124.442 84.1804C124.562 83.9376 124.68 83.6923 124.793 83.4446C124.85 83.322 124.906 83.1969 124.963 83.0743C125.075 82.8242 125.183 82.574 125.289 82.3214C125.336 82.2111 125.385 82.0982 125.429 81.9879C125.576 81.6249 125.719 81.2595 125.851 80.8892C125.856 80.872 125.861 80.8573 125.868 80.8401C125.996 80.487 126.116 80.1265 126.232 79.7635C126.269 79.6433 126.305 79.5207 126.342 79.4006C126.423 79.1332 126.502 78.861 126.575 78.5863C126.612 78.449 126.649 78.3117 126.683 78.1719C126.755 77.8898 126.823 77.6054 126.887 77.316C126.914 77.1909 126.944 77.0683 126.971 76.9432C127.059 76.5312 127.14 76.1118 127.211 75.6851C127.216 75.6581 127.219 75.6287 127.223 75.6017C127.28 75.2584 127.334 74.9101 127.381 74.5545C127.388 74.4956 127.393 74.4319 127.403 74.373C127.42 74.2283 127.437 74.0812 127.452 73.9365C127.489 73.6226 127.52 73.3062 127.55 72.9849C127.565 72.8206 127.577 72.6539 127.589 72.4871C127.614 72.156 127.633 71.82 127.651 71.4767C127.658 71.3246 127.668 71.1726 127.673 71.0181C127.692 70.5227 127.705 70.0175 127.705 69.5C127.705 69.088 127.7 68.676 127.692 68.2615C127.69 68.1291 127.685 67.9942 127.68 67.8593C127.673 67.5748 127.663 67.2903 127.648 67.0059C127.646 66.9421 127.646 66.8783 127.641 66.8121C127.638 66.7532 127.631 66.6944 127.628 66.6355C127.599 66.0592 127.562 65.478 127.513 64.8967C127.508 64.833 127.501 64.7668 127.496 64.703C127.447 64.1267 127.388 63.5479 127.319 62.9691C127.312 62.9152 127.307 62.8612 127.302 62.8073C127.231 62.2162 127.15 61.6252 127.061 61.0317C127.047 60.9262 127.03 60.8208 127.015 60.7153C126.926 60.1365 126.828 59.5553 126.72 58.9741C126.713 58.9299 126.705 58.8833 126.698 58.8392C126.688 58.7803 126.674 58.7215 126.661 58.6626C126.546 58.0495 126.423 57.4364 126.291 56.8233C126.276 56.7521 126.259 56.6835 126.244 56.6124C126.104 55.9796 125.959 55.3444 125.8 54.7117C125.795 54.6921 125.79 54.6725 125.785 54.6528C125.625 54.0152 125.456 53.3776 125.279 52.7399C125.255 52.6541 125.233 52.5683 125.208 52.4824C125.036 51.8718 124.855 51.2611 124.666 50.6504C124.648 50.594 124.634 50.5352 124.614 50.4788C124.602 50.4371 124.585 50.3954 124.572 50.3512C124.334 49.5934 124.086 48.8381 123.824 48.0827C123.799 48.0091 123.774 47.9356 123.747 47.862C123.472 47.0748 123.185 46.29 122.883 45.5052C122.869 45.4684 122.856 45.4316 122.842 45.3948C122.527 44.5782 122.198 43.764 121.857 42.9522C121.845 42.9228 121.83 42.8909 121.818 42.8615C121.487 42.0767 121.143 41.2968 120.787 40.5194C120.775 40.4924 120.765 40.4654 120.753 40.4384C120.73 40.3894 120.706 40.3403 120.684 40.2913C120.375 39.6218 120.058 38.9547 119.731 38.2901C119.697 38.219 119.663 38.1503 119.628 38.0816C119.297 37.4096 118.958 36.7426 118.607 36.078C118.575 36.0191 118.543 35.9578 118.511 35.8989C118.155 35.227 117.792 34.5574 117.421 33.8953C117.394 33.8462 117.365 33.7947 117.335 33.7457C116.957 33.0737 116.57 32.4042 116.174 31.742C116.152 31.7052 116.13 31.6685 116.108 31.6317C115.703 30.9572 115.291 30.2877 114.868 29.6231C114.856 29.601 114.841 29.5814 114.827 29.5593C114.395 28.8825 113.955 28.208 113.506 27.5434C113.503 27.5385 113.501 27.5361 113.499 27.5312C113.049 26.8641 112.59 26.2044 112.121 25.5496C112.112 25.5349 112.102 25.5202 112.092 25.5054C111.633 24.8629 111.164 24.2302 110.69 23.6023C110.668 23.5754 110.649 23.5459 110.626 23.5165C110.16 22.9034 109.686 22.2976 109.205 21.6968C109.173 21.6575 109.144 21.6183 109.112 21.5791C108.638 20.9905 108.159 20.4117 107.673 19.8427C107.634 19.7961 107.592 19.7471 107.553 19.7005C107.072 19.1389 106.586 18.5871 106.095 18.0426C106.046 17.9887 105.999 17.9347 105.95 17.8808C105.464 17.3437 104.971 16.8164 104.472 16.2989C104.416 16.2401 104.362 16.1812 104.305 16.1248C103.809 15.6122 103.309 15.1095 102.805 14.6141C102.744 14.5552 102.685 14.4939 102.624 14.4351C102.12 13.947 101.612 13.4688 101.102 12.9979C101.035 12.9366 100.969 12.8753 100.903 12.814C100.392 12.3505 99.8792 11.8968 99.3613 11.4529C99.2901 11.3916 99.2189 11.3303 99.1477 11.2689C98.6297 10.83 98.1093 10.4008 97.584 9.98141C97.5422 9.94708 97.5005 9.91274 97.4588 9.87841C97.4244 9.85143 97.3876 9.82445 97.3532 9.79748C96.8622 9.40999 96.3688 9.02986 95.8705 8.66199C95.787 8.60068 95.7036 8.53937 95.6226 8.47806C95.1218 8.11019 94.6185 7.74968 94.1104 7.40143C94.0343 7.34993 93.9582 7.29843 93.8846 7.24693C93.3641 6.89377 92.8413 6.54798 92.3159 6.21444C92.2644 6.18256 92.2128 6.15068 92.1613 6.1188C91.6089 5.77055 91.0517 5.43456 90.492 5.11084L81.2619 10.4694C81.8216 10.7932 82.3764 11.1292 82.9311 11.4774C82.9827 11.5093 83.0342 11.5412 83.0858 11.5731C83.6111 11.9066 84.134 12.2499 84.6544 12.6055C84.7305 12.657 84.8066 12.7085 84.8803 12.76C85.386 13.1083 85.8892 13.4663 86.39 13.8342C86.4735 13.8955 86.5569 13.9568 86.6404 14.0181C87.1363 14.386 87.6297 14.7661 88.1206 15.1536C88.1992 15.2149 88.2753 15.2763 88.3514 15.3376C88.8767 15.7569 89.3971 16.1837 89.9127 16.6227C89.9838 16.684 90.055 16.7453 90.1262 16.8066C90.6442 17.2505 91.1597 17.7042 91.6679 18.1677C91.7341 18.229 91.8004 18.2903 91.8667 18.3516C92.3773 18.8201 92.8854 19.3007 93.3887 19.7888C93.45 19.8476 93.5114 19.9089 93.5728 19.9678C94.0785 20.4632 94.5793 20.966 95.0727 21.4785C95.1291 21.5374 95.1832 21.5962 95.2396 21.6526C95.7379 22.1726 96.2314 22.6998 96.7174 23.2345C96.7665 23.2884 96.8131 23.3424 96.8622 23.3963C97.3532 23.9408 97.8393 24.4926 98.3204 25.0542C98.3621 25.1032 98.4014 25.1523 98.4431 25.1989C98.9292 25.7703 99.4079 26.3491 99.8817 26.9352C99.9136 26.9745 99.943 27.0137 99.975 27.0529C100.456 27.6513 100.93 28.2571 101.396 28.8727C101.418 28.9021 101.438 28.9291 101.46 28.9585C101.934 29.5863 102.403 30.2191 102.862 30.8616C102.872 30.8763 102.881 30.891 102.891 30.9057C103.358 31.5581 103.817 32.2203 104.268 32.8873C104.271 32.8922 104.273 32.8947 104.276 32.8996C104.725 33.5642 105.162 34.2362 105.594 34.9131C105.609 34.9351 105.623 34.9572 105.636 34.9793C106.058 35.6414 106.47 36.3134 106.873 36.9878C106.895 37.0246 106.917 37.0614 106.939 37.0957C107.335 37.7603 107.722 38.4274 108.103 39.1018C108.13 39.1509 108.159 39.1999 108.186 39.249C108.559 39.9111 108.92 40.5807 109.276 41.2526C109.308 41.314 109.34 41.3753 109.374 41.4341C109.723 42.0963 110.062 42.7658 110.393 43.4353C110.428 43.5064 110.462 43.5751 110.496 43.6438C110.823 44.3084 111.139 44.9755 111.449 45.6474C111.483 45.721 111.518 45.797 111.552 45.8706C111.908 46.648 112.252 47.4304 112.583 48.2152C112.595 48.2446 112.61 48.2765 112.622 48.3059C112.963 49.1177 113.292 49.9343 113.607 50.751C113.621 50.7853 113.634 50.8221 113.646 50.8564C113.948 51.6412 114.235 52.4285 114.51 53.2182C114.534 53.2917 114.559 53.3629 114.586 53.4364C114.849 54.1918 115.097 54.9496 115.335 55.7074C115.367 55.8055 115.396 55.9036 115.426 56.0017C115.615 56.6124 115.796 57.223 115.968 57.8337C115.993 57.9195 116.015 58.0053 116.039 58.0912C116.216 58.7288 116.388 59.3665 116.545 60.0041C116.55 60.0237 116.555 60.0433 116.56 60.063C116.717 60.6981 116.864 61.3309 117.004 61.9636C117.019 62.0347 117.036 62.1034 117.051 62.1745C117.183 62.7876 117.306 63.4032 117.421 64.0139C117.441 64.1193 117.461 64.2223 117.48 64.3278C117.586 64.909 117.684 65.4902 117.775 66.069C117.792 66.1745 117.807 66.2799 117.821 66.3854C117.91 66.9789 117.991 67.5724 118.062 68.161C118.069 68.2149 118.074 68.2689 118.079 68.3228C118.148 68.904 118.204 69.4804 118.256 70.0567C118.261 70.1205 118.268 70.1867 118.273 70.2505C118.322 70.8317 118.359 71.4105 118.389 71.9892C118.396 72.1119 118.401 72.2369 118.408 72.3596C118.42 72.644 118.43 72.9285 118.438 73.213C118.443 73.3479 118.447 73.4803 118.45 73.6152C118.46 74.0297 118.465 74.4417 118.462 74.8537C118.462 75.3736 118.447 75.8764 118.43 76.3718C118.425 76.5287 118.416 76.6783 118.408 76.8328C118.391 77.1737 118.371 77.5097 118.347 77.8408C118.335 78.0076 118.32 78.1743 118.305 78.3386C118.276 78.6599 118.244 78.9763 118.207 79.2902C118.19 79.4349 118.175 79.582 118.155 79.7267C118.101 80.1436 118.042 80.5532 117.976 80.9554C117.971 80.9824 117.969 81.0118 117.964 81.0388C117.89 81.468 117.809 81.8849 117.723 82.2969C117.696 82.422 117.667 82.5446 117.64 82.6697C117.576 82.9566 117.507 83.2435 117.436 83.5256C117.399 83.6654 117.365 83.8027 117.328 83.94C117.254 84.2147 117.176 84.4869 117.095 84.7543C117.058 84.8744 117.024 84.997 116.984 85.1172C116.869 85.4802 116.749 85.8407 116.621 86.1938C116.616 86.211 116.611 86.2257 116.604 86.2429C116.469 86.6132 116.327 86.9786 116.182 87.3416C116.135 87.4544 116.088 87.5648 116.042 87.6776C115.936 87.9302 115.828 88.1828 115.715 88.4305C115.659 88.5531 115.602 88.6782 115.546 88.8008C115.431 89.0485 115.315 89.2913 115.195 89.5365C115.141 89.6444 115.089 89.7548 115.033 89.8627C114.863 90.1987 114.689 90.5347 114.507 90.8682C114.503 90.878 114.498 90.8878 114.493 90.8952C114.306 91.241 114.112 91.5843 113.913 91.9277C113.852 92.0356 113.788 92.1435 113.724 92.2514C113.584 92.4917 113.442 92.7321 113.295 92.9724C113.221 93.0926 113.15 93.2128 113.074 93.3329C112.924 93.5757 112.774 93.8161 112.62 94.0613C112.553 94.1668 112.487 94.2698 112.421 94.3752C112.202 94.7186 111.979 95.0619 111.751 95.4102L120.981 90.0516C121.209 89.7033 121.433 89.36 121.651 89.0166C121.717 88.9112 121.784 88.8057 121.85 88.7027C122.005 88.4599 122.154 88.2171 122.304 87.9768H122.324Z" fill="#A492FF"/>
    </g>
    <defs>
        <clipPath id="clip0_1_1551">
            <rect width="163" height="200" fill="white"/>
        </clipPath>
    </defs>
</svg>
