<?xml version="1.0" ?>

<!-- Uploaded to: SVG Repo, www.svgrepo.com, Generator: SVG Repo Mixer Tools -->
<svg width="800px" height="800px" viewBox="0 0 120 120" id="Layer_1" version="1.1" xml:space="preserve" xmlns="http://www.w3.org/2000/svg" xmlns:xlink="http://www.w3.org/1999/xlink">

<style type="text/css">
	.st0{fill:#FCEDDB;}
	.st1{fill:#F47C7C;}
	.st2{fill:#D66767;}
	.st3{fill:#FFF2F2;}
	.st4{fill:#EFA3A3;}
	.st5{fill:#83E598;}
</style>

<g>

<path class="st0" fill="#FCEDDB" d="M19.5,96.5h73.1c4.1,0,7.3-3.3,7.3-7.3V26.9c0-4.1-3.3-7.3-7.3-7.3H19.5c-4.1,0-7.3,3.3-7.3,7.3v62.2   C12.2,93.2,15.5,96.5,19.5,96.5z"/>

<path class="st1" fill="#F47C7C" d="M100,26.6v15.1H12.2V26.6c0-3.9,3.2-7,7-7h73.7C96.8,19.5,100,22.7,100,26.6z"/>

<g>

<circle class="st2" fill="#D66767" cx="35" cy="30.6" r="3.6"/>

<circle class="st2" fill="#D66767" cx="56.1" cy="30.6" r="3.6"/>

<circle class="st2" fill="#D66767" cx="77.2" cy="30.6" r="3.6"/>

</g>

<g>

<path class="st3" fill="#FFF2F2" d="M36,15.1h-2c-0.6,0-1.1,0.5-1.1,1.1v13.9c0,0.6,0.5,1.1,1.1,1.1h2c0.6,0,1.1-0.5,1.1-1.1V16.3    C37.2,15.6,36.6,15.1,36,15.1z"/>

<path class="st3" fill="#FFF2F2" d="M57.1,15.1h-2c-0.6,0-1.1,0.5-1.1,1.1v13.9c0,0.6,0.5,1.1,1.1,1.1h2c0.6,0,1.1-0.5,1.1-1.1V16.3    C58.2,15.6,57.7,15.1,57.1,15.1z"/>

<path class="st3" fill="#FFF2F2" d="M78.2,15.1h-2c-0.6,0-1.1,0.5-1.1,1.1v13.9c0,0.6,0.5,1.1,1.1,1.1h2c0.6,0,1.1-0.5,1.1-1.1V16.3    C79.3,15.6,78.8,15.1,78.2,15.1z"/>

</g>

<g>

<path class="st4" fill="#EFA3A3" d="M37,51.8h-8.6c-1,0-1.8,0.8-1.8,1.8v8.6c0,1,0.8,1.8,1.8,1.8H37c1,0,1.8-0.8,1.8-1.8v-8.6    C38.9,52.7,38.1,51.8,37,51.8z"/>

<path class="st4" fill="#EFA3A3" d="M60.4,51.8h-8.6c-1,0-1.8,0.8-1.8,1.8v8.6c0,1,0.8,1.8,1.8,1.8h8.6c1,0,1.8-0.8,1.8-1.8v-8.6    C62.3,52.7,61.4,51.8,60.4,51.8z"/>

<path class="st4" fill="#EFA3A3" d="M83.8,51.8h-8.6c-1,0-1.8,0.8-1.8,1.8v8.6c0,1,0.8,1.8,1.8,1.8h8.6c1,0,1.8-0.8,1.8-1.8v-8.6    C85.6,52.7,84.8,51.8,83.8,51.8z"/>

<path class="st4" fill="#EFA3A3" d="M37,74.5h-8.6c-1,0-1.8,0.8-1.8,1.8v8.6c0,1,0.8,1.8,1.8,1.8H37c1,0,1.8-0.8,1.8-1.8v-8.6    C38.9,75.3,38.1,74.5,37,74.5z"/>

<path class="st4" fill="#EFA3A3" d="M60.4,74.5h-8.6c-1,0-1.8,0.8-1.8,1.8v8.6c0,1,0.8,1.8,1.8,1.8h8.6c1,0,1.8-0.8,1.8-1.8v-8.6    C62.3,75.3,61.4,74.5,60.4,74.5z"/>

<path class="st4" fill="#EFA3A3" d="M83.8,74.5h-8.6c-1,0-1.8,0.8-1.8,1.8v8.6c0,1,0.8,1.8,1.8,1.8h8.6c1,0,1.8-0.8,1.8-1.8v-8.6    C85.6,75.3,84.8,74.5,83.8,74.5z"/>

</g>

<circle class="st5" fill="#83E598" cx="88.2" cy="85.3" r="19.6"/>

<path class="st3" fill="#FFF2F2" d="M85.9,94.1c0,0-0.1,0-0.1,0c-0.8,0-1.5-0.4-2-1l-7.9-8.9c-1-1.2-0.9-3,0.2-4c1.2-1,3-0.9,4,0.2l6,6.7l10.3-9.9   c1.1-1.1,2.9-1,4,0.1c1.1,1.1,1,2.9-0.1,4L87.9,93.4C87.4,93.9,86.7,94.1,85.9,94.1z"/>

</g>

</svg>