<svg width="25" height="24" viewBox="0 0 25 24" fill="none" xmlns="http://www.w3.org/2000/svg">
    <path d="M9.5 22H15.5C20.5 22 22.5 20 22.5 15V9C22.5 4 20.5 2 15.5 2H9.5C4.5 2 2.5 4 2.5 9V15C2.5 20 4.5 22 9.5 22Z" stroke="#CDCDCD" stroke-linecap="round" stroke-linejoin="round"/>
    <path d="M2.5 13.0002H6.26C7.02 13.0002 7.71 13.4302 8.05 14.1102L8.94 15.9002C9.5 17.0002 10.5 17.0002 10.74 17.0002H14.27C15.03 17.0002 15.72 16.5702 16.06 15.8902L16.95 14.1002C17.29 13.4202 17.98 12.9902 18.74 12.9902H22.48" stroke="#CDCDCD" stroke-linecap="round" stroke-linejoin="round"/>
</svg>
