<svg width="12" height="12" viewBox="0 0 12 12" fill="#6cb64f" xmlns="http://www.w3.org/2000/svg">
    <mask id="path-1-inside-1_394_489" fill="#6cb64f">
        <path d="M6 11.3752C4 11.3752 2.375 9.94019 2.375 8.17519V6.3252C2.375 6.1202 2.545 5.9502 2.75 5.9502C2.955 5.9502 3.125 6.1202 3.125 6.3252C3.125 7.6352 4.36 8.62519 6 8.62519C7.64 8.62519 8.875 7.6352 8.875 6.3252C8.875 6.1202 9.045 5.9502 9.25 5.9502C9.455 5.9502 9.625 6.1202 9.625 6.3252V8.17519C9.625 9.94019 8 11.3752 6 11.3752ZM3.125 8.23019C3.16 9.55519 4.435 10.6252 6 10.6252C7.565 10.6252 8.84 9.55519 8.875 8.23019C8.225 8.93519 7.195 9.37519 6 9.37519C4.805 9.37519 3.78 8.93519 3.125 8.23019Z"/>
    </mask>
    <path d="M6 11.3752C4 11.3752 2.375 9.94019 2.375 8.17519V6.3252C2.375 6.1202 2.545 5.9502 2.75 5.9502C2.955 5.9502 3.125 6.1202 3.125 6.3252C3.125 7.6352 4.36 8.62519 6 8.62519C7.64 8.62519 8.875 7.6352 8.875 6.3252C8.875 6.1202 9.045 5.9502 9.25 5.9502C9.455 5.9502 9.625 6.1202 9.625 6.3252V8.17519C9.625 9.94019 8 11.3752 6 11.3752ZM3.125 8.23019C3.16 9.55519 4.435 10.6252 6 10.6252C7.565 10.6252 8.84 9.55519 8.875 8.23019C8.225 8.93519 7.195 9.37519 6 9.37519C4.805 9.37519 3.78 8.93519 3.125 8.23019Z" fill="#292D32"/>
    <path d="M3.125 8.23019L3.85761 7.54954L2.05543 5.6098L2.12535 8.2566L3.125 8.23019ZM8.875 8.23019L9.87465 8.2566L9.94497 5.59443L8.1398 7.55235L8.875 8.23019ZM6 10.3752C4.43156 10.3752 3.375 9.27446 3.375 8.17519H1.375C1.375 10.6059 3.56844 12.3752 6 12.3752V10.3752ZM3.375 8.17519V6.3252H1.375V8.17519H3.375ZM3.375 6.3252C3.375 6.67248 3.09728 6.9502 2.75 6.9502V4.9502C1.99272 4.9502 1.375 5.56791 1.375 6.3252H3.375ZM2.75 6.9502C2.40272 6.9502 2.125 6.67248 2.125 6.3252H4.125C4.125 5.56791 3.50728 4.9502 2.75 4.9502V6.9502ZM2.125 6.3252C2.125 8.38368 4.02686 9.62519 6 9.62519V7.62519C4.69314 7.62519 4.125 6.88671 4.125 6.3252H2.125ZM6 9.62519C7.97314 9.62519 9.875 8.38368 9.875 6.3252H7.875C7.875 6.88671 7.30686 7.62519 6 7.62519V9.62519ZM9.875 6.3252C9.875 6.67248 9.59728 6.9502 9.25 6.9502V4.9502C8.49272 4.9502 7.875 5.56791 7.875 6.3252H9.875ZM9.25 6.9502C8.90272 6.9502 8.625 6.67248 8.625 6.3252H10.625C10.625 5.56791 10.0073 4.9502 9.25 4.9502V6.9502ZM8.625 6.3252V8.17519H10.625V6.3252H8.625ZM8.625 8.17519C8.625 9.27446 7.56844 10.3752 6 10.3752V12.3752C8.43156 12.3752 10.625 10.6059 10.625 8.17519H8.625ZM2.12535 8.2566C2.17827 10.26 4.04085 11.6252 6 11.6252V9.62519C4.82915 9.62519 4.14173 8.85036 4.12465 8.20379L2.12535 8.2566ZM6 11.6252C7.95915 11.6252 9.82173 10.26 9.87465 8.2566L7.87535 8.20379C7.85827 8.85036 7.17085 9.62519 6 9.62519V11.6252ZM8.1398 7.55235C7.70532 8.02359 6.95684 8.37519 6 8.37519V10.3752C7.43316 10.3752 8.74468 9.8468 9.6102 8.90804L8.1398 7.55235ZM6 8.37519C5.04549 8.37519 4.29932 8.02497 3.85761 7.54954L2.39239 8.91084C3.26068 9.84542 4.56451 10.3752 6 10.3752V8.37519Z" fill="#6cb64f" mask="url(#path-1-inside-1_394_489)"/>
    <mask id="path-3-inside-2_394_489" fill="#6cb64f">
        <path d="M6 6.875C4.62 6.875 3.37999 6.255 2.77499 5.255C2.51499 4.83 2.375 4.335 2.375 3.825C2.375 2.965 2.76 2.155 3.455 1.545C4.135 0.95 5.04 0.625 6 0.625C6.96 0.625 7.86 0.950001 8.545 1.54C9.24 2.155 9.625 2.965 9.625 3.825C9.625 4.335 9.48501 4.825 9.22501 5.255C8.62001 6.255 7.38 6.875 6 6.875ZM6 1.375C5.22 1.375 4.49001 1.635 3.94501 2.115C3.41501 2.575 3.125 3.185 3.125 3.825C3.125 4.2 3.22499 4.55 3.41499 4.865C3.88999 5.645 4.88 6.125 6 6.125C7.12 6.125 8.11001 5.64 8.58501 4.865C8.78001 4.55 8.875 4.2 8.875 3.825C8.875 3.185 8.585 2.575 8.05 2.105C7.505 1.635 6.78 1.375 6 1.375Z"/>
    </mask>
    <path d="M6 6.875C4.62 6.875 3.37999 6.255 2.77499 5.255C2.51499 4.83 2.375 4.335 2.375 3.825C2.375 2.965 2.76 2.155 3.455 1.545C4.135 0.95 5.04 0.625 6 0.625C6.96 0.625 7.86 0.950001 8.545 1.54C9.24 2.155 9.625 2.965 9.625 3.825C9.625 4.335 9.48501 4.825 9.22501 5.255C8.62001 6.255 7.38 6.875 6 6.875ZM6 1.375C5.22 1.375 4.49001 1.635 3.94501 2.115C3.41501 2.575 3.125 3.185 3.125 3.825C3.125 4.2 3.22499 4.55 3.41499 4.865C3.88999 5.645 4.88 6.125 6 6.125C7.12 6.125 8.11001 5.64 8.58501 4.865C8.78001 4.55 8.875 4.2 8.875 3.825C8.875 3.185 8.585 2.575 8.05 2.105C7.505 1.635 6.78 1.375 6 1.375Z" fill="#292D32"/>
    <path d="M2.77499 5.255L3.6306 4.73735L3.62803 4.73314L2.77499 5.255ZM3.455 1.545L2.7965 0.792423L2.79535 0.793429L3.455 1.545ZM8.545 1.54L9.20775 0.79104L9.19761 0.782308L8.545 1.54ZM9.22501 5.255L10.0806 5.77264L10.0807 5.77242L9.22501 5.255ZM3.94501 2.115L4.6005 2.87024L4.60595 2.86544L3.94501 2.115ZM3.41499 4.865L2.55869 5.3815L2.5609 5.38512L3.41499 4.865ZM8.58501 4.865L7.73473 4.33864L7.73241 4.34244L8.58501 4.865ZM8.05 2.105L8.71003 1.3537L8.70308 1.34771L8.05 2.105ZM6 5.875C4.89278 5.875 4.01778 5.37734 3.63059 4.73736L1.91939 5.77264C2.74221 7.13266 4.34722 7.875 6 7.875V5.875ZM3.62803 4.73314C3.46488 4.46646 3.375 4.15226 3.375 3.825H1.375C1.375 4.51774 1.56511 5.19354 1.92196 5.77685L3.62803 4.73314ZM3.375 3.825C3.375 3.27795 3.61635 2.73393 4.11465 2.29657L2.79535 0.793429C1.90365 1.57607 1.375 2.65205 1.375 3.825H3.375ZM4.11351 2.29758C4.59743 1.87414 5.26326 1.625 6 1.625V-0.375C4.81675 -0.375 3.67257 0.0258554 2.7965 0.792423L4.11351 2.29758ZM6 1.625C6.73489 1.625 7.39952 1.87318 7.89239 2.29769L9.19761 0.782308C8.32047 0.0268198 7.18511 -0.375 6 -0.375V1.625ZM7.88231 2.28889C8.38394 2.73279 8.625 3.27848 8.625 3.825H10.625C10.625 2.65152 10.0961 1.57721 9.20769 0.791107L7.88231 2.28889ZM8.625 3.825C8.625 4.1495 8.53651 4.461 8.36927 4.73758L10.0807 5.77242C10.4335 5.189 10.625 4.5205 10.625 3.825H8.625ZM8.36941 4.73736C7.98222 5.37734 7.10722 5.875 6 5.875V7.875C7.65278 7.875 9.25779 7.13266 10.0806 5.77264L8.36941 4.73736ZM6 0.375C5.0004 0.375 4.02874 0.708702 3.28407 1.36456L4.60595 2.86544C4.95127 2.5613 5.4396 2.375 6 2.375V0.375ZM3.28953 1.35978C2.56132 1.99182 2.125 2.869 2.125 3.825H4.125C4.125 3.501 4.26869 3.15818 4.60048 2.87022L3.28953 1.35978ZM2.125 3.825C2.125 4.38501 2.27623 4.91319 2.5587 5.38149L4.27128 4.34851C4.17376 4.18681 4.125 4.01499 4.125 3.825H2.125ZM2.5609 5.38512C3.26178 6.53604 4.6259 7.125 6 7.125V5.125C5.1341 5.125 4.51821 4.75396 4.26909 4.34488L2.5609 5.38512ZM6 7.125C7.37745 7.125 8.73807 6.52891 9.43761 5.38756L7.73241 4.34244C7.48194 4.75109 6.86255 5.125 6 5.125V7.125ZM9.43527 5.39135C9.73317 4.91014 9.875 4.3762 9.875 3.825H7.875C7.875 4.0238 7.82685 4.18986 7.73474 4.33865L9.43527 5.39135ZM9.875 3.825C9.875 2.86684 9.4371 1.9925 8.71 1.35373L7.39001 2.85627C7.7329 3.1575 7.875 3.50316 7.875 3.825H9.875ZM8.70308 1.34771C7.96262 0.709144 7.00073 0.375 6 0.375V2.375C6.55927 2.375 7.04739 2.56086 7.39693 2.86229L8.70308 1.34771Z" fill="#6cb64f" mask="url(#path-3-inside-2_394_489)"/>
    <mask id="path-5-inside-3_394_489" fill="#6cb64f">
        <path d="M6 9.375C3.935 9.375 2.375 8.065 2.375 6.325V3.825C2.375 2.06 4 0.625 6 0.625C6.96 0.625 7.86 0.950001 8.545 1.54C9.24 2.155 9.625 2.965 9.625 3.825V6.325C9.625 8.065 8.065 9.375 6 9.375ZM6 1.375C4.415 1.375 3.125 2.475 3.125 3.825V6.325C3.125 7.635 4.36 8.625 6 8.625C7.64 8.625 8.875 7.635 8.875 6.325V3.825C8.875 3.185 8.585 2.575 8.05 2.105C7.505 1.635 6.78 1.375 6 1.375Z"/>
    </mask>
    <path d="M6 9.375C3.935 9.375 2.375 8.065 2.375 6.325V3.825C2.375 2.06 4 0.625 6 0.625C6.96 0.625 7.86 0.950001 8.545 1.54C9.24 2.155 9.625 2.965 9.625 3.825V6.325C9.625 8.065 8.065 9.375 6 9.375ZM6 1.375C4.415 1.375 3.125 2.475 3.125 3.825V6.325C3.125 7.635 4.36 8.625 6 8.625C7.64 8.625 8.875 7.635 8.875 6.325V3.825C8.875 3.185 8.585 2.575 8.05 2.105C7.505 1.635 6.78 1.375 6 1.375Z" fill="#292D32"/>
    <path d="M8.545 1.54L9.20775 0.79104L9.19761 0.782308L8.545 1.54ZM8.05 2.105L8.71003 1.3537L8.70308 1.34771L8.05 2.105ZM6 8.375C4.31791 8.375 3.375 7.35735 3.375 6.325H1.375C1.375 8.77266 3.55209 10.375 6 10.375V8.375ZM3.375 6.325V3.825H1.375V6.325H3.375ZM3.375 3.825C3.375 2.72573 4.43156 1.625 6 1.625V-0.375C3.56844 -0.375 1.375 1.39427 1.375 3.825H3.375ZM6 1.625C6.73489 1.625 7.39952 1.87318 7.89239 2.29769L9.19761 0.782308C8.32047 0.0268198 7.18511 -0.375 6 -0.375V1.625ZM7.88231 2.28889C8.38394 2.73279 8.625 3.27848 8.625 3.825H10.625C10.625 2.65152 10.0961 1.57721 9.20769 0.791107L7.88231 2.28889ZM8.625 3.825V6.325H10.625V3.825H8.625ZM8.625 6.325C8.625 7.35735 7.68209 8.375 6 8.375V10.375C8.44791 10.375 10.625 8.77266 10.625 6.325H8.625ZM6 0.375C4.01851 0.375 2.125 1.77884 2.125 3.825H4.125C4.125 3.17116 4.81149 2.375 6 2.375V0.375ZM2.125 3.825V6.325H4.125V3.825H2.125ZM2.125 6.325C2.125 8.38349 4.02686 9.625 6 9.625V7.625C4.69314 7.625 4.125 6.88651 4.125 6.325H2.125ZM6 9.625C7.97314 9.625 9.875 8.38349 9.875 6.325H7.875C7.875 6.88651 7.30686 7.625 6 7.625V9.625ZM9.875 6.325V3.825H7.875V6.325H9.875ZM9.875 3.825C9.875 2.86684 9.4371 1.9925 8.71 1.35373L7.39001 2.85627C7.7329 3.1575 7.875 3.50316 7.875 3.825H9.875ZM8.70308 1.34771C7.96262 0.709144 7.00073 0.375 6 0.375V2.375C6.55927 2.375 7.04739 2.56086 7.39693 2.86229L8.70308 1.34771Z" fill="#6cb64f" mask="url(#path-5-inside-3_394_489)"/>
</svg>
