<svg width="343" height="125" viewBox="0 0 343 125" fill="none" xmlns="http://www.w3.org/2000/svg">
    <g clip-path="url(#clip0_1_1383)">
        <rect width="343" height="125" rx="16" fill="url(#paint0_linear_1_1383)"/>
        <path d="M21.472 35.126C20.632 35.126 19.876 34.982 19.204 34.694C18.532 34.394 18.004 33.974 17.62 33.434C17.236 32.894 17.044 32.264 17.044 31.544H19.24C19.288 32.084 19.498 32.528 19.87 32.876C20.254 33.224 20.788 33.398 21.472 33.398C22.18 33.398 22.732 33.23 23.128 32.894C23.524 32.546 23.722 32.102 23.722 31.562C23.722 31.142 23.596 30.8 23.344 30.536C23.104 30.272 22.798 30.068 22.426 29.924C22.066 29.78 21.562 29.624 20.914 29.456C20.098 29.24 19.432 29.024 18.916 28.808C18.412 28.58 17.98 28.232 17.62 27.764C17.26 27.296 17.08 26.672 17.08 25.892C17.08 25.172 17.26 24.542 17.62 24.002C17.98 23.462 18.484 23.048 19.132 22.76C19.78 22.472 20.53 22.328 21.382 22.328C22.594 22.328 23.584 22.634 24.352 23.246C25.132 23.846 25.564 24.674 25.648 25.73H23.38C23.344 25.274 23.128 24.884 22.732 24.56C22.336 24.236 21.814 24.074 21.166 24.074C20.578 24.074 20.098 24.224 19.726 24.524C19.354 24.824 19.168 25.256 19.168 25.82C19.168 26.204 19.282 26.522 19.51 26.774C19.75 27.014 20.05 27.206 20.41 27.35C20.77 27.494 21.262 27.65 21.886 27.818C22.714 28.046 23.386 28.274 23.902 28.502C24.43 28.73 24.874 29.084 25.234 29.564C25.606 30.032 25.792 30.662 25.792 31.454C25.792 32.09 25.618 32.69 25.27 33.254C24.934 33.818 24.436 34.274 23.776 34.622C23.128 34.958 22.36 35.126 21.472 35.126ZM34.3433 24.92C35.0993 24.92 35.7713 25.082 36.3593 25.406C36.9593 25.73 37.4273 26.21 37.7633 26.846C38.1113 27.482 38.2853 28.25 38.2853 29.15V35H36.2513V29.456C36.2513 28.568 36.0293 27.89 35.5853 27.422C35.1413 26.942 34.5353 26.702 33.7673 26.702C32.9993 26.702 32.3873 26.942 31.9313 27.422C31.4873 27.89 31.2653 28.568 31.2653 29.456V35H29.2133V21.68H31.2653V26.234C31.6133 25.814 32.0513 25.49 32.5793 25.262C33.1193 25.034 33.7073 24.92 34.3433 24.92ZM41.2187 29.996C41.2187 29 41.4227 28.118 41.8307 27.35C42.2507 26.582 42.8147 25.988 43.5227 25.568C44.2427 25.136 45.0347 24.92 45.8987 24.92C46.6787 24.92 47.3567 25.076 47.9327 25.388C48.5207 25.688 48.9887 26.066 49.3367 26.522V25.082H51.4067V35H49.3367V33.524C48.9887 33.992 48.5147 34.382 47.9147 34.694C47.3147 35.006 46.6307 35.162 45.8627 35.162C45.0107 35.162 44.2307 34.946 43.5227 34.514C42.8147 34.07 42.2507 33.458 41.8307 32.678C41.4227 31.886 41.2187 30.992 41.2187 29.996ZM49.3367 30.032C49.3367 29.348 49.1927 28.754 48.9047 28.25C48.6287 27.746 48.2627 27.362 47.8067 27.098C47.3507 26.834 46.8587 26.702 46.3307 26.702C45.8027 26.702 45.3107 26.834 44.8547 27.098C44.3987 27.35 44.0267 27.728 43.7387 28.232C43.4627 28.724 43.3247 29.312 43.3247 29.996C43.3247 30.68 43.4627 31.28 43.7387 31.796C44.0267 32.312 44.3987 32.708 44.8547 32.984C45.3227 33.248 45.8147 33.38 46.3307 33.38C46.8587 33.38 47.3507 33.248 47.8067 32.984C48.2627 32.72 48.6287 32.336 48.9047 31.832C49.1927 31.316 49.3367 30.716 49.3367 30.032ZM57.154 26.522C57.454 26.018 57.85 25.628 58.342 25.352C58.846 25.064 59.44 24.92 60.124 24.92V27.044H59.602C58.798 27.044 58.186 27.248 57.766 27.656C57.358 28.064 57.154 28.772 57.154 29.78V35H55.102V25.082H57.154V26.522ZM72.1002 29.798C72.1002 30.17 72.0762 30.506 72.0282 30.806H64.4502C64.5102 31.598 64.8042 32.234 65.3322 32.714C65.8602 33.194 66.5082 33.434 67.2762 33.434C68.3802 33.434 69.1602 32.972 69.6162 32.048H71.8302C71.5302 32.96 70.9842 33.71 70.1922 34.298C69.4122 34.874 68.4402 35.162 67.2762 35.162C66.3282 35.162 65.4762 34.952 64.7202 34.532C63.9762 34.1 63.3882 33.5 62.9562 32.732C62.5362 31.952 62.3262 31.052 62.3262 30.032C62.3262 29.012 62.5302 28.118 62.9382 27.35C63.3582 26.57 63.9402 25.97 64.6842 25.55C65.4402 25.13 66.3042 24.92 67.2762 24.92C68.2122 24.92 69.0462 25.124 69.7782 25.532C70.5102 25.94 71.0802 26.516 71.4882 27.26C71.8962 27.992 72.1002 28.838 72.1002 29.798ZM69.9582 29.15C69.9462 28.394 69.6762 27.788 69.1482 27.332C68.6202 26.876 67.9662 26.648 67.1862 26.648C66.4782 26.648 65.8722 26.876 65.3682 27.332C64.8642 27.776 64.5642 28.382 64.4682 29.15H69.9582ZM90.4613 35L88.9133 33.452C88.3133 34.052 87.6593 34.502 86.9513 34.802C86.2433 35.09 85.4513 35.234 84.5753 35.234C83.6873 35.234 82.9013 35.078 82.2173 34.766C81.5333 34.454 81.0053 34.01 80.6333 33.434C80.2613 32.846 80.0753 32.168 80.0753 31.4C80.0753 30.536 80.3213 29.768 80.8133 29.096C81.3053 28.412 82.0373 27.872 83.0093 27.476C82.6613 27.056 82.4153 26.666 82.2713 26.306C82.1273 25.934 82.0553 25.526 82.0553 25.082C82.0553 24.53 82.1933 24.038 82.4693 23.606C82.7573 23.174 83.1653 22.832 83.6933 22.58C84.2213 22.328 84.8333 22.202 85.5293 22.202C86.2373 22.202 86.8373 22.34 87.3293 22.616C87.8333 22.88 88.2053 23.246 88.4453 23.714C88.6973 24.182 88.7993 24.704 88.7513 25.28H86.6993C86.7113 24.836 86.6033 24.494 86.3753 24.254C86.1473 24.002 85.8353 23.876 85.4393 23.876C85.0433 23.876 84.7193 23.996 84.4673 24.236C84.2273 24.464 84.1073 24.746 84.1073 25.082C84.1073 25.406 84.1973 25.73 84.3773 26.054C84.5693 26.366 84.8993 26.774 85.3673 27.278L88.6793 30.572L89.9573 28.466H92.1713L90.5513 31.238L90.1013 31.976L93.1433 35H90.4613ZM84.5753 33.488C85.7033 33.488 86.6993 33.026 87.5633 32.102L84.2513 28.772C82.8353 29.336 82.1273 30.188 82.1273 31.328C82.1273 31.94 82.3553 32.456 82.8113 32.876C83.2673 33.284 83.8553 33.488 84.5753 33.488ZM110.218 26.09C109.894 25.466 109.444 24.998 108.868 24.686C108.292 24.362 107.626 24.2 106.87 24.2C106.042 24.2 105.304 24.386 104.656 24.758C104.008 25.13 103.498 25.658 103.126 26.342C102.766 27.026 102.586 27.818 102.586 28.718C102.586 29.618 102.766 30.416 103.126 31.112C103.498 31.796 104.008 32.324 104.656 32.696C105.304 33.068 106.042 33.254 106.87 33.254C107.986 33.254 108.892 32.942 109.588 32.318C110.284 31.694 110.71 30.848 110.866 29.78H106.168V28.142H113.062V29.744C112.93 30.716 112.582 31.61 112.018 32.426C111.466 33.242 110.74 33.896 109.84 34.388C108.952 34.868 107.962 35.108 106.87 35.108C105.694 35.108 104.62 34.838 103.648 34.298C102.676 33.746 101.902 32.984 101.326 32.012C100.762 31.04 100.48 29.942 100.48 28.718C100.48 27.494 100.762 26.396 101.326 25.424C101.902 24.452 102.676 23.696 103.648 23.156C104.632 22.604 105.706 22.328 106.87 22.328C108.202 22.328 109.384 22.658 110.416 23.318C111.46 23.966 112.216 24.89 112.684 26.09H110.218ZM125.176 29.798C125.176 30.17 125.152 30.506 125.104 30.806H117.526C117.586 31.598 117.88 32.234 118.408 32.714C118.936 33.194 119.584 33.434 120.352 33.434C121.456 33.434 122.236 32.972 122.692 32.048H124.906C124.606 32.96 124.06 33.71 123.268 34.298C122.488 34.874 121.516 35.162 120.352 35.162C119.404 35.162 118.552 34.952 117.796 34.532C117.052 34.1 116.464 33.5 116.032 32.732C115.612 31.952 115.402 31.052 115.402 30.032C115.402 29.012 115.606 28.118 116.014 27.35C116.434 26.57 117.016 25.97 117.76 25.55C118.516 25.13 119.38 24.92 120.352 24.92C121.288 24.92 122.122 25.124 122.854 25.532C123.586 25.94 124.156 26.516 124.564 27.26C124.972 27.992 125.176 28.838 125.176 29.798ZM123.034 29.15C123.022 28.394 122.752 27.788 122.224 27.332C121.696 26.876 121.042 26.648 120.262 26.648C119.554 26.648 118.948 26.876 118.444 27.332C117.94 27.776 117.64 28.382 117.544 29.15H123.034ZM130.59 26.756V32.246C130.59 32.618 130.674 32.888 130.842 33.056C131.022 33.212 131.322 33.29 131.742 33.29H133.002V35H131.382C130.458 35 129.75 34.784 129.258 34.352C128.766 33.92 128.52 33.218 128.52 32.246V26.756H127.35V25.082H128.52V22.616H130.59V25.082H133.002V26.756H130.59Z" fill="white"/>
        <path d="M23.26 51.06C23.028 50.572 22.692 50.196 22.252 49.932C21.812 49.66 21.3 49.524 20.716 49.524C20.132 49.524 19.604 49.66 19.132 49.932C18.668 50.196 18.3 50.58 18.028 51.084C17.764 51.58 17.632 52.156 17.632 52.812C17.632 53.468 17.764 54.044 18.028 54.54C18.3 55.036 18.668 55.42 19.132 55.692C19.604 55.956 20.132 56.088 20.716 56.088C21.532 56.088 22.204 55.844 22.732 55.356C23.26 54.868 23.568 54.208 23.656 53.376H20.32V52.488H24.82V53.328C24.756 54.016 24.54 54.648 24.172 55.224C23.804 55.792 23.32 56.244 22.72 56.58C22.12 56.908 21.452 57.072 20.716 57.072C19.94 57.072 19.232 56.892 18.592 56.532C17.952 56.164 17.444 55.656 17.068 55.008C16.7 54.36 16.516 53.628 16.516 52.812C16.516 51.996 16.7 51.264 17.068 50.616C17.444 49.96 17.952 49.452 18.592 49.092C19.232 48.724 19.94 48.54 20.716 48.54C21.604 48.54 22.388 48.76 23.068 49.2C23.756 49.64 24.256 50.26 24.568 51.06H23.26ZM32.2638 53.46C32.2638 53.668 32.2518 53.888 32.2278 54.12H26.9718C27.0118 54.768 27.2318 55.276 27.6318 55.644C28.0398 56.004 28.5318 56.184 29.1078 56.184C29.5798 56.184 29.9718 56.076 30.2838 55.86C30.6038 55.636 30.8278 55.34 30.9558 54.972H32.1318C31.9558 55.604 31.6038 56.12 31.0758 56.52C30.5478 56.912 29.8918 57.108 29.1078 57.108C28.4838 57.108 27.9238 56.968 27.4278 56.688C26.9398 56.408 26.5558 56.012 26.2758 55.5C25.9958 54.98 25.8558 54.38 25.8558 53.7C25.8558 53.02 25.9918 52.424 26.2638 51.912C26.5358 51.4 26.9158 51.008 27.4038 50.736C27.8998 50.456 28.4678 50.316 29.1078 50.316C29.7318 50.316 30.2838 50.452 30.7638 50.724C31.2438 50.996 31.6118 51.372 31.8678 51.852C32.1318 52.324 32.2638 52.86 32.2638 53.46ZM31.1358 53.232C31.1358 52.816 31.0438 52.46 30.8598 52.164C30.6758 51.86 30.4238 51.632 30.1038 51.48C29.7918 51.32 29.4438 51.24 29.0598 51.24C28.5078 51.24 28.0358 51.416 27.6438 51.768C27.2598 52.12 27.0398 52.608 26.9838 53.232H31.1358ZM35.0373 51.324V55.2C35.0373 55.52 35.1053 55.748 35.2413 55.884C35.3773 56.012 35.6133 56.076 35.9492 56.076H36.7533V57H35.7693C35.1613 57 34.7053 56.86 34.4013 56.58C34.0973 56.3 33.9453 55.84 33.9453 55.2V51.324H33.0933V50.424H33.9453V48.768H35.0373V50.424H36.7533V51.324H35.0373ZM40.9636 56.124C41.9796 55.308 42.7756 54.64 43.3516 54.12C43.9276 53.592 44.4116 53.044 44.8036 52.476C45.2036 51.9 45.4036 51.336 45.4036 50.784C45.4036 50.264 45.2756 49.856 45.0196 49.56C44.7716 49.256 44.3676 49.104 43.8076 49.104C43.2636 49.104 42.8396 49.276 42.5356 49.62C42.2396 49.956 42.0796 50.408 42.0556 50.976H40.9996C41.0316 50.08 41.3036 49.388 41.8156 48.9C42.3276 48.412 42.9876 48.168 43.7956 48.168C44.6196 48.168 45.2716 48.396 45.7516 48.852C46.2396 49.308 46.4836 49.936 46.4836 50.736C46.4836 51.4 46.2836 52.048 45.8836 52.68C45.4916 53.304 45.0436 53.856 44.5396 54.336C44.0356 54.808 43.3916 55.36 42.6076 55.992H46.7356V56.904H40.9636V56.124ZM51.6099 57L50.0499 54.552L48.5499 57H47.4099L49.5339 53.736L47.4099 50.424H48.6459L50.2059 52.86L51.6939 50.424H52.8339L50.7219 53.676L52.8459 57H51.6099ZM58.2113 51.636C58.4273 51.26 58.7473 50.948 59.1713 50.7C59.6033 50.444 60.1033 50.316 60.6713 50.316C61.2553 50.316 61.7833 50.456 62.2553 50.736C62.7353 51.016 63.1113 51.412 63.3833 51.924C63.6553 52.428 63.7913 53.016 63.7913 53.688C63.7913 54.352 63.6553 54.944 63.3833 55.464C63.1113 55.984 62.7353 56.388 62.2553 56.676C61.7833 56.964 61.2553 57.108 60.6713 57.108C60.1113 57.108 59.6153 56.984 59.1833 56.736C58.7593 56.48 58.4353 56.164 58.2113 55.788V60.12H57.1193V50.424H58.2113V51.636ZM62.6753 53.688C62.6753 53.192 62.5753 52.76 62.3753 52.392C62.1753 52.024 61.9033 51.744 61.5593 51.552C61.2233 51.36 60.8513 51.264 60.4433 51.264C60.0433 51.264 59.6713 51.364 59.3273 51.564C58.9913 51.756 58.7193 52.04 58.5113 52.416C58.3113 52.784 58.2113 53.212 58.2113 53.7C58.2113 54.196 58.3113 54.632 58.5113 55.008C58.7193 55.376 58.9913 55.66 59.3273 55.86C59.6713 56.052 60.0433 56.148 60.4433 56.148C60.8513 56.148 61.2233 56.052 61.5593 55.86C61.9033 55.66 62.1753 55.376 62.3753 55.008C62.5753 54.632 62.6753 54.192 62.6753 53.688ZM68.0967 57.108C67.4807 57.108 66.9207 56.968 66.4167 56.688C65.9207 56.408 65.5287 56.012 65.2407 55.5C64.9607 54.98 64.8207 54.38 64.8207 53.7C64.8207 53.028 64.9647 52.436 65.2527 51.924C65.5487 51.404 65.9487 51.008 66.4527 50.736C66.9567 50.456 67.5207 50.316 68.1447 50.316C68.7687 50.316 69.3327 50.456 69.8367 50.736C70.3407 51.008 70.7367 51.4 71.0247 51.912C71.3207 52.424 71.4687 53.02 71.4687 53.7C71.4687 54.38 71.3167 54.98 71.0127 55.5C70.7167 56.012 70.3127 56.408 69.8007 56.688C69.2887 56.968 68.7207 57.108 68.0967 57.108ZM68.0967 56.148C68.4887 56.148 68.8567 56.056 69.2007 55.872C69.5447 55.688 69.8207 55.412 70.0287 55.044C70.2447 54.676 70.3527 54.228 70.3527 53.7C70.3527 53.172 70.2487 52.724 70.0407 52.356C69.8327 51.988 69.5607 51.716 69.2247 51.54C68.8887 51.356 68.5247 51.264 68.1327 51.264C67.7327 51.264 67.3647 51.356 67.0287 51.54C66.7007 51.716 66.4367 51.988 66.2367 52.356C66.0367 52.724 65.9367 53.172 65.9367 53.7C65.9367 54.236 66.0327 54.688 66.2247 55.056C66.4247 55.424 66.6887 55.7 67.0167 55.884C67.3447 56.06 67.7047 56.148 68.0967 56.148ZM73.4685 49.356C73.2605 49.356 73.0845 49.284 72.9405 49.14C72.7965 48.996 72.7245 48.82 72.7245 48.612C72.7245 48.404 72.7965 48.228 72.9405 48.084C73.0845 47.94 73.2605 47.868 73.4685 47.868C73.6685 47.868 73.8365 47.94 73.9725 48.084C74.1165 48.228 74.1885 48.404 74.1885 48.612C74.1885 48.82 74.1165 48.996 73.9725 49.14C73.8365 49.284 73.6685 49.356 73.4685 49.356ZM73.9965 50.424V57H72.9045V50.424H73.9965ZM79.0616 50.304C79.8616 50.304 80.5096 50.548 81.0056 51.036C81.5016 51.516 81.7496 52.212 81.7496 53.124V57H80.6696V53.28C80.6696 52.624 80.5056 52.124 80.1776 51.78C79.8496 51.428 79.4016 51.252 78.8336 51.252C78.2576 51.252 77.7976 51.432 77.4536 51.792C77.1176 52.152 76.9496 52.676 76.9496 53.364V57H75.8576V50.424H76.9496V51.36C77.1656 51.024 77.4576 50.764 77.8256 50.58C78.2016 50.396 78.6136 50.304 79.0616 50.304ZM84.8654 51.324V55.2C84.8654 55.52 84.9334 55.748 85.0694 55.884C85.2054 56.012 85.4414 56.076 85.7774 56.076H86.5814V57H85.5974C84.9894 57 84.5334 56.86 84.2294 56.58C83.9254 56.3 83.7734 55.84 83.7734 55.2V51.324H82.9214V50.424H83.7734V48.768H84.8654V50.424H86.5814V51.324H84.8654ZM93.7797 51.324H92.3997V57H91.3077V51.324H90.4557V50.424H91.3077V49.956C91.3077 49.22 91.4957 48.684 91.8717 48.348C92.2557 48.004 92.8677 47.832 93.7077 47.832V48.744C93.2277 48.744 92.8877 48.84 92.6877 49.032C92.4957 49.216 92.3997 49.524 92.3997 49.956V50.424H93.7797V51.324ZM97.9209 57.108C97.3049 57.108 96.7449 56.968 96.2409 56.688C95.7449 56.408 95.3529 56.012 95.0649 55.5C94.7849 54.98 94.6449 54.38 94.6449 53.7C94.6449 53.028 94.7889 52.436 95.0769 51.924C95.3729 51.404 95.7729 51.008 96.2769 50.736C96.7809 50.456 97.3449 50.316 97.9689 50.316C98.5929 50.316 99.1569 50.456 99.6609 50.736C100.165 51.008 100.561 51.4 100.849 51.912C101.145 52.424 101.293 53.02 101.293 53.7C101.293 54.38 101.141 54.98 100.837 55.5C100.541 56.012 100.137 56.408 99.6249 56.688C99.1129 56.968 98.5449 57.108 97.9209 57.108ZM97.9209 56.148C98.3129 56.148 98.6809 56.056 99.0249 55.872C99.3689 55.688 99.6449 55.412 99.8529 55.044C100.069 54.676 100.177 54.228 100.177 53.7C100.177 53.172 100.073 52.724 99.8649 52.356C99.6569 51.988 99.3849 51.716 99.0489 51.54C98.7129 51.356 98.3489 51.264 97.9569 51.264C97.5569 51.264 97.1889 51.356 96.8529 51.54C96.5249 51.716 96.2609 51.988 96.0609 52.356C95.8609 52.724 95.7609 53.172 95.7609 53.7C95.7609 54.236 95.8569 54.688 96.0489 55.056C96.2489 55.424 96.5129 55.7 96.8409 55.884C97.1689 56.06 97.5289 56.148 97.9209 56.148ZM103.821 51.492C104.013 51.116 104.285 50.824 104.637 50.616C104.997 50.408 105.433 50.304 105.945 50.304V51.432H105.657C104.433 51.432 103.821 52.096 103.821 53.424V57H102.729V50.424H103.821V51.492ZM116.404 53.46C116.404 53.668 116.392 53.888 116.368 54.12H111.112C111.152 54.768 111.372 55.276 111.772 55.644C112.18 56.004 112.672 56.184 113.248 56.184C113.72 56.184 114.112 56.076 114.424 55.86C114.744 55.636 114.968 55.34 115.096 54.972H116.272C116.096 55.604 115.744 56.12 115.216 56.52C114.688 56.912 114.032 57.108 113.248 57.108C112.624 57.108 112.064 56.968 111.568 56.688C111.08 56.408 110.696 56.012 110.416 55.5C110.136 54.98 109.996 54.38 109.996 53.7C109.996 53.02 110.132 52.424 110.404 51.912C110.676 51.4 111.056 51.008 111.544 50.736C112.04 50.456 112.608 50.316 113.248 50.316C113.872 50.316 114.424 50.452 114.904 50.724C115.384 50.996 115.752 51.372 116.008 51.852C116.272 52.324 116.404 52.86 116.404 53.46ZM115.276 53.232C115.276 52.816 115.184 52.46 115 52.164C114.816 51.86 114.564 51.632 114.244 51.48C113.932 51.32 113.584 51.24 113.2 51.24C112.648 51.24 112.176 51.416 111.784 51.768C111.4 52.12 111.18 52.608 111.124 53.232H115.276ZM120.294 55.992L122.334 50.424H123.498L120.918 57H119.646L117.066 50.424H118.242L120.294 55.992ZM130.572 53.46C130.572 53.668 130.56 53.888 130.536 54.12H125.28C125.32 54.768 125.54 55.276 125.94 55.644C126.348 56.004 126.84 56.184 127.416 56.184C127.888 56.184 128.28 56.076 128.592 55.86C128.912 55.636 129.136 55.34 129.264 54.972H130.44C130.264 55.604 129.912 56.12 129.384 56.52C128.856 56.912 128.2 57.108 127.416 57.108C126.792 57.108 126.232 56.968 125.736 56.688C125.248 56.408 124.864 56.012 124.584 55.5C124.304 54.98 124.164 54.38 124.164 53.7C124.164 53.02 124.3 52.424 124.572 51.912C124.844 51.4 125.224 51.008 125.712 50.736C126.208 50.456 126.776 50.316 127.416 50.316C128.04 50.316 128.592 50.452 129.072 50.724C129.552 50.996 129.92 51.372 130.176 51.852C130.44 52.324 130.572 52.86 130.572 53.46ZM129.444 53.232C129.444 52.816 129.352 52.46 129.168 52.164C128.984 51.86 128.732 51.632 128.412 51.48C128.1 51.32 127.752 51.24 127.368 51.24C126.816 51.24 126.344 51.416 125.952 51.768C125.568 52.12 125.348 52.608 125.292 53.232H129.444ZM133.106 51.492C133.298 51.116 133.57 50.824 133.922 50.616C134.282 50.408 134.718 50.304 135.23 50.304V51.432H134.942C133.718 51.432 133.106 52.096 133.106 53.424V57H132.014V50.424H133.106V51.492ZM142.154 50.424L138.194 60.096H137.066L138.362 56.928L135.71 50.424H136.922L138.986 55.752L141.026 50.424H142.154ZM148.779 57.108C148.275 57.108 147.823 57.024 147.423 56.856C147.023 56.68 146.707 56.44 146.475 56.136C146.243 55.824 146.115 55.468 146.091 55.068H147.219C147.251 55.396 147.403 55.664 147.675 55.872C147.955 56.08 148.319 56.184 148.767 56.184C149.183 56.184 149.511 56.092 149.751 55.908C149.991 55.724 150.111 55.492 150.111 55.212C150.111 54.924 149.983 54.712 149.727 54.576C149.471 54.432 149.075 54.292 148.539 54.156C148.051 54.028 147.651 53.9 147.339 53.772C147.035 53.636 146.771 53.44 146.547 53.184C146.331 52.92 146.223 52.576 146.223 52.152C146.223 51.816 146.323 51.508 146.523 51.228C146.723 50.948 147.007 50.728 147.375 50.568C147.743 50.4 148.163 50.316 148.635 50.316C149.363 50.316 149.951 50.5 150.399 50.868C150.847 51.236 151.087 51.74 151.119 52.38H150.027C150.003 52.036 149.863 51.76 149.607 51.552C149.359 51.344 149.023 51.24 148.599 51.24C148.207 51.24 147.895 51.324 147.663 51.492C147.431 51.66 147.315 51.88 147.315 52.152C147.315 52.368 147.383 52.548 147.519 52.692C147.663 52.828 147.839 52.94 148.047 53.028C148.263 53.108 148.559 53.2 148.935 53.304C149.407 53.432 149.791 53.56 150.087 53.688C150.383 53.808 150.635 53.992 150.843 54.24C151.059 54.488 151.171 54.812 151.179 55.212C151.179 55.572 151.079 55.896 150.879 56.184C150.679 56.472 150.395 56.7 150.027 56.868C149.667 57.028 149.251 57.108 148.779 57.108ZM154.053 51.324V55.2C154.053 55.52 154.121 55.748 154.257 55.884C154.393 56.012 154.629 56.076 154.965 56.076H155.769V57H154.785C154.177 57 153.721 56.86 153.417 56.58C153.113 56.3 152.961 55.84 152.961 55.2V51.324H152.109V50.424H152.961V48.768H154.053V50.424H155.769V51.324H154.053ZM163.092 53.46C163.092 53.668 163.08 53.888 163.056 54.12H157.8C157.84 54.768 158.06 55.276 158.46 55.644C158.868 56.004 159.36 56.184 159.936 56.184C160.408 56.184 160.8 56.076 161.112 55.86C161.432 55.636 161.656 55.34 161.784 54.972H162.96C162.784 55.604 162.432 56.12 161.904 56.52C161.376 56.912 160.72 57.108 159.936 57.108C159.312 57.108 158.752 56.968 158.256 56.688C157.768 56.408 157.384 56.012 157.104 55.5C156.824 54.98 156.684 54.38 156.684 53.7C156.684 53.02 156.82 52.424 157.092 51.912C157.364 51.4 157.744 51.008 158.232 50.736C158.728 50.456 159.296 50.316 159.936 50.316C160.56 50.316 161.112 50.452 161.592 50.724C162.072 50.996 162.44 51.372 162.696 51.852C162.96 52.324 163.092 52.86 163.092 53.46ZM161.964 53.232C161.964 52.816 161.872 52.46 161.688 52.164C161.504 51.86 161.252 51.632 160.932 51.48C160.62 51.32 160.272 51.24 159.888 51.24C159.336 51.24 158.864 51.416 158.472 51.768C158.088 52.12 157.868 52.608 157.812 53.232H161.964ZM165.625 51.636C165.841 51.26 166.161 50.948 166.585 50.7C167.017 50.444 167.517 50.316 168.085 50.316C168.669 50.316 169.197 50.456 169.669 50.736C170.149 51.016 170.525 51.412 170.797 51.924C171.069 52.428 171.205 53.016 171.205 53.688C171.205 54.352 171.069 54.944 170.797 55.464C170.525 55.984 170.149 56.388 169.669 56.676C169.197 56.964 168.669 57.108 168.085 57.108C167.525 57.108 167.029 56.984 166.597 56.736C166.173 56.48 165.849 56.164 165.625 55.788V60.12H164.533V50.424H165.625V51.636ZM170.089 53.688C170.089 53.192 169.989 52.76 169.789 52.392C169.589 52.024 169.317 51.744 168.973 51.552C168.637 51.36 168.265 51.264 167.857 51.264C167.457 51.264 167.085 51.364 166.741 51.564C166.405 51.756 166.133 52.04 165.925 52.416C165.725 52.784 165.625 53.212 165.625 53.7C165.625 54.196 165.725 54.632 165.925 55.008C166.133 55.376 166.405 55.66 166.741 55.86C167.085 56.052 167.457 56.148 167.857 56.148C168.265 56.148 168.637 56.052 168.973 55.86C169.317 55.66 169.589 55.376 169.789 55.008C169.989 54.632 170.089 54.192 170.089 53.688ZM174.971 57.108C174.467 57.108 174.015 57.024 173.615 56.856C173.215 56.68 172.899 56.44 172.667 56.136C172.435 55.824 172.307 55.468 172.283 55.068H173.411C173.443 55.396 173.595 55.664 173.867 55.872C174.147 56.08 174.511 56.184 174.959 56.184C175.375 56.184 175.703 56.092 175.943 55.908C176.183 55.724 176.303 55.492 176.303 55.212C176.303 54.924 176.175 54.712 175.919 54.576C175.663 54.432 175.267 54.292 174.731 54.156C174.243 54.028 173.843 53.9 173.531 53.772C173.227 53.636 172.963 53.44 172.739 53.184C172.523 52.92 172.415 52.576 172.415 52.152C172.415 51.816 172.515 51.508 172.715 51.228C172.915 50.948 173.199 50.728 173.567 50.568C173.935 50.4 174.355 50.316 174.827 50.316C175.555 50.316 176.143 50.5 176.591 50.868C177.039 51.236 177.279 51.74 177.311 52.38H176.219C176.195 52.036 176.055 51.76 175.799 51.552C175.551 51.344 175.215 51.24 174.791 51.24C174.399 51.24 174.087 51.324 173.855 51.492C173.623 51.66 173.507 51.88 173.507 52.152C173.507 52.368 173.575 52.548 173.711 52.692C173.855 52.828 174.031 52.94 174.239 53.028C174.455 53.108 174.751 53.2 175.127 53.304C175.599 53.432 175.983 53.56 176.279 53.688C176.575 53.808 176.827 53.992 177.035 54.24C177.251 54.488 177.363 54.812 177.371 55.212C177.371 55.572 177.271 55.896 177.071 56.184C176.871 56.472 176.587 56.7 176.219 56.868C175.859 57.028 175.443 57.108 174.971 57.108ZM180.04 55.488L178.696 58.716H177.964L178.84 55.488H180.04ZM19.792 72.108C19.176 72.108 18.616 71.968 18.112 71.688C17.616 71.408 17.224 71.012 16.936 70.5C16.656 69.98 16.516 69.38 16.516 68.7C16.516 68.028 16.66 67.436 16.948 66.924C17.244 66.404 17.644 66.008 18.148 65.736C18.652 65.456 19.216 65.316 19.84 65.316C20.464 65.316 21.028 65.456 21.532 65.736C22.036 66.008 22.432 66.4 22.72 66.912C23.016 67.424 23.164 68.02 23.164 68.7C23.164 69.38 23.012 69.98 22.708 70.5C22.412 71.012 22.008 71.408 21.496 71.688C20.984 71.968 20.416 72.108 19.792 72.108ZM19.792 71.148C20.184 71.148 20.552 71.056 20.896 70.872C21.24 70.688 21.516 70.412 21.724 70.044C21.94 69.676 22.048 69.228 22.048 68.7C22.048 68.172 21.944 67.724 21.736 67.356C21.528 66.988 21.256 66.716 20.92 66.54C20.584 66.356 20.22 66.264 19.828 66.264C19.428 66.264 19.06 66.356 18.724 66.54C18.396 66.716 18.132 66.988 17.932 67.356C17.732 67.724 17.632 68.172 17.632 68.7C17.632 69.236 17.728 69.688 17.92 70.056C18.12 70.424 18.384 70.7 18.712 70.884C19.04 71.06 19.4 71.148 19.792 71.148ZM27.8038 65.304C28.6038 65.304 29.2518 65.548 29.7478 66.036C30.2438 66.516 30.4918 67.212 30.4918 68.124V72H29.4118V68.28C29.4118 67.624 29.2478 67.124 28.9198 66.78C28.5918 66.428 28.1438 66.252 27.5758 66.252C26.9998 66.252 26.5398 66.432 26.1958 66.792C25.8598 67.152 25.6918 67.676 25.6918 68.364V72H24.5998V65.424H25.6918V66.36C25.9078 66.024 26.1998 65.764 26.5678 65.58C26.9438 65.396 27.3558 65.304 27.8038 65.304ZM33.3676 63.12V72H32.2756V63.12H33.3676ZM40.8927 65.424L36.9327 75.096H35.8047L37.1007 71.928L34.4487 65.424H35.6607L37.7247 70.752L39.7647 65.424H40.8927ZM47.6376 70.992L49.6776 65.424H50.8416L48.2616 72H46.9896L44.4096 65.424H45.5856L47.6376 70.992ZM51.5082 68.688C51.5082 68.016 51.6442 67.428 51.9162 66.924C52.1882 66.412 52.5602 66.016 53.0322 65.736C53.5122 65.456 54.0442 65.316 54.6282 65.316C55.2042 65.316 55.7042 65.44 56.1282 65.688C56.5522 65.936 56.8682 66.248 57.0762 66.624V65.424H58.1802V72H57.0762V70.776C56.8602 71.16 56.5362 71.48 56.1042 71.736C55.6802 71.984 55.1842 72.108 54.6162 72.108C54.0322 72.108 53.5042 71.964 53.0322 71.676C52.5602 71.388 52.1882 70.984 51.9162 70.464C51.6442 69.944 51.5082 69.352 51.5082 68.688ZM57.0762 68.7C57.0762 68.204 56.9762 67.772 56.7762 67.404C56.5762 67.036 56.3042 66.756 55.9602 66.564C55.6242 66.364 55.2522 66.264 54.8442 66.264C54.4362 66.264 54.0642 66.36 53.7282 66.552C53.3922 66.744 53.1242 67.024 52.9242 67.392C52.7242 67.76 52.6242 68.192 52.6242 68.688C52.6242 69.192 52.7242 69.632 52.9242 70.008C53.1242 70.376 53.3922 70.66 53.7282 70.86C54.0642 71.052 54.4362 71.148 54.8442 71.148C55.2522 71.148 55.6242 71.052 55.9602 70.86C56.3042 70.66 56.5762 70.376 56.7762 70.008C56.9762 69.632 57.0762 69.196 57.0762 68.7ZM61.1176 63.12V72H60.0256V63.12H61.1176ZM63.5427 64.356C63.3347 64.356 63.1587 64.284 63.0147 64.14C62.8707 63.996 62.7987 63.82 62.7987 63.612C62.7987 63.404 62.8707 63.228 63.0147 63.084C63.1587 62.94 63.3347 62.868 63.5427 62.868C63.7427 62.868 63.9107 62.94 64.0467 63.084C64.1907 63.228 64.2627 63.404 64.2627 63.612C64.2627 63.82 64.1907 63.996 64.0467 64.14C63.9107 64.284 63.7427 64.356 63.5427 64.356ZM64.0707 65.424V72H62.9787V65.424H64.0707ZM65.5238 68.688C65.5238 68.016 65.6598 67.428 65.9318 66.924C66.2038 66.412 66.5758 66.016 67.0478 65.736C67.5278 65.456 68.0638 65.316 68.6558 65.316C69.1678 65.316 69.6438 65.436 70.0838 65.676C70.5238 65.908 70.8598 66.216 71.0918 66.6V63.12H72.1958V72H71.0918V70.764C70.8758 71.156 70.5558 71.48 70.1318 71.736C69.7078 71.984 69.2118 72.108 68.6438 72.108C68.0598 72.108 67.5278 71.964 67.0478 71.676C66.5758 71.388 66.2038 70.984 65.9318 70.464C65.6598 69.944 65.5238 69.352 65.5238 68.688ZM71.0918 68.7C71.0918 68.204 70.9918 67.772 70.7918 67.404C70.5918 67.036 70.3198 66.756 69.9758 66.564C69.6398 66.364 69.2678 66.264 68.8598 66.264C68.4518 66.264 68.0798 66.36 67.7438 66.552C67.4078 66.744 67.1398 67.024 66.9398 67.392C66.7398 67.76 66.6398 68.192 66.6398 68.688C66.6398 69.192 66.7398 69.632 66.9398 70.008C67.1398 70.376 67.4078 70.66 67.7438 70.86C68.0798 71.052 68.4518 71.148 68.8598 71.148C69.2678 71.148 69.6398 71.052 69.9758 70.86C70.3198 70.66 70.5918 70.376 70.7918 70.008C70.9918 69.632 71.0918 69.196 71.0918 68.7ZM79.9164 66.324H78.5364V72H77.4444V66.324H76.5924V65.424H77.4444V64.956C77.4444 64.22 77.6324 63.684 78.0084 63.348C78.3924 63.004 79.0044 62.832 79.8444 62.832V63.744C79.3644 63.744 79.0244 63.84 78.8244 64.032C78.6324 64.216 78.5364 64.524 78.5364 64.956V65.424H79.9164V66.324ZM84.0576 72.108C83.4416 72.108 82.8816 71.968 82.3776 71.688C81.8816 71.408 81.4896 71.012 81.2016 70.5C80.9216 69.98 80.7816 69.38 80.7816 68.7C80.7816 68.028 80.9256 67.436 81.2136 66.924C81.5096 66.404 81.9096 66.008 82.4136 65.736C82.9176 65.456 83.4816 65.316 84.1056 65.316C84.7296 65.316 85.2936 65.456 85.7976 65.736C86.3016 66.008 86.6976 66.4 86.9856 66.912C87.2816 67.424 87.4296 68.02 87.4296 68.7C87.4296 69.38 87.2776 69.98 86.9736 70.5C86.6776 71.012 86.2736 71.408 85.7616 71.688C85.2496 71.968 84.6816 72.108 84.0576 72.108ZM84.0576 71.148C84.4496 71.148 84.8176 71.056 85.1616 70.872C85.5056 70.688 85.7816 70.412 85.9896 70.044C86.2056 69.676 86.3136 69.228 86.3136 68.7C86.3136 68.172 86.2096 67.724 86.0016 67.356C85.7936 66.988 85.5216 66.716 85.1856 66.54C84.8496 66.356 84.4856 66.264 84.0936 66.264C83.6936 66.264 83.3256 66.356 82.9896 66.54C82.6616 66.716 82.3976 66.988 82.1976 67.356C81.9976 67.724 81.8976 68.172 81.8976 68.7C81.8976 69.236 81.9936 69.688 82.1856 70.056C82.3856 70.424 82.6496 70.7 82.9776 70.884C83.3056 71.06 83.6656 71.148 84.0576 71.148ZM89.9574 66.492C90.1494 66.116 90.4214 65.824 90.7734 65.616C91.1334 65.408 91.5694 65.304 92.0814 65.304V66.432H91.7934C90.5694 66.432 89.9574 67.096 89.9574 68.424V72H88.8654V65.424H89.9574V66.492ZM97.8732 66.324V70.2C97.8732 70.52 97.9412 70.748 98.0772 70.884C98.2132 71.012 98.4492 71.076 98.7852 71.076H99.5892V72H98.6052C97.9972 72 97.5412 71.86 97.2372 71.58C96.9332 71.3 96.7812 70.84 96.7812 70.2V66.324H95.9292V65.424H96.7812V63.768H97.8732V65.424H99.5892V66.324H97.8732ZM103.78 72.108C103.164 72.108 102.604 71.968 102.1 71.688C101.604 71.408 101.212 71.012 100.924 70.5C100.644 69.98 100.504 69.38 100.504 68.7C100.504 68.028 100.648 67.436 100.936 66.924C101.232 66.404 101.632 66.008 102.136 65.736C102.64 65.456 103.204 65.316 103.828 65.316C104.452 65.316 105.016 65.456 105.52 65.736C106.024 66.008 106.42 66.4 106.708 66.912C107.004 67.424 107.152 68.02 107.152 68.7C107.152 69.38 107 69.98 106.696 70.5C106.4 71.012 105.996 71.408 105.484 71.688C104.972 71.968 104.404 72.108 103.78 72.108ZM103.78 71.148C104.172 71.148 104.54 71.056 104.884 70.872C105.228 70.688 105.504 70.412 105.712 70.044C105.928 69.676 106.036 69.228 106.036 68.7C106.036 68.172 105.932 67.724 105.724 67.356C105.516 66.988 105.244 66.716 104.908 66.54C104.572 66.356 104.208 66.264 103.816 66.264C103.416 66.264 103.048 66.356 102.712 66.54C102.384 66.716 102.12 66.988 101.92 67.356C101.72 67.724 101.62 68.172 101.62 68.7C101.62 69.236 101.716 69.688 101.908 70.056C102.108 70.424 102.372 70.7 102.7 70.884C103.028 71.06 103.388 71.148 103.78 71.148ZM108.18 68.688C108.18 68.016 108.316 67.428 108.588 66.924C108.86 66.412 109.232 66.016 109.704 65.736C110.184 65.456 110.72 65.316 111.312 65.316C111.824 65.316 112.3 65.436 112.74 65.676C113.18 65.908 113.516 66.216 113.748 66.6V63.12H114.852V72H113.748V70.764C113.532 71.156 113.212 71.48 112.788 71.736C112.364 71.984 111.868 72.108 111.3 72.108C110.716 72.108 110.184 71.964 109.704 71.676C109.232 71.388 108.86 70.984 108.588 70.464C108.316 69.944 108.18 69.352 108.18 68.688ZM113.748 68.7C113.748 68.204 113.648 67.772 113.448 67.404C113.248 67.036 112.976 66.756 112.632 66.564C112.296 66.364 111.924 66.264 111.516 66.264C111.108 66.264 110.736 66.36 110.4 66.552C110.064 66.744 109.796 67.024 109.596 67.392C109.396 67.76 109.296 68.192 109.296 68.688C109.296 69.192 109.396 69.632 109.596 70.008C109.796 70.376 110.064 70.66 110.4 70.86C110.736 71.052 111.108 71.148 111.516 71.148C111.924 71.148 112.296 71.052 112.632 70.86C112.976 70.66 113.248 70.376 113.448 70.008C113.648 69.632 113.748 69.196 113.748 68.7ZM116.289 68.688C116.289 68.016 116.425 67.428 116.697 66.924C116.969 66.412 117.341 66.016 117.813 65.736C118.293 65.456 118.825 65.316 119.409 65.316C119.985 65.316 120.485 65.44 120.909 65.688C121.333 65.936 121.649 66.248 121.857 66.624V65.424H122.961V72H121.857V70.776C121.641 71.16 121.317 71.48 120.885 71.736C120.461 71.984 119.965 72.108 119.397 72.108C118.813 72.108 118.285 71.964 117.813 71.676C117.341 71.388 116.969 70.984 116.697 70.464C116.425 69.944 116.289 69.352 116.289 68.688ZM121.857 68.7C121.857 68.204 121.757 67.772 121.557 67.404C121.357 67.036 121.085 66.756 120.741 66.564C120.405 66.364 120.033 66.264 119.625 66.264C119.217 66.264 118.845 66.36 118.509 66.552C118.173 66.744 117.905 67.024 117.705 67.392C117.505 67.76 117.405 68.192 117.405 68.688C117.405 69.192 117.505 69.632 117.705 70.008C117.905 70.376 118.173 70.66 118.509 70.86C118.845 71.052 119.217 71.148 119.625 71.148C120.033 71.148 120.405 71.052 120.741 70.86C121.085 70.66 121.357 70.376 121.557 70.008C121.757 69.632 121.857 69.196 121.857 68.7ZM130.471 65.424L126.511 75.096H125.383L126.679 71.928L124.027 65.424H125.239L127.303 70.752L129.343 65.424H130.471Z" fill="white"/>
        <g filter="url(#filter0_d_1_1383)">
            <rect x="16" y="83" width="65" height="24" rx="12" fill="#2F3C50" fill-opacity="0.2"/>
            <rect x="16.5" y="83.5" width="64" height="23" rx="11.5" stroke="url(#paint1_linear_1_1383)"/>
            <path d="M31.1768 97.0001C30.9523 97.0009 30.7302 97.0471 30.524 97.1359C30.3178 97.2247 30.1317 97.3542 29.9768 97.5167L25.9134 95.4834C26.0134 95.1803 26.0134 94.8532 25.9134 94.5501L29.9834 92.4801C30.275 92.7873 30.6703 92.9751 31.0926 93.0071C31.5149 93.0391 31.934 92.9129 32.2685 92.653C32.6029 92.3932 32.8288 92.0183 32.9022 91.6012C32.9757 91.1841 32.8914 90.7546 32.6658 90.3962C32.4402 90.0378 32.0894 89.776 31.6816 89.6618C31.2737 89.5476 30.838 89.5892 30.4591 89.7784C30.0802 89.9675 29.7851 90.2908 29.6313 90.6854C29.4775 91.08 29.4759 91.5177 29.6268 91.9134L25.5968 93.9634C25.3791 93.6972 25.0845 93.5049 24.7532 93.4127C24.4219 93.3206 24.0703 93.3331 23.7464 93.4487C23.4226 93.5642 23.1424 93.7771 22.9443 94.0581C22.7462 94.3391 22.6398 94.6746 22.6398 95.0184C22.6398 95.3623 22.7462 95.6977 22.9443 95.9787C23.1424 96.2597 23.4226 96.4726 23.7464 96.5882C24.0703 96.7037 24.4219 96.7163 24.7532 96.6241C25.0845 96.532 25.3791 96.3396 25.5968 96.0734L29.6168 98.0967C29.5488 98.2791 29.5139 98.4721 29.5134 98.6667C29.5134 98.9964 29.6112 99.3186 29.7943 99.5927C29.9775 99.8668 30.2377 100.08 30.5423 100.207C30.8468 100.333 31.1819 100.366 31.5052 100.301C31.8285 100.237 32.1255 100.078 32.3586 99.8453C32.5917 99.6122 32.7504 99.3152 32.8147 98.9919C32.879 98.6686 32.846 98.3335 32.7199 98.0289C32.5938 97.7244 32.3801 97.4641 32.106 97.281C31.832 97.0978 31.5097 97.0001 31.1801 97.0001H31.1768ZM31.1768 90.3334C31.3745 90.3334 31.5679 90.3921 31.7323 90.5019C31.8968 90.6118 32.025 90.768 32.1006 90.9507C32.1763 91.1335 32.1961 91.3345 32.1575 91.5285C32.119 91.7225 32.0237 91.9007 31.8839 92.0405C31.744 92.1804 31.5658 92.2756 31.3719 92.3142C31.1779 92.3528 30.9768 92.333 30.7941 92.2573C30.6114 92.1816 30.4552 92.0534 30.3453 91.889C30.2354 91.7245 30.1768 91.5312 30.1768 91.3334C30.1768 91.0682 30.2821 90.8138 30.4697 90.6263C30.6572 90.4388 30.9115 90.3334 31.1768 90.3334ZM24.3334 96.0001C24.1357 96.0001 23.9423 95.9414 23.7779 95.8316C23.6134 95.7217 23.4852 95.5655 23.4096 95.3828C23.3339 95.2 23.3141 94.999 23.3526 94.805C23.3912 94.611 23.4865 94.4328 23.6263 94.293C23.7662 94.1531 23.9444 94.0579 24.1383 94.0193C24.3323 93.9807 24.5334 94.0005 24.7161 94.0762C24.8988 94.1519 25.055 94.2801 25.1649 94.4445C25.2748 94.609 25.3334 94.8023 25.3334 95.0001C25.3334 95.2653 25.2281 95.5197 25.0405 95.7072C24.853 95.8947 24.5986 96.0001 24.3334 96.0001ZM31.1768 99.6667C30.979 99.6667 30.7856 99.6081 30.6212 99.4982C30.4567 99.3883 30.3286 99.2322 30.2529 99.0494C30.1772 98.8667 30.1574 98.6656 30.196 98.4717C30.2346 98.2777 30.3298 98.0995 30.4697 97.9596C30.6095 97.8198 30.7877 97.7245 30.9817 97.686C31.1757 97.6474 31.3767 97.6672 31.5594 97.7429C31.7422 97.8186 31.8984 97.9467 32.0082 98.1112C32.1181 98.2756 32.1768 98.469 32.1768 98.6667C32.1768 98.932 32.0714 99.1863 31.8839 99.3739C31.6963 99.5614 31.442 99.6667 31.1768 99.6667Z" fill="white"/>
            <path d="M40.98 98.07C40.52 98.07 40.1067 97.99 39.74 97.83C39.38 97.6633 39.0967 97.4367 38.89 97.15C38.6833 96.8567 38.5767 96.52 38.57 96.14H39.54C39.5733 96.4667 39.7067 96.7433 39.94 96.97C40.18 97.19 40.5267 97.3 40.98 97.3C41.4133 97.3 41.7533 97.1933 42 96.98C42.2533 96.76 42.38 96.48 42.38 96.14C42.38 95.8733 42.3067 95.6567 42.16 95.49C42.0133 95.3233 41.83 95.1967 41.61 95.11C41.39 95.0233 41.0933 94.93 40.72 94.83C40.26 94.71 39.89 94.59 39.61 94.47C39.3367 94.35 39.1 94.1633 38.9 93.91C38.7067 93.65 38.61 93.3033 38.61 92.87C38.61 92.49 38.7067 92.1533 38.9 91.86C39.0933 91.5667 39.3633 91.34 39.71 91.18C40.0633 91.02 40.4667 90.94 40.92 90.94C41.5733 90.94 42.1067 91.1033 42.52 91.43C42.94 91.7567 43.1767 92.19 43.23 92.73H42.23C42.1967 92.4633 42.0567 92.23 41.81 92.03C41.5633 91.8233 41.2367 91.72 40.83 91.72C40.45 91.72 40.14 91.82 39.9 92.02C39.66 92.2133 39.54 92.4867 39.54 92.84C39.54 93.0933 39.61 93.3 39.75 93.46C39.8967 93.62 40.0733 93.7433 40.28 93.83C40.4933 93.91 40.79 94.0033 41.17 94.11C41.63 94.2367 42 94.3633 42.28 94.49C42.56 94.61 42.8 94.8 43 95.06C43.2 95.3133 43.3 95.66 43.3 96.1C43.3 96.44 43.21 96.76 43.03 97.06C42.85 97.36 42.5833 97.6033 42.23 97.79C41.8767 97.9767 41.46 98.07 40.98 98.07ZM47.3591 92.42C47.7725 92.42 48.1458 92.51 48.4791 92.69C48.8125 92.8633 49.0725 93.1267 49.2591 93.48C49.4525 93.8333 49.5491 94.2633 49.5491 94.77V98H48.6491V94.9C48.6491 94.3533 48.5125 93.9367 48.2391 93.65C47.9658 93.3567 47.5925 93.21 47.1191 93.21C46.6391 93.21 46.2558 93.36 45.9691 93.66C45.6891 93.96 45.5491 94.3967 45.5491 94.97V98H44.6391V90.6H45.5491V93.3C45.7291 93.02 45.9758 92.8033 46.2891 92.65C46.6091 92.4967 46.9658 92.42 47.3591 92.42ZM50.6956 95.24C50.6956 94.68 50.809 94.19 51.0356 93.77C51.2623 93.3433 51.5723 93.0133 51.9656 92.78C52.3656 92.5467 52.809 92.43 53.2956 92.43C53.7756 92.43 54.1923 92.5333 54.5456 92.74C54.899 92.9467 55.1623 93.2067 55.3356 93.52V92.52H56.2556V98H55.3356V96.98C55.1556 97.3 54.8856 97.5667 54.5256 97.78C54.1723 97.9867 53.759 98.09 53.2856 98.09C52.799 98.09 52.359 97.97 51.9656 97.73C51.5723 97.49 51.2623 97.1533 51.0356 96.72C50.809 96.2867 50.6956 95.7933 50.6956 95.24ZM55.3356 95.25C55.3356 94.8367 55.2523 94.4767 55.0856 94.17C54.919 93.8633 54.6923 93.63 54.4056 93.47C54.1256 93.3033 53.8156 93.22 53.4756 93.22C53.1356 93.22 52.8256 93.3 52.5456 93.46C52.2656 93.62 52.0423 93.8533 51.8756 94.16C51.709 94.4667 51.6256 94.8267 51.6256 95.24C51.6256 95.66 51.709 96.0267 51.8756 96.34C52.0423 96.6467 52.2656 96.8833 52.5456 97.05C52.8256 97.21 53.1356 97.29 53.4756 97.29C53.8156 97.29 54.1256 97.21 54.4056 97.05C54.6923 96.8833 54.919 96.6467 55.0856 96.34C55.2523 96.0267 55.3356 95.6633 55.3356 95.25ZM58.7034 93.41C58.8634 93.0967 59.0901 92.8533 59.3834 92.68C59.6834 92.5067 60.0468 92.42 60.4734 92.42V93.36H60.2334C59.2134 93.36 58.7034 93.9133 58.7034 95.02V98H57.7934V92.52H58.7034V93.41ZM66.5239 95.05C66.5239 95.2233 66.5139 95.4067 66.4939 95.6H62.1139C62.1472 96.14 62.3306 96.5633 62.6639 96.87C63.0039 97.17 63.4139 97.32 63.8939 97.32C64.2872 97.32 64.6139 97.23 64.8739 97.05C65.1406 96.8633 65.3272 96.6167 65.4339 96.31H66.4139C66.2672 96.8367 65.9739 97.2667 65.5339 97.6C65.0939 97.9267 64.5472 98.09 63.8939 98.09C63.3739 98.09 62.9072 97.9733 62.4939 97.74C62.0872 97.5067 61.7672 97.1767 61.5339 96.75C61.3006 96.3167 61.1839 95.8167 61.1839 95.25C61.1839 94.6833 61.2972 94.1867 61.5239 93.76C61.7506 93.3333 62.0672 93.0067 62.4739 92.78C62.8872 92.5467 63.3606 92.43 63.8939 92.43C64.4139 92.43 64.8739 92.5433 65.2739 92.77C65.6739 92.9967 65.9806 93.31 66.1939 93.71C66.4139 94.1033 66.5239 94.55 66.5239 95.05ZM65.5839 94.86C65.5839 94.5133 65.5072 94.2167 65.3539 93.97C65.2006 93.7167 64.9906 93.5267 64.7239 93.4C64.4639 93.2667 64.1739 93.2 63.8539 93.2C63.3939 93.2 63.0006 93.3467 62.6739 93.64C62.3539 93.9333 62.1706 94.34 62.1239 94.86H65.5839Z" fill="white"/>
        </g>
        <path d="M214.059 125H284L256.571 65.0252C256.571 65.0252 220.383 62.9346 226.152 96.8037C226.152 96.8037 208.569 109.419 214.063 125H214.059Z" fill="url(#paint2_linear_1_1383)"/>
        <path d="M260.095 82.3875C259.588 84.2523 257.999 85.7629 256.895 86.1698C255.49 86.688 254.41 85.5375 255.086 84.6211C255.759 83.7048 257.138 84.1264 258.47 82.5397C258.523 82.4753 258.575 82.4109 258.622 82.3436C259.36 81.3336 259.442 79.984 258.93 78.8393C257.864 76.4622 256.254 74.0822 254.307 71.8748C254.474 73.1571 254.334 74.5506 254.205 75.6045C253.971 77.5161 252.925 79.4102 251.901 78.8598C250.876 78.3095 251.681 76.5559 252.779 74.2871C252.94 73.9563 253.06 73.6138 253.148 73.2713C253.493 71.9334 253.078 70.5136 252.076 69.5621C251.453 68.9678 250.806 68.397 250.144 67.8466C249.65 67.4368 249.158 67.0562 248.672 66.699C248.918 67.5949 248.976 68.5961 248.73 69.8461C248.446 71.2864 247.173 72.6828 246.754 71.626C246.336 70.5692 246.947 70.5194 247.463 68.4058C247.474 68.3589 247.483 68.315 247.495 68.2682C247.782 66.9801 247.211 65.6451 246.069 64.9835C244.895 64.3014 243.774 63.7686 242.714 63.35C243.306 64.5766 243.83 66.0989 243.669 66.7459C243.414 67.7705 242.006 67.7734 242.023 65.6861C242.023 65.4519 242.021 65.2324 242.006 65.0245C241.927 63.7686 241.016 62.7147 239.793 62.4249C237.749 61.936 236.116 61.8833 235.079 61.9302C234.55 61.9536 234.23 62.5157 234.465 62.9928C234.851 63.7774 235.117 64.8342 235.273 66.0813C235.431 67.3343 236.259 68.435 237.465 68.801C237.55 68.8273 237.638 68.8507 237.729 68.8712C239.681 69.3104 239.023 70.7009 238.118 70.4814C237.319 70.2881 236.347 69.8402 235.422 68.9093C235.384 69.6382 235.278 70.7448 235.185 72.1003C235.126 72.9609 235.609 73.7719 236.4 74.1202C236.859 74.3222 237.398 74.4745 238.022 74.5184C240.46 74.6882 241.119 75.6396 240.34 76.471C239.635 77.2234 236.947 76.43 235.053 74.7701C235.006 76.4125 235.024 78.2304 235.202 80.0894C235.317 81.2897 236.224 82.2557 237.41 82.4694C238.604 82.6861 239.895 82.7885 241.066 82.6041C244.497 82.0684 244.04 84.75 242.059 85.0661C240.709 85.2798 237.875 84.8495 235.855 84.103C236.394 86.322 237.249 88.4591 238.584 90.2683C239.494 91.5066 241.21 91.8989 242.55 91.1495C242.559 91.1436 242.568 91.1407 242.577 91.1348C244.766 89.8906 245.522 88.9275 246.438 89.6711C247.354 90.4147 245.897 92.9089 242.796 93.0084C242.261 93.026 241.778 93.0172 241.335 92.9967C241.883 93.3861 242.477 93.7403 243.121 94.0506C252.709 98.6614 255.636 92.7332 255.636 92.7332C259.785 90.1863 260.915 86.4274 260.101 82.3904L260.095 82.3875Z" fill="url(#paint3_linear_1_1383)"/>
        <path d="M235.873 62.8726C239.02 65.4341 243.926 69.0203 247.293 77.2173C250.66 85.4142 255.048 93.3185 259.732 96.3923" stroke="white" stroke-width="0.63" stroke-miterlimit="10"/>
        <path d="M242.899 73.4837C242.817 73.7852 242.299 73.9082 241.742 73.756C241.186 73.6037 240.803 73.2349 240.885 72.9333C240.967 72.6318 241.485 72.5088 242.041 72.6611C242.597 72.8133 242.981 73.1822 242.899 73.4837Z" fill="#73D9AB"/>
        <path d="M253.555 81.6654C253.61 81.9728 253.192 82.3036 252.627 82.4061C252.059 82.5056 251.555 82.3358 251.503 82.0284C251.447 81.721 251.866 81.3902 252.431 81.2878C252.999 81.1882 253.502 81.358 253.555 81.6654Z" fill="#73D9AB"/>
        <path d="M246.274 79.5131C246.233 80.201 245.173 80.6929 243.911 80.6167C242.65 80.5406 241.657 79.92 241.701 79.235C241.745 78.5499 242.802 78.0523 244.064 78.1313C245.325 78.2074 246.318 78.828 246.274 79.5131Z" fill="#73D9AB"/>
        <path d="M248.719 84.48C249.17 84.8869 248.927 85.891 248.177 86.7195C247.428 87.548 246.456 87.8905 246.005 87.4836C245.554 87.0767 245.797 86.0725 246.547 85.2441C247.296 84.4156 248.268 84.0731 248.719 84.48Z" fill="#73D9AB"/>
        <path d="M245.156 70.0311C244.843 70.0603 244.547 69.6212 244.491 69.0474C244.436 68.4736 244.647 67.9848 244.957 67.9555C245.27 67.9262 245.566 68.3653 245.621 68.9391C245.677 69.5129 245.466 70.0018 245.156 70.0311Z" fill="#73D9AB"/>
        <path d="M248.836 77.7036C248.3 77.5572 248.08 76.638 248.353 75.6485C248.622 74.6619 249.278 73.9798 249.813 74.1262C250.349 74.2726 250.569 75.1918 250.296 76.1813C250.027 77.1679 249.371 77.85 248.836 77.7036Z" fill="#73D9AB"/>
        <path d="M325.447 93.5491C325.693 92.3371 327.475 92.6006 329.27 93.3442L329.282 93.35C329.803 93.5637 330.403 93.3266 330.628 92.8114C331.088 91.775 331.46 90.7416 331.738 89.758C331.861 89.3277 331.969 88.8973 332.066 88.4699C330.435 89.5384 327.994 89.5824 328.02 88.5314C328.04 87.577 329.431 87.536 330.892 87.8581H330.906C331.597 88.0103 332.268 87.5478 332.385 86.8481C332.654 85.2204 332.768 83.6747 332.795 82.3075C331.603 83.8123 329.387 84.629 329.062 83.6483C328.761 82.7437 330.058 82.2373 331.542 82.0499H331.559C332.279 81.9533 332.809 81.3268 332.786 80.6008C332.719 78.414 332.461 77 332.461 77C330.546 77.2459 328.81 77.6031 327.235 78.048C326.957 78.1271 326.773 78.3876 326.785 78.6775V78.6833C326.846 80.1793 326.565 81.5405 325.622 81.3942C324.835 81.2741 324.914 79.8631 325.581 78.5721C324.214 79.0492 322.985 79.5996 321.878 80.2056C321.29 80.5276 321 81.2156 321.199 81.8567C321.486 82.7847 321.708 84.0435 320.833 84.3861C320.04 84.6964 319.589 82.9955 319.879 81.4469C318.986 82.0763 318.192 82.7437 317.487 83.4405C316.931 83.9879 316.802 84.834 317.162 85.5278L317.171 85.5424C318.049 87.2169 318.462 88.9237 317.308 89.2662C316.222 89.5882 315.508 87.4599 315.795 85.3726C314.635 86.9037 313.822 88.4992 313.254 90.0361C313.049 90.5894 313.242 91.213 313.731 91.5408L313.743 91.5467C315.001 92.3898 315.944 93.432 315.262 94.1141C314.609 94.7699 313.257 93.4847 312.674 91.8629C312.273 93.3822 312.089 94.7874 312.012 95.9409C312.007 96.017 312.004 96.0931 312.001 96.1692C311.98 96.6113 312.39 96.9479 312.82 96.8455H312.829C314.07 96.5439 315.253 96.5527 315.291 97.3636C315.329 98.2214 313.423 98.2653 312.024 97.4954C312.378 101.872 315.479 103.69 315.479 103.69C317.818 104.03 319.964 103.614 321.887 102.7C320.827 101.957 320.201 100.941 320.76 100.476C321.275 100.045 321.899 100.435 322.472 101.166C322.862 101.661 323.579 101.749 324.088 101.374C324.902 100.777 325.663 100.092 326.372 99.3426C324.331 99.4831 322.065 98.2477 322.633 97.3022C323.146 96.4473 324.428 97.1324 325.587 98.1804L325.599 98.1921C326.161 98.6986 327.033 98.6225 327.505 98.0282C328.336 96.9801 329.068 95.856 329.697 94.7055C327.555 95.2383 325.221 94.7055 325.455 93.5462L325.447 93.5491Z" fill="url(#paint4_linear_1_1383)"/>
        <path d="M331.776 77.5854C331.776 77.5854 318.45 88.2884 315.145 105.522" stroke="white" stroke-width="0.63" stroke-linecap="round" stroke-linejoin="round"/>
        <path d="M323.878 83.7182C323.588 83.7445 323.31 83.2732 323.257 82.6672C323.204 82.0612 323.398 81.5518 323.687 81.5255C323.977 81.4991 324.255 81.9704 324.308 82.5764C324.361 83.1824 324.168 83.6918 323.878 83.7182Z" fill="#85DBAA"/>
        <path d="M320.084 89.3188C319.668 89.3539 319.27 88.6835 319.197 87.817C319.12 86.9505 319.396 86.2215 319.811 86.1834C320.227 86.1483 320.625 86.8187 320.698 87.6853C320.771 88.5518 320.499 89.2807 320.084 89.3188Z" fill="#85DBAA"/>
        <path d="M326.454 90.7579C326.463 91.2673 325.537 91.7006 324.387 91.7211C323.236 91.7415 322.294 91.3463 322.285 90.837C322.276 90.3276 323.201 89.8943 324.352 89.8738C325.502 89.8533 326.445 90.2485 326.454 90.7579Z" fill="#85DBAA"/>
        <path d="M323.676 95.1527C323.585 95.5333 322.815 95.6767 321.954 95.4747C321.094 95.2727 320.47 94.7956 320.561 94.4121C320.652 94.0315 321.422 93.888 322.282 94.09C323.143 94.295 323.767 94.7692 323.676 95.1527Z" fill="#85DBAA"/>
        <path d="M328.123 86.1981C328.175 86.5465 327.628 86.9212 326.899 87.0325C326.17 87.1437 325.535 86.9505 325.482 86.6021C325.429 86.2538 325.977 85.879 326.706 85.7678C327.435 85.6565 328.07 85.8498 328.123 86.1981Z" fill="#85DBAA"/>
        <path d="M286.617 110.917H261.154C256.982 110.917 253.273 107.793 252.872 103.94L245.035 28.9762C244.634 25.1236 247.691 22 251.862 22H277.326C281.497 22 285.206 25.1236 285.607 28.9762L293.441 103.94C293.845 107.793 290.789 110.917 286.617 110.917Z" fill="url(#paint5_linear_1_1383)"/>
        <path d="M291.243 110.917H265.78C261.608 110.917 257.899 107.793 257.498 103.94L249.664 28.9762C249.26 25.1236 252.316 22 256.488 22H281.951C286.123 22 289.832 25.1236 290.233 28.9762L298.067 103.94C298.471 107.793 295.415 110.917 291.243 110.917Z" fill="#1051B3"/>
        <path opacity="0.5" d="M282.194 24.3413H276.685C276.266 24.3413 275.924 24.5931 275.839 24.9619C275.666 25.7026 274.975 26.209 274.135 26.209H265.186C264.345 26.209 263.549 25.7026 263.221 24.9619C263.057 24.5931 262.662 24.3413 262.246 24.3413H256.737C253.964 24.3413 251.936 26.4169 252.202 28.9755L260.036 103.94C260.302 106.498 262.767 108.574 265.54 108.574H291.003C293.775 108.574 295.804 106.498 295.538 103.94L287.698 28.9755C287.432 26.4169 284.967 24.3413 282.194 24.3413Z" fill="white"/>
        <path d="M271.447 24.8955H265.267C265.063 24.8955 264.881 24.7433 264.863 24.553C264.843 24.3656 264.992 24.2104 265.197 24.2104H271.377C271.582 24.2104 271.764 24.3627 271.781 24.553C271.802 24.7403 271.652 24.8955 271.447 24.8955Z" fill="#16367C"/>
        <path d="M274.111 24.5571C274.152 24.9552 273.836 25.2802 273.406 25.2802C272.975 25.2802 272.589 24.9552 272.548 24.5571C272.507 24.1589 272.823 23.834 273.254 23.834C273.684 23.834 274.07 24.1589 274.111 24.5571Z" fill="#16367C"/>
        <path d="M249.052 45.7689C248.557 45.7689 248.115 45.3971 248.068 44.9404L246.927 34.0121C246.88 33.5554 247.243 33.1836 247.738 33.1836C248.232 33.1836 248.674 33.5554 248.721 34.0121L249.863 44.9404C249.91 45.3971 249.547 45.7689 249.052 45.7689Z" fill="#3C72E8"/>
        <path d="M250.712 61.6497C250.217 61.6497 249.775 61.2779 249.728 60.8213L248.586 49.8929C248.54 49.4362 248.903 49.0645 249.397 49.0645C249.892 49.0645 250.334 49.4362 250.381 49.8929L251.523 60.8213C251.57 61.2779 251.207 61.6497 250.712 61.6497Z" fill="#3C72E8"/>
        <path d="M295.866 103.918L291.129 58.5801C288.904 57.0373 286.574 55.5589 284.147 54.1567C274.053 48.328 263.649 44.613 254 43L260.367 103.918C260.634 106.477 263.099 108.552 265.871 108.552H291.334C294.107 108.552 296.135 106.477 295.869 103.918H295.866Z" fill="url(#paint6_linear_1_1383)" fill-opacity="0.5"/>
        <path d="M260.033 103.941C260.299 106.499 262.764 108.575 265.537 108.575H291C293.772 108.575 295.801 106.499 295.535 103.941L295.491 103.516H259.989L260.033 103.941Z" fill="url(#paint7_linear_1_1383)"/>
        <path d="M288.963 107.071C288.269 106.217 286.835 105.877 286.106 105.754C285.825 105.707 285.591 105.514 285.491 105.248L284.51 102.619H280.631L282.063 106.205L282.075 107.077C282.078 107.42 282.359 107.695 282.698 107.695H284.308C284.247 107.437 284.218 107.136 284.425 107.098C284.645 107.057 284.967 107.405 285.195 107.695H288.656C288.975 107.695 289.162 107.323 288.96 107.074L288.963 107.071Z" fill="#805737"/>
        <path d="M284.513 102.616H280.634L281.589 105.007L285.166 104.372L284.513 102.616Z" fill="#593D26"/>
        <path d="M277.604 64.1176C277.604 64.1176 276.826 70.9972 275.947 75.3152C275.947 75.3152 278.143 79.926 280.046 84.7564C281.949 89.5867 285.169 103.053 285.169 103.053H279.534C279.534 103.053 277.648 100.565 277.604 98.5888C277.604 98.5888 275.069 94.2707 274.484 92.2947L270.971 87.3179C270.971 87.3179 269.214 90.0259 267.897 91.0505C266.579 92.0751 258.836 95.4241 258.836 95.4241L258.224 89.5779L259.99 88.4274C259.99 88.4274 264.589 84.9906 265.839 83.8459L266.65 78.4593C266.65 78.4593 264.267 72.4258 263.86 69.9696C263.356 66.9221 264.735 64.1146 264.735 64.1146V62.6509L277.601 64.1146L277.604 64.1176Z" fill="#FFB637"/>
        <path d="M277.446 65.4461C277.546 64.6265 277.604 64.12 277.604 64.12L264.738 62.6562V64.12C264.738 64.12 264.378 64.8548 264.094 65.976C265.929 67.3783 269.015 67.0416 270.971 66.1692C273.02 65.2559 273.313 66.1312 274.958 66.1692C275.944 66.1897 276.864 65.7799 277.443 65.4461H277.446Z" fill="#C9810C"/>
        <path d="M267.294 63.6851C267.294 63.6851 267.689 68.9487 263.804 69.5342" stroke="#9E6509" stroke-width="0.4" stroke-miterlimit="10"/>
        <path d="M276.761 70.542L273.21 69.1485L272.985 68.6216C272.985 68.6216 274.413 71.9589 275.947 75.3197C276.237 73.894 276.515 72.1873 276.761 70.542Z" fill="#C9810C"/>
        <path d="M275.093 64.4824L273.567 69.9656" stroke="#9E6509" stroke-width="0.4" stroke-miterlimit="10"/>
        <path d="M277.156 86.0747C277.156 86.0747 277.961 87.0993 279.387 87.6848" stroke="#9E6509" stroke-width="0.4" stroke-miterlimit="10"/>
        <path d="M277.449 87.9785L279.39 88.6021" stroke="#9E6509" stroke-width="0.4" stroke-miterlimit="10"/>
        <path d="M279.536 103.054H285.172C285.172 103.054 285.04 102.506 284.815 101.59H278.602C279.074 102.445 279.536 103.054 279.536 103.054Z" fill="#C9810C"/>
        <path d="M269.08 89.8699C270.072 88.7047 270.971 87.3229 270.971 87.3229C269.779 85.6338 268.939 82.5658 268.939 82.5658C268.939 82.5658 267.531 80.5517 266.653 78.4673L265.842 83.8539C264.931 84.6882 262.241 86.7404 260.847 87.7913C262.56 89.6532 265.391 88.0636 267.127 87.6889C267.367 88.693 268.333 89.4337 269.077 89.8699H269.08Z" fill="#C9810C"/>
        <path d="M278.073 43.0067C278.073 43.0067 278.951 39.4264 275.145 38.9287C271.339 38.431 263.582 38.9433 263.289 44.4324C263.289 44.4324 260.839 44.8364 259.082 46.9559C257.326 49.0754 254.48 53.6891 254.48 53.6891L255.227 60.8234L263.037 53.654C263.037 53.654 263.292 59.6202 263.072 60.5336C262.853 61.447 262.378 63.426 264.097 63.5343C265.815 63.6426 272.66 63.827 274.671 64.3774C276.682 64.9278 279.097 65.0741 278.365 61.9622C278.365 61.9622 279.097 58.7771 279.498 57.975C279.899 57.1728 279.864 56.1833 279.864 56.1833C279.864 56.1833 281.035 54.9772 281.144 53.7682C281.144 53.7682 283.852 60.2438 288.132 60.8293C292.412 61.4148 294.792 58.4521 295.632 57.0235C296.472 55.5949 296.217 53.3993 296.217 53.3993L296.387 52.8753C296.387 52.8753 294.191 52.24 294.08 51.069L293.837 51.4584C293.837 51.4584 292.154 50.7265 290.763 53.0334C290.763 53.0334 290.945 51.8975 289.63 52.521C289.63 52.521 287.362 47.7639 285.971 45.6414C284.581 43.519 282.057 42.8252 278.067 43.0067H278.073Z" fill="#109627"/>
        <path d="M281.75 48.897C281.75 48.897 282.004 51.0575 281.22 53.417" stroke="#2E6617" stroke-width="0.75" stroke-linecap="round" stroke-linejoin="round"/>
        <path d="M283.635 48.4204C283.635 48.4204 283.453 51.7519 281.676 53.4147" stroke="#2E6617" stroke-width="0.75" stroke-linecap="round" stroke-linejoin="round"/>
        <path d="M293.843 51.459C293.843 51.459 293.708 52.8378 295.927 53.3004" stroke="#2E6617" stroke-width="0.75" stroke-linecap="round" stroke-linejoin="round"/>
        <path d="M290.55 53.4155C290.55 53.4155 289.964 54.0508 289.429 55.6902" stroke="#2E6617" stroke-width="0.75" stroke-linecap="round" stroke-linejoin="round"/>
        <path d="M289.429 52.6797C289.429 52.6797 288.691 52.7295 287.57 54.6879" stroke="#2E6617" stroke-width="0.75" stroke-linecap="round" stroke-linejoin="round"/>
        <path d="M286.331 60.2117C285.427 59.4125 285.157 58.1009 285.225 57.2403C285.315 56.0868 285.151 54.1108 284.036 52.3806C284.364 50.3753 283.158 48.8793 283.029 50.2699C282.9 51.6605 281.144 53.7653 281.144 53.7653C281.144 53.7653 283.105 58.4552 286.328 60.2117H286.331Z" fill="url(#paint8_linear_1_1383)"/>
        <path d="M293.954 51.2818C293.954 51.2818 295.913 48.366 296.167 47.1775C296.167 47.1775 295.333 45.7957 295.564 45.055C295.673 44.7008 296.088 46.0562 296.331 45.7254C296.574 45.3975 296.551 44.6276 296.393 44.1036C296.235 43.5796 296.135 43.2985 296.331 43.2868C296.527 43.2751 296.99 43.9455 297.075 45.1897C297.075 45.1897 297.429 44.4227 297.33 43.7025C297.233 42.9824 297.611 43.1522 297.707 43.6528C297.804 44.1534 297.889 44.6891 297.707 45.3478C297.707 45.3478 298.012 45.298 298.158 44.8237C298.304 44.3495 298.123 43.9689 298.354 43.9689C298.586 43.9689 298.624 44.6891 298.524 45.1399C298.427 45.5908 298.135 45.8367 298.135 45.8367C298.135 45.8367 298.609 45.7752 298.732 45.3624C298.855 44.9467 298.94 44.8003 299.013 44.8882C299.086 44.9731 299.074 45.3273 298.94 45.6083C298.805 45.8894 298.22 46.3168 298.22 46.3168C298.22 46.3168 298.038 47.4029 297.376 47.7307C297.376 47.7307 297.265 50.8046 296.17 53.0237C296.17 53.0237 294.39 52.769 293.951 51.2876L293.954 51.2818Z" fill="#D97E7E"/>
        <path d="M263.025 44.4897C263.107 44.4809 263.195 44.4634 263.289 44.4312C263.289 44.4312 263.192 44.4487 263.025 44.4897Z" fill="url(#paint9_linear_1_1383)"/>
        <path d="M268.851 43.9343C268.523 43.6738 266.491 43.7382 266.418 43.1351C266.345 42.5321 265.505 42.4765 265.139 42.0549C264.773 41.6333 265.124 40.84 265.757 40.3862C264.366 41.2586 263.391 42.5526 263.289 44.432C265.007 43.8407 268.851 43.9343 268.851 43.9343Z" fill="url(#paint10_linear_1_1383)"/>
        <path d="M278.073 43.0068C278.073 43.0068 277.982 43.364 277.56 43.9349C277.139 44.5057 277.414 45.1293 276.846 45.4952" stroke="#2E6617" stroke-width="0.75" stroke-linecap="round" stroke-linejoin="round"/>
        <path d="M272.704 45.4937C272.704 45.4937 271.826 46.0909 272.118 47.0686C272.411 48.0464 272.742 48.7022 272.382 49.2643C272.022 49.8263 271.193 50.2391 271.313 51.2901C271.436 52.3381 272.001 52.4845 272.001 52.4845" stroke="white" stroke-linecap="round" stroke-linejoin="round"/>
        <path d="M274.999 45.4937C274.999 45.4937 275.599 45.7981 275.347 46.8725C275.095 47.9469 274.533 48.2631 274.633 49.2145C274.729 50.1659 275.707 50.3855 275.681 51.0442C275.657 51.7029 275.347 51.9722 275.347 51.9722" stroke="white" stroke-linecap="round" stroke-linejoin="round"/>
        <path d="M264.287 46.6279C264.287 46.6279 265.019 49.9945 263.286 53.3114" stroke="#2E6617" stroke-width="0.75" stroke-linecap="round" stroke-linejoin="round"/>
        <path d="M267.018 43.9476C269.226 43.6753 269.557 44.4072 270.019 44.6268C270.482 44.8463 270.874 44.9693 271.433 45.2357" stroke="#2E6617" stroke-width="0.75" stroke-linecap="round" stroke-linejoin="round"/>
        <path d="M276.846 59.5454C276.846 59.5454 277.888 60.4968 278.365 61.9606" stroke="#2E6617" stroke-width="0.75" stroke-linecap="round" stroke-linejoin="round"/>
        <path d="M278.784 37.6075L277.944 38.7609C277.944 38.7609 277.666 40.7311 277.048 41.0122C276.544 41.2405 275.988 40.8102 275.988 40.8102L275.265 43.3512C275.201 43.5796 275.019 43.7581 274.791 43.8167C274.17 43.9748 272.917 44.127 272.083 43.1521C271.881 42.9179 271.86 42.5754 272.016 42.3061L273.831 39.162C273.831 39.162 272.423 37.8095 273.921 36.5624C275.42 35.3153 278.567 35.4821 278.787 37.6046L278.784 37.6075Z" fill="#D97E7E"/>
        <path d="M274.159 38.9292L273.828 39.1634C273.828 39.1634 273.547 40.1997 273.913 40.431C274.279 40.6623 274.668 40.5891 274.803 41.1746C274.897 41.5903 275.122 42.1553 275.523 42.4393L275.988 40.8086C275.988 40.8086 274.662 40.1558 274.159 38.9263V38.9292Z" fill="#D95757"/>
        <path d="M277.613 36.987C277.613 36.987 278.6 38.4302 279.788 37.8799C280.749 37.4349 281.199 35.614 279.718 35.046C279.718 35.046 279.823 33.0114 277.195 34.077C277.195 34.077 276.024 33.2251 275.134 33.5794C274.244 33.9336 274.229 34.9465 274.229 34.9465C274.229 34.9465 272.596 34.5747 272.435 36.138C272.273 37.7013 273.055 38.2341 273.055 38.2341C273.055 38.2341 272.754 39.6012 273.161 39.9935C273.57 40.3829 274.156 38.9279 274.156 38.9279C274.156 38.9279 273.588 37.8623 274.191 37.5432C274.794 37.2241 274.741 38.237 274.741 38.237C274.741 38.237 275.47 38.5385 275.807 37.5081C275.807 37.5081 276.949 37.9765 277.613 36.987Z" fill="#333333"/>
        <path d="M272.73 68.0728C272.73 68.0728 275.043 73.3217 275.435 74.1854" stroke="#9E6509" stroke-width="0.4" stroke-miterlimit="10"/>
        <path d="M298.956 36.8144L295.445 35.8625C294.972 35.7343 294.485 36.0137 294.357 36.4865L291.767 46.0391C291.639 46.5119 291.918 46.9992 292.391 47.1274L295.902 48.0793C296.375 48.2075 296.862 47.9281 296.99 47.4553L299.58 37.9027C299.708 37.4299 299.429 36.9426 298.956 36.8144Z" fill="#F14985"/>
        <path d="M295.588 37.2866L294.941 34.5197C294.81 33.961 294.936 33.3678 295.308 32.9298C295.823 32.318 296.255 31.6108 296.567 30.8072C297.799 27.631 296.672 23.9448 293.869 22.0085C290.129 19.4272 285.025 20.7393 282.981 24.7586C281.312 28.0369 282.336 32.1302 285.356 34.229C287.226 35.5282 289.44 35.85 291.442 35.3458C292.012 35.2016 292.614 35.3532 293.063 35.7343L295.191 37.5343C295.374 37.6869 295.644 37.5221 295.589 37.2906L295.588 37.2866Z" fill="#3C72E8"/>
        <path d="M290.243 30.8242C290.053 30.7144 289.844 30.6782 289.642 30.7002L288.099 27.5281C288.157 27.4699 288.21 27.4062 288.253 27.3327C288.295 27.2591 288.324 27.1808 288.345 27.1021L291.864 26.8516C291.945 27.0376 292.081 27.2005 292.271 27.3103C292.743 27.5825 293.347 27.4207 293.619 26.9491C293.891 26.4776 293.73 25.8737 293.258 25.6015C292.786 25.3292 292.183 25.491 291.91 25.9626C291.868 26.0361 291.84 26.1144 291.818 26.1931L288.3 26.4436C288.218 26.2577 288.082 26.0948 287.892 25.985C287.42 25.7127 286.816 25.8745 286.544 26.3461C286.272 26.8177 286.434 27.4215 286.905 27.6938C287.095 27.8036 287.304 27.8397 287.506 27.8177L289.048 30.9899C288.991 31.0481 288.937 31.1117 288.895 31.1853C288.623 31.6568 288.785 32.2607 289.256 32.5329C289.728 32.8052 290.332 32.6434 290.604 32.1718C290.876 31.7003 290.714 31.0964 290.243 30.8242Z" fill="white"/>
        <path d="M271.184 36.6144H238.379C236.971 36.6144 235.832 35.4753 235.832 34.0672V17.5473C235.832 16.1391 236.971 15 238.379 15H262.569C263.977 15 265.116 16.1391 265.116 17.5473V30.6269C265.116 31.5772 265.569 32.4701 266.336 33.0368L271.184 36.6144Z" fill="#7B61FF"/>
        <path d="M248.711 26.392C248.631 25.2644 248.064 24.234 247.154 23.5643L246.089 22.7801C246.833 22.3279 247.337 21.5093 247.337 20.5706C247.337 19.1395 246.175 17.9775 244.744 17.9775C243.313 17.9775 242.151 19.1395 242.151 20.5706C242.151 21.5093 242.655 22.3222 243.399 22.7801L242.334 23.5643C241.43 24.234 240.857 25.2701 240.777 26.392L240.514 30.1128H248.963L248.699 26.392H248.711Z" fill="#C9DAFF"/>
        <path d="M252.174 28.8198C252.094 27.6921 251.527 26.6618 250.617 25.9921L249.552 25.2078C250.297 24.7556 250.8 23.9371 250.8 22.9983C250.8 21.5673 249.638 20.4053 248.207 20.4053C246.776 20.4053 245.614 21.5673 245.614 22.9983C245.614 23.9371 246.118 24.7499 246.862 25.2078L245.797 25.9921C244.893 26.6618 244.321 27.6978 244.24 28.8198L243.977 32.5405H252.426L252.163 28.8198H252.174Z" fill="white"/>
        <path d="M259.53 25.0869H256.908V22.4595H255.923V25.0869H253.302V26.0714H255.923V28.6931H256.908V26.0714H259.53V25.0869Z" fill="white"/>
        <path d="M296 126H407C407 126 404.736 124.309 402.188 122.618C399.639 120.927 397.94 120.644 396.526 120.927C394.687 116.277 389.87 115.571 387.606 112.473C386.191 107.962 381.375 106.132 376.138 106.555C370.616 99.7911 364.355 100.497 361.259 100.353C356.319 96.126 352.776 96.5488 351.502 96.832C348.389 93.3107 345.84 90.9139 342.582 90.4911C342.582 90.4911 340.459 83.6937 337.061 84.0108C333.663 84.3278 330.052 96.4811 330.052 96.4811C330.052 96.4811 324.212 98.4088 322.513 104.999C322.513 104.999 321.451 102.294 318.584 100.708C318.584 100.708 318.265 94.0505 315.823 93.9448C313.381 93.8391 311.045 107.155 311.045 107.155C311.045 107.155 304.78 107.366 303.93 113.179C303.93 113.179 296 112.016 296 126Z" fill="url(#paint11_linear_1_1383)"/>
        <path d="M253.108 126H333C333 126 329.642 125.583 327.543 123.078C325.444 120.573 324.324 119.739 322.368 119.739C319.291 113.615 315.513 112.78 312.995 113.06C307.257 104.573 302.362 104.431 296.763 103.459C290.886 92.885 283.331 88.7441 279.414 90.3262C275.498 91.9082 274.659 99.7017 274.659 99.7017C274.659 99.7017 266.125 102.106 265.004 108C258.846 109.303 257.449 117.096 257.31 119.601C254.091 119.601 252.554 124.055 253.113 126H253.108Z" fill="url(#paint12_linear_1_1383)"/>
        <path d="M301.55 89.9536C300.92 89.778 300.516 88.9056 302.027 86.8007L302.041 86.7802C302.791 85.7322 302.762 84.327 301.995 83.2936C301.602 82.7666 301.21 82.2719 300.821 81.824C300.437 81.379 300.039 80.9662 299.635 80.5739C299.837 81.5781 299.609 82.5441 298.976 83.1062C298.49 83.5395 297.012 82.831 297.665 81.1477C298.069 80.0968 297.703 78.8965 296.766 78.2729C292.87 75.6763 289.134 75 289.134 75C289.889 76.1037 290.197 78.6037 290.042 81.5488C290.004 82.2836 290.419 82.9686 291.093 83.2643L291.104 83.2702C293.432 84.2831 294.342 85.1028 294 86.0044C293.64 86.9529 291.757 86.7539 289.72 84.6929C289.494 86.1772 289.166 87.6907 288.73 89.1281C288.455 90.0385 288.777 91.0222 289.559 91.5696L289.573 91.5813C291.737 93.0948 292.694 93.5369 292.571 94.4444C292.448 95.3519 290.829 94.986 289.178 93.2353C288.672 92.6996 288.265 92.0936 287.94 91.4935C287.181 93.9204 286.865 96.2624 287.053 98.5897C287.138 99.6641 288.019 100.501 289.093 100.545H289.114C291.95 100.662 293.075 100.507 293.49 101.4C293.906 102.29 292.226 102.902 289.717 102.273C288.92 102.073 288.177 101.748 287.518 101.38C287.992 103.224 288.795 105.08 289.974 106.977C290.285 107.478 290.621 107.917 290.976 108.303C291.476 108.845 292.337 108.886 292.878 108.382C292.881 108.379 292.884 108.376 292.89 108.373C294.301 107.05 294.761 106.43 295.393 106.652C296.025 106.875 295.522 107.984 294.017 108.903C293.522 109.205 292.993 109.41 292.483 109.553C295.984 111.714 300.37 109.846 301.57 106.163C303.851 104.641 305.285 102.82 306.099 100.853C304.711 101.482 303.824 101.198 303.83 100.815C303.839 100.197 304.337 99.9452 305.844 99.7812H305.85C306.254 99.7373 306.582 99.4358 306.67 99.0376C307.103 97.0674 307.006 95.0006 306.567 92.9719C305.133 95.4924 303.294 96.0809 302.744 95.8262C302.003 95.4807 301.617 94.339 303.991 93.2324C304.155 93.1563 304.313 93.0743 304.468 92.9865C305.604 92.3425 306.043 90.9285 305.569 89.7136C305.06 88.4108 304.439 87.1608 303.763 85.9986C303.485 88.1796 302.334 90.182 301.547 89.9624L301.55 89.9536Z" fill="url(#paint13_linear_1_1383)"/>
        <path d="M290.542 76.0312C290.542 76.0312 297.603 81.9858 298.769 90.8766C299.934 99.7674 299.776 107.001 305.461 111.067" stroke="white" stroke-width="0.63" stroke-miterlimit="10"/>
        <path d="M295.384 89.6741C296.037 90.2743 296.339 91.0061 296.055 91.3135C295.774 91.6209 295.015 91.3809 294.366 90.7836C293.716 90.1864 293.411 89.4516 293.695 89.1443C293.976 88.8369 294.734 89.0769 295.384 89.6741Z" fill="#73D9AB"/>
        <path d="M296.301 96.8041C297.302 97.3252 297.917 98.1302 297.671 98.6016C297.425 99.0729 296.415 99.029 295.414 98.5079C294.412 97.9868 293.798 97.1817 294.044 96.7104C294.289 96.2391 295.299 96.283 296.301 96.8041Z" fill="#73D9AB"/>
        <path d="M300.51 86.3502C300.317 87.2138 299.831 87.8432 299.427 87.7524C299.02 87.6617 298.848 86.8888 299.041 86.0223C299.234 85.1587 299.72 84.5293 300.124 84.62C300.531 84.7108 300.704 85.4836 300.51 86.3502Z" fill="#73D9AB"/>
        <path d="M301.535 92.9078C301.099 93.3381 300.584 93.5196 300.382 93.3176C300.18 93.1127 300.37 92.6004 300.803 92.17C301.236 91.7397 301.755 91.5582 301.957 91.7602C302.159 91.9651 301.968 92.4774 301.535 92.9078Z" fill="#73D9AB"/>
    </g>
    <defs>
        <filter id="filter0_d_1_1383" x="4" y="75" width="89" height="48" filterUnits="userSpaceOnUse" color-interpolation-filters="sRGB">
            <feFlood flood-opacity="0" result="BackgroundImageFix"/>
            <feColorMatrix in="SourceAlpha" type="matrix" values="0 0 0 0 0 0 0 0 0 0 0 0 0 0 0 0 0 0 127 0" result="hardAlpha"/>
            <feOffset dy="4"/>
            <feGaussianBlur stdDeviation="6"/>
            <feColorMatrix type="matrix" values="0 0 0 0 0.109804 0 0 0 0 0.145098 0 0 0 0 0.172549 0 0 0 0.05 0"/>
            <feBlend mode="normal" in2="BackgroundImageFix" result="effect1_dropShadow_1_1383"/>
            <feBlend mode="normal" in="SourceGraphic" in2="effect1_dropShadow_1_1383" result="shape"/>
        </filter>
        <linearGradient id="paint0_linear_1_1383" x1="10.6082" y1="5.50002" x2="406.589" y2="200.13" gradientUnits="userSpaceOnUse">
            <stop stop-color="#82AFFF"/>
            <stop offset="0.975618" stop-color="#F14985"/>
        </linearGradient>
        <linearGradient id="paint1_linear_1_1383" x1="19.6576" y1="83.8713" x2="39.2445" y2="138.289" gradientUnits="userSpaceOnUse">
            <stop stop-color="white" stop-opacity="0.17"/>
            <stop offset="1" stop-color="white" stop-opacity="0"/>
        </linearGradient>
        <linearGradient id="paint2_linear_1_1383" x1="253.251" y1="109.352" x2="212.951" y2="76.508" gradientUnits="userSpaceOnUse">
            <stop stop-color="white" stop-opacity="0"/>
            <stop offset="1" stop-color="#8FB2FF"/>
        </linearGradient>
        <linearGradient id="paint3_linear_1_1383" x1="234.383" y1="78.8628" x2="260.344" y2="78.8628" gradientUnits="userSpaceOnUse">
            <stop stop-color="#66B58A"/>
            <stop offset="0.92" stop-color="#407ABD"/>
        </linearGradient>
        <linearGradient id="paint4_linear_1_1383" x1="333.925" y1="72.3014" x2="314.896" y2="102.455" gradientUnits="userSpaceOnUse">
            <stop stop-color="#66B58A"/>
            <stop offset="0.92" stop-color="#407ABD"/>
        </linearGradient>
        <linearGradient id="paint5_linear_1_1383" x1="269.24" y1="27.7642" x2="269.24" y2="118.224" gradientUnits="userSpaceOnUse">
            <stop stop-color="#1051B3"/>
            <stop offset="1" stop-color="#16367C"/>
        </linearGradient>
        <linearGradient id="paint6_linear_1_1383" x1="273.597" y1="85.797" x2="278.866" y2="38.9571" gradientUnits="userSpaceOnUse">
            <stop stop-color="#ADC7FF" stop-opacity="0"/>
            <stop offset="1" stop-color="#ADC7FF"/>
        </linearGradient>
        <linearGradient id="paint7_linear_1_1383" x1="259.989" y1="106.045" x2="295.555" y2="106.045" gradientUnits="userSpaceOnUse">
            <stop stop-color="#ADC7FF" stop-opacity="0"/>
            <stop offset="1" stop-color="#ADC7FF"/>
        </linearGradient>
        <linearGradient id="paint8_linear_1_1383" x1="286.84" y1="54.9861" x2="280.204" y2="54.9363" gradientUnits="userSpaceOnUse">
            <stop stop-color="#0A631A" stop-opacity="0"/>
            <stop offset="1" stop-color="#0A631A"/>
        </linearGradient>
        <linearGradient id="paint9_linear_1_1383" x1="267.677" y1="44.6244" x2="261.638" y2="44.4048" gradientUnits="userSpaceOnUse">
            <stop stop-color="#0A631A" stop-opacity="0"/>
            <stop offset="1" stop-color="#0A631A"/>
        </linearGradient>
        <linearGradient id="paint10_linear_1_1383" x1="267.753" y1="42.5292" x2="261.714" y2="42.3096" gradientUnits="userSpaceOnUse">
            <stop stop-color="#0A631A" stop-opacity="0"/>
            <stop offset="1" stop-color="#0A631A"/>
        </linearGradient>
        <linearGradient id="paint11_linear_1_1383" x1="379.812" y1="104.999" x2="286.133" y2="104.999" gradientUnits="userSpaceOnUse">
            <stop stop-color="#B7EBCF"/>
            <stop offset="0.92" stop-color="#4099BD"/>
        </linearGradient>
        <linearGradient id="paint12_linear_1_1383" x1="321.314" y1="108" x2="229.543" y2="108" gradientUnits="userSpaceOnUse">
            <stop stop-color="#B7EBCF"/>
            <stop offset="0.92" stop-color="#4099BD"/>
        </linearGradient>
        <linearGradient id="paint13_linear_1_1383" x1="292.138" y1="75.8226" x2="298.871" y2="105.098" gradientUnits="userSpaceOnUse">
            <stop stop-color="#66B58A"/>
            <stop offset="0.92" stop-color="#407ABD"/>
        </linearGradient>
        <clipPath id="clip0_1_1383">
            <rect width="343" height="125" rx="16" fill="white"/>
        </clipPath>
    </defs>
</svg>
