<svg width="25" height="24" viewBox="0 0 25 24" fill="none" xmlns="http://www.w3.org/2000/svg">
    <path d="M22.5 10.5V15.5C22.5 19 20.5 20.5 17.5 20.5H7.5C4.5 20.5 2.5 19 2.5 15.5V8.5C2.5 5 4.5 3.5 7.5 3.5H14.5" stroke="#CDCDCD" stroke-miterlimit="10" stroke-linecap="round" stroke-linejoin="round"/>
    <path d="M7.5 9L10.63 11.5C11.66 12.32 13.35 12.32 14.38 11.5L15.56 10.56" stroke="#CDCDCD" stroke-miterlimit="10" stroke-linecap="round" stroke-linejoin="round"/>
<!--    <path d="M22.5 10.5V15.5C22.5 19 20.5 20.5 17.5 20.5H7.5C4.5 20.5 2.5 19 2.5 15.5V8.5C2.5 5 4.5 3.5 7.5 3.5H14.5" stroke="#CDCDCD" stroke-miterlimit="10" stroke-linecap="round" stroke-linejoin="round"/>-->
</svg>
