<svg width="48" height="48" viewBox="0 0 48 48" fill="none" xmlns="http://www.w3.org/2000/svg">
    <circle cx="24" cy="24" r="24" fill="#7B61FF"/>
    <g clip-path="url(#clip0_394_808)">
        <path d="M28.533 6.49498C28.4286 6.49498 27.3897 6.25191 26.5255 7.08377C25.6595 7.91562 25.9367 8.95274 26.1096 9.50731C26.2824 10.0619 26.2824 10.2689 26.178 10.4418C26.0736 10.6147 25.555 11.1692 25.4848 11.3421C25.4164 11.5149 26.9036 12.3108 26.9036 12.3108L28.0811 11.6176C28.0811 11.6176 29.12 12.2406 29.2244 12.2063C29.3288 12.1721 29.6745 11.6176 29.986 10.3356C30.2975 9.05357 30.2291 8.08487 29.8132 7.35745C29.3973 6.63003 28.5312 6.49138 28.5312 6.49138L28.533 6.49498Z" fill="#F6BA99"/>
        <path d="M27.8398 9.26584C27.8398 9.26584 27.667 8.74728 27.3555 9.19742C27.044 9.64755 27.1485 9.99326 27.2871 10.0635L27.4257 10.1319C27.4257 10.1319 27.3573 10.4776 27.5644 10.8935C27.7714 11.3095 28.0829 11.621 28.0829 11.621" stroke="#393762" stroke-width="0.5" stroke-miterlimit="10"/>
        <path d="M30.0922 8.10108C30.031 7.831 29.941 7.58252 29.8132 7.36105C29.3973 6.63363 28.5312 6.49498 28.5312 6.49498C28.4268 6.49498 27.3879 6.25191 26.5237 7.08377C25.6577 7.91562 25.9349 8.95454 26.1078 9.50731C26.2356 9.91784 26.268 10.1375 26.2356 10.2942C26.4625 10.3122 26.756 10.3104 27.0422 10.2347C27.5608 10.0961 27.6652 9.50731 27.5608 9.30025C27.4563 9.09318 27.7336 8.88432 27.7336 8.88432C27.7336 8.88432 27.9407 9.43889 28.1837 9.09138C28.4268 8.74568 28.0109 8.25953 28.4268 7.98404C28.8427 7.70676 29.2928 7.70676 29.8114 7.98404C29.9068 8.03446 30.0004 8.07227 30.0904 8.10108H30.0922Z" fill="#393762"/>
        <path d="M30.0922 8.10101C30.0922 8.10101 30.3335 8.26125 30.6792 7.81112C31.0249 7.36098 31.0249 6.56513 30.7476 6.7722C30.4703 6.97926 30.3659 7.08369 30.3659 7.08369C30.3659 7.08369 30.0886 5.87192 29.7087 6.01056C29.327 6.1492 29.327 6.49491 29.327 6.49491C29.327 6.49491 28.5996 5.94034 28.461 6.11319C28.3224 6.28605 28.2179 6.35627 28.2179 6.35627C28.2179 6.35627 28.2864 6.39048 28.0793 6.4607C27.8722 6.53092 27.6976 6.7722 27.6976 6.7722C27.6976 6.7722 28.8409 6.91084 29.1866 7.25655C29.5323 7.60225 30.0886 8.10101 30.0886 8.10101H30.0922Z" fill="#393762"/>
        <path d="M27.6328 13.8719C27.6328 13.8719 28.2558 14.079 28.29 15.1179C28.3242 16.1568 29.1218 18.8234 29.1218 18.8234C29.1218 18.8234 30.0562 17.7845 30.2291 17.5775C30.4019 17.3704 30.7476 17.3002 31.0951 17.889C31.4408 18.4777 31.3382 19.1709 30.8178 20.001C30.2993 20.8329 29.3288 22.0788 28.533 21.9402C27.7372 21.8016 26.4211 19.4122 26.3869 19.1349C26.3527 18.8577 27.0098 16.0524 27.1143 15.6023C27.2187 15.1521 27.6328 13.8701 27.6328 13.8701V13.8719Z" fill="#FFC932"/>
        <path d="M20.015 23.8788C20.015 23.8788 19.5307 24.536 19.7036 25.1608C19.8764 25.7838 20.1537 26.3726 20.1537 26.3726C20.1537 26.3726 19.0104 30.0781 18.7349 30.8398C18.4576 31.6014 18.6665 31.6716 17.9391 32.1218C17.2117 32.5719 15.6201 33.1949 15.0997 34.8568C14.5812 36.5187 13.888 38.078 13.681 38.4921C13.4739 38.908 13.3695 39.1493 12.9194 39.1493C12.4693 39.1493 11.7077 38.9422 11.6374 39.531C11.569 40.1198 11.6374 40.9859 11.6374 41.1929C11.6374 41.4 11.1189 41.7475 11.326 42.4749C11.533 43.2024 11.9147 43.8596 12.1218 43.9298C12.3288 43.9982 12.7105 43.8956 12.7447 43.7227C12.7789 43.5499 12.363 43.2726 12.5719 42.6496C12.7789 42.0266 13.8178 41.0219 14.4066 40.4673C14.9953 39.9127 16.3799 37.455 17.4188 36.3458C18.4576 35.2385 19.6351 33.8521 20.4652 33.1247C21.297 32.3972 22.993 29.592 23.3387 28.969C23.6844 28.346 24.0661 27.4799 24.0661 27.4799C24.0661 27.4799 27.7013 28.1731 28.3242 28.2758C28.9472 28.3802 29.5702 28.5873 29.5702 28.5873C29.5702 28.5873 28.4971 29.5218 28.2198 30.9766C27.9425 32.4314 27.3196 35.0621 27.0081 35.9281C26.6966 36.7942 26.4535 37.3127 26.2465 37.7629C26.0394 38.213 25.6919 38.8018 25.935 39.0791C26.1781 39.3564 27.4924 39.5292 28.1514 39.6337C28.8086 39.7381 30.0905 39.7021 30.3678 39.4608C30.645 39.2195 30.6793 39.0791 30.5064 39.0449C30.3336 39.0107 29.3631 38.3877 29.0876 38.1446C28.8122 37.9015 28.6033 37.4874 28.6375 37.3127C28.6717 37.1399 30.2309 33.7116 30.9223 32.327C31.6155 30.9424 32.3771 28.5188 32.5842 27.9643C32.7912 27.4097 32.8614 27.3071 32.6526 27.0298C32.4455 26.7525 31.1636 25.7838 29.0174 24.6062C26.8713 23.4287 25.6937 23.3945 25.0348 23.29C24.3776 23.1856 23.2685 22.1827 21.7795 22.8399C20.2905 23.4971 20.0132 23.8788 20.0132 23.8788H20.015Z" fill="#F6BA99"/>
        <path d="M27.7354 13.5242C27.7354 13.5242 27.874 14.8404 27.631 16.6751C27.3879 18.5099 26.0736 21.2468 25.9691 21.904C25.8647 22.5612 26.3148 22.9771 26.1762 23.186C26.0376 23.393 25.7603 23.4632 25.4146 23.4632C25.0689 23.4632 23.7186 23.1175 22.6437 23.3246C21.5706 23.5317 20.3931 24.5022 20.15 24.3977C19.9069 24.2933 19.527 23.8792 19.7683 23.4632C20.0114 23.0473 20.2526 22.806 20.4615 22.3901C20.6685 21.9742 21.7074 18.6846 21.9505 17.6114C22.1935 16.5383 22.0891 15.2905 22.0549 14.4263C22.0207 13.5602 22.7481 12.1414 23.3008 11.9325C23.8554 11.7254 25.4128 12.1396 25.5856 12.1396C25.7585 12.1396 27.4203 12.6581 27.7318 13.5242H27.7354Z" fill="#FFC932"/>
        <path d="M26.9054 13.247C26.9054 13.247 27.7012 14.2517 27.8056 14.1815C27.9101 14.1131 28.29 13.7655 27.9785 12.9355C27.667 12.1036 26.9396 11.5509 26.178 10.8919C25.4164 10.2347 24.6206 9.22995 24.1003 9.81873C23.5817 10.4075 22.6113 11.7579 23.0272 12.2081C23.4431 12.6582 25.6235 12.7626 26.1096 12.9355C26.5957 13.1083 26.9054 13.247 26.9054 13.247Z" fill="#7EB9F5"/>
        <path d="M18.2829 20.5193C18.2829 20.5193 18.3873 20.9353 18.6646 21.3854C18.9419 21.8356 19.0805 22.3199 18.9077 22.4928C18.7925 22.608 18.5038 22.7352 18.0417 22.8745C17.3485 23.0815 17.073 22.9429 17.0028 22.77C16.9344 22.5972 17.2098 22.3883 17.2098 22.3883C17.2098 22.3883 16.7597 22.2839 16.7597 21.8338C16.7597 21.3836 16.8984 20.4833 16.8984 20.4833L18.2487 20.3789L18.2829 20.5175V20.5193Z" fill="#F6BA99"/>
        <path d="M16.6553 19.792C16.6553 19.792 16.6211 20.4852 16.8281 20.658C17.0352 20.8309 18.1443 20.658 18.2829 20.5194C18.4216 20.3807 18.4558 19.4805 18.4558 19.4805L16.6553 19.792Z" fill="#7EB9F5"/>
        <path d="M25.0707 13.0054C25.0707 13.0054 24.5864 12.4868 23.859 12.2438C23.1316 12.0007 20.8468 12.1753 19.2534 12.5895C17.6599 13.0054 17.0028 12.9712 16.7597 13.5942C16.5166 14.2172 16.1367 19.0661 16.2052 19.6188C16.2736 20.1734 17.3827 20.2076 17.9012 20.069C18.4197 19.9303 18.8357 19.5846 19.0085 18.8572C19.1813 18.1298 19.1471 15.5334 19.3902 15.2561C19.6333 14.9788 22.5068 15.1516 23.3026 15.049C24.0984 14.9446 24.653 14.7033 24.7916 14.4944" fill="#FFC932"/>
        <path d="M30.6791 17.3347C30.6791 17.3347 30.0904 17.6462 30.1948 18.1666C30.2992 18.6851 30.8178 19.0668 31.0266 19.0326C31.2337 18.9984 31.6496 18.4439 31.6496 18.4439C31.6496 18.4439 31.718 17.0592 30.6809 17.3365L30.6791 17.3347Z" fill="#7EB9F5"/>
        <path d="M30.6108 17.7141C30.6108 17.7141 30.8881 18.51 31.2337 18.546C31.5794 18.5802 31.7523 18.3731 32.1682 17.9572C32.5841 17.5413 33 17.2298 33 16.6752C33 16.1206 32.8614 15.359 32.5499 15.3248C32.2384 15.2906 31.9953 15.3932 31.9953 15.3932C31.9953 15.3932 31.8909 15.1862 31.5794 15.4274C31.268 15.6705 31.3364 15.8434 31.1635 16.1549C30.9907 16.4663 30.9565 16.605 30.9907 16.8823C31.0249 17.1596 31.0249 17.264 31.0249 17.264L30.609 17.7141H30.6108Z" fill="#F6BA99"/>
        <path d="M31.9954 15.3955C32.0998 15.5684 32.2726 16.5028 32.134 16.6415C31.9954 16.7801 31.7523 17.0574 31.6839 16.7459C31.6155 16.4344 31.4768 15.9843 31.4768 15.9843" stroke="#393762" stroke-width="0.5" stroke-miterlimit="10"/>
        <path d="M29.0173 24.6053C26.8711 23.4277 25.6936 23.3935 25.0346 23.2891C24.3775 23.1846 23.2684 22.1817 21.7794 22.8389C20.2904 23.4961 20.0131 23.8778 20.0131 23.8778C20.0131 23.8778 19.5288 24.535 19.7016 25.1598C19.8745 25.7828 20.1517 26.3716 20.1517 26.3716C20.1517 26.3716 19.0084 30.0771 18.733 30.8388C18.7186 30.8784 18.7096 30.909 18.6988 30.945C19.003 31.053 19.3613 31.1863 19.7718 31.3591C20.4614 31.6472 20.8431 32.1136 21.0466 32.4755C21.918 31.3663 23.0595 29.4704 23.3368 28.9698C23.6825 28.3468 24.0642 27.4807 24.0642 27.4807C24.0642 27.4807 27.6993 28.174 28.3223 28.2766C28.533 28.3108 28.74 28.3576 28.9273 28.4044C29.0155 27.8733 29.1973 27.144 29.57 26.476C29.9121 25.8602 30.229 25.5758 30.4613 25.4425C30.0363 25.1814 29.5538 24.9006 29.0155 24.6053H29.0173Z" fill="#DA5955"/>
        <path d="M30.3677 39.4614C30.645 39.2184 30.6792 39.0797 30.5063 39.0455C30.3335 39.0113 29.363 38.3883 29.0876 38.1452C28.8103 37.9021 28.6032 37.488 28.6374 37.3134C28.6483 37.2575 28.8193 36.8596 29.0678 36.3051C28.7887 36.3807 28.4412 36.4473 28.1531 36.4131C27.8092 36.3735 27.3141 36.2024 26.9594 36.0674C26.6731 36.8488 26.4445 37.3386 26.2482 37.7635C26.0412 38.2136 25.6937 38.8024 25.9367 39.0797C26.1798 39.357 27.4941 39.5298 28.1531 39.6343C28.8103 39.7387 30.0922 39.7027 30.3695 39.4614H30.3677Z" fill="#DECBB6"/>
        <path d="M30.5063 39.0453C30.3335 39.0111 29.363 38.3881 29.0876 38.145C28.8103 37.9019 28.6032 37.4878 28.6374 37.3132C28.6374 37.3132 28.4988 36.863 28.1873 36.7946C27.8758 36.7262 27.7372 37.6607 27.7372 37.6607L26.4175 37.396C26.358 37.5256 26.3022 37.6481 26.2482 37.7633C26.0412 38.2134 25.6937 38.8022 25.9367 39.0795C26.1798 39.3568 27.4941 39.5296 28.1531 39.6341C28.8103 39.7385 30.0922 39.7025 30.3695 39.4612C30.6468 39.2181 30.681 39.0795 30.5081 39.0453H30.5063Z" fill="#393762"/>
        <path d="M14.0932 39.6686C13.7853 39.4435 13.6143 39.0618 13.5225 38.7881C13.3874 39.0204 13.2434 39.15 12.9157 39.15C12.4656 39.15 11.704 38.9429 11.6338 39.5317C11.5654 40.1205 11.6338 40.9866 11.6338 41.1936C11.6338 41.4007 11.1152 41.7482 11.3223 42.4756C11.5293 43.203 11.911 43.8602 12.1181 43.9305C12.3252 43.9989 12.7069 43.8963 12.7411 43.7234C12.7753 43.5505 12.3594 43.2733 12.5682 42.6503C12.7753 42.0273 13.8141 41.0226 14.4029 40.468C14.5073 40.369 14.6388 40.2087 14.7882 40.0071C14.5685 39.9386 14.3165 39.836 14.0914 39.6722L14.0932 39.6686Z" fill="#DECBB6"/>
        <path d="M13.5603 41.2975C13.5333 41.2525 13.5081 41.2056 13.4703 41.157C13.2632 40.8797 12.9157 41.1912 12.9157 41.1912C12.9157 41.1912 12.57 40.8095 12.6042 40.291C12.6312 39.8876 12.9913 39.3403 13.1498 39.1152C13.0832 39.135 13.0075 39.1476 12.9157 39.1476C12.4656 39.1476 11.704 38.9405 11.6338 39.5293C11.5654 40.1181 11.6338 40.9842 11.6338 41.1912C11.6338 41.3983 11.1152 41.7458 11.3223 42.4732C11.5293 43.2007 11.911 43.8579 12.1181 43.9281C12.3252 43.9965 12.7069 43.8939 12.7411 43.721C12.7753 43.5482 12.3594 43.2709 12.5682 42.6479C12.6925 42.2752 13.1138 41.7674 13.5585 41.2993L13.5603 41.2975Z" fill="#393762"/>
    </g>
    <defs>
        <clipPath id="clip0_394_808">
            <rect width="22" height="39" fill="white" transform="translate(11 6)"/>
        </clipPath>
    </defs>
</svg>
