<svg width="11" height="15" viewBox="0 0 11 15" fill="#cdcdcd" xmlns="http://www.w3.org/2000/svg">
    <path d="M6.43259 7.10609C6.31753 7.46105 6.22992 7.75883 6.12227 8.04937C6.07868 8.16712 6.14885 8.21959 6.20682 8.28572C6.69934 8.84588 7.18924 9.40775 7.68786 9.96279C7.98903 10.2977 8.18124 10.671 8.21568 11.1232C8.2828 12.0012 8.36735 12.8779 8.43317 13.7559C8.48024 14.3856 8.22875 14.7901 7.7188 14.9445C7.09074 15.1348 6.45264 14.7299 6.39162 14.0891C6.31143 13.2478 6.24256 12.4057 6.17413 11.5635C6.16106 11.4018 6.11181 11.2704 5.99805 11.1454C5.61668 10.7277 5.24794 10.299 4.85873 9.85614C4.5375 10.3634 4.22586 10.8523 3.91684 11.3429C3.25565 12.392 2.59708 13.4432 1.93371 14.491C1.68309 14.8869 1.26118 15.0657 0.816175 14.9782C0.397754 14.8959 0.0791448 14.5546 0.00984393 14.1045C-0.0298188 13.8468 0.0543011 13.6173 0.191595 13.3997C1.14655 11.8869 2.09846 10.3715 3.0556 8.85996C3.13579 8.73368 3.17328 8.62574 3.13492 8.46832C3.07434 8.21831 3.10441 7.96276 3.18809 7.71361C3.413 7.04509 3.63092 6.374 3.86541 5.66324C3.62351 5.79251 3.41823 5.90428 3.21076 6.01179C3.13448 6.05147 3.13231 6.12357 3.11226 6.19055C2.89694 6.90942 2.68294 7.62871 2.46283 8.3463C2.3469 8.72387 2.03613 8.96278 1.6735 8.9679C1.27862 8.97344 0.969595 8.76567 0.842326 8.40645C0.78087 8.23282 0.789588 8.05833 0.84189 7.88384C1.1021 7.01565 1.36274 6.14789 1.62163 5.27927C1.69442 5.03482 1.84043 4.85435 2.071 4.73276C2.8599 4.31595 3.64531 3.89273 4.43507 3.4772C4.80032 3.28521 5.19346 3.16448 5.59793 3.08171C5.80932 3.03862 5.87688 2.89826 5.76051 2.72249C5.05486 1.65379 5.62583 0.311619 6.90201 0.0372975C7.84738 -0.165777 8.81541 0.482697 8.99673 1.44048C9.17194 2.36711 8.50595 3.30612 7.56974 3.4644C7.40717 3.4917 7.20013 3.43624 7.12168 3.67345C7.08856 3.77328 7.07112 3.84751 7.11645 3.94819C7.18314 4.09666 7.23762 4.25707 7.21888 4.42218C7.19273 4.65085 7.26508 4.85137 7.35922 5.05359C7.56277 5.49088 7.76195 5.93031 7.95155 6.37315C8.00124 6.48962 8.06923 6.54636 8.1904 6.58262C8.91522 6.8002 9.63743 7.02418 10.3601 7.24901C10.8539 7.40303 11.1006 7.83392 10.9616 8.29126C10.8291 8.72728 10.3623 8.97302 9.88631 8.83138C8.98147 8.5626 8.08056 8.28145 7.17965 7.99988C6.91073 7.91583 6.722 7.7358 6.60694 7.48195C6.55725 7.37487 6.50713 7.26779 6.43259 7.10609Z" fill="#CDCDCD"/>
</svg>
