<svg width="14" height="16" viewBox="0 0 14 16" fill="none" xmlns="http://www.w3.org/2000/svg">
    <path d="M5.21356 7.70897C5.49462 9.56992 4.97971 10.5874 3.52559 10.8013C1.90971 11.0391 1.24391 9.96198 0.962844 8.10104C0.584797 5.59692 1.47329 4.03947 2.74014 3.93915C3.8931 3.84804 4.93217 5.84835 5.21356 7.70897ZM5.96805 12.8737C6.06791 13.9302 5.49398 14.9162 4.62814 15.0851C3.75401 15.2553 2.75514 14.5654 2.5516 13.5235C2.34806 12.4816 3.11787 12.4264 4.06123 12.247C5.00459 12.0677 5.84746 11.5994 5.96805 12.8737ZM8.78666 4.66105C8.50559 6.522 9.0205 7.53945 10.4743 7.75342C12.0905 7.99119 12.756 6.91406 13.037 5.05311C13.4154 2.54868 12.5266 0.982655 11.2601 0.891227C10.0988 0.807418 9.06804 2.80011 8.78666 4.66105ZM8.03216 9.82611C7.9323 10.8823 8.50623 11.8686 9.37207 12.0375C10.2462 12.2077 11.2451 11.5178 11.4486 10.4759C11.6522 9.43405 10.8823 9.37881 9.93898 9.19913C8.99562 9.01944 8.15275 8.55151 8.03216 9.82611Z" stroke="white" stroke-miterlimit="10"/>
</svg>
