<svg width="206" height="173" viewBox="0 0 206 173" fill="none" xmlns="http://www.w3.org/2000/svg">
    <path d="M160.469 125.396L191.399 105.634L205.021 109.997L160.469 125.396Z" fill="#E95974"/>
    <path d="M160.469 125.396L187.202 103.154L181.265 96.311L160.469 125.396Z" fill="#E95974"/>
    <path d="M187.202 103.154V108.319L160.469 125.396L187.202 103.154Z" fill="#FC6C69"/>
    <path d="M154 78.7165C164.478 72.7596 178.162 72.2115 189.293 78.4147C200.275 84.5344 201.61 95.9359 194.956 102" stroke="#4B576B" stroke-width="1.5" stroke-miterlimit="10" stroke-linecap="round"/>
    <path d="M0 92.7114C0 91.5004 0.848192 90.0341 1.90112 89.4286L99.0851 33.4541C100.138 32.8486 101.834 32.8486 102.887 33.4541L105.03 34.687C106.075 35.2925 106.931 36.7587 106.931 37.9697V112.291C106.931 113.495 106.075 114.968 105.03 115.574L7.84579 171.548C6.80017 172.147 5.08916 172.147 4.04354 171.548L1.90112 170.316C0.855505 169.717 0 168.237 0 167.033V92.7114Z" fill="#455A64"/>
    <path d="M0 92.7114C0 91.5004 0.848192 90.0341 1.90112 89.4286L99.0851 33.4541C100.138 32.8486 101.834 32.8486 102.887 33.4541L105.03 34.687C106.075 35.2925 106.931 36.7587 106.931 37.9697V112.291C106.931 113.495 106.075 114.968 105.03 115.574L7.84579 171.548C6.80017 172.147 5.08916 172.147 4.04354 171.548L1.90112 170.316C0.855505 169.717 0 168.237 0 167.033V92.7114Z" fill="#455A64"/>
    <path d="M8.91336 95.6585L0.563037 90.8438C0.219373 91.4346 0.00732422 92.1058 0.00732422 92.7113V167.033C0.00732422 168.236 0.86283 169.717 1.90845 170.315L4.05087 171.548C5.09649 172.154 6.8075 172.154 7.85311 171.548L8.92067 170.936V95.6585H8.91336Z" fill="#4B576B"/>
    <path d="M106.931 37.9697V112.291C106.931 112.911 106.704 113.604 106.339 114.21C106.039 114.706 105.659 115.151 105.227 115.45L105.154 115.494C105.11 115.523 105.074 115.552 105.03 115.574L7.84576 171.548H7.83114C7.32661 171.84 6.87327 171.877 6.53691 171.702C6.17131 171.512 5.94464 171.082 5.94464 170.454V96.1327C5.94464 94.929 6.8952 94.1703 8.07975 94.4548L48.9466 104.15L54.299 105.419C55.4835 105.696 57.0117 105.127 57.7137 104.143L63.9143 95.5272L105.651 37.5538C106.353 36.5763 106.931 36.7587 106.931 37.9697Z" fill="#37474F"/>
    <path d="M105.03 115.574C105.074 115.552 105.11 115.523 105.154 115.494L105.227 115.45C105.659 115.151 106.039 114.706 106.339 114.21C106.697 113.612 106.924 112.933 106.931 112.32L63.9143 95.5273L92.7163 122.665L105.03 115.574Z" fill="#4B576B"/>
    <path d="M5.94464 170.454C5.94464 171.082 6.17131 171.512 6.53691 171.702C6.87327 171.877 7.32661 171.84 7.83114 171.556H7.84576L41.3055 152.275L48.9466 104.15L5.94464 169.221V170.454Z" fill="#4B576B"/>
    <path d="M106.339 114.21C106.039 114.706 105.659 115.151 105.227 115.45L105.154 115.494L7.84578 171.549H7.83115C7.32662 171.84 6.87328 171.877 6.53693 171.702L53.0706 97.5846C55.0009 94.5134 58.8983 93.317 62.2179 94.7833L106.331 114.21H106.339Z" fill="#37474F"/>
    <path d="M5.94464 93.9442L50.643 113.633C53.9699 115.1 57.8672 113.903 59.7976 110.825L106.733 35.8906L5.94464 93.9442Z" fill="#4B576B"/>
    <path d="M5.94464 93.9443L50.9574 110.723C54.1601 111.919 57.7722 110.737 59.6368 107.878L106.733 35.8979L5.94464 93.9443Z" fill="#37474F"/>
    <path d="M25.2847 167.352V93.0308C25.2847 91.8271 25.8624 90.0399 26.5643 89.0623L72.9152 24.6694C74.6481 22.262 77.6607 21.1459 80.5416 21.8243L124.129 32.1613C125.298 32.4385 127.119 33.1608 128.165 33.7589L130.307 34.9918C131.353 35.5973 132.208 37.0709 132.208 38.2745V112.596C132.208 113.8 131.353 115.273 130.307 115.879L33.1232 171.861C32.0776 172.459 30.3666 172.459 29.3209 171.861L27.1785 170.628C26.1329 170.03 25.2774 168.549 25.2774 167.345L25.2847 167.352Z" fill="#7B61FF"/>
    <path opacity="0.3" d="M25.2847 167.352V93.0308C25.2847 91.8271 25.8624 90.0399 26.5643 89.0623L72.9152 24.6694C74.6481 22.262 77.6607 21.1459 80.5416 21.8243L124.129 32.1613C125.298 32.4385 127.119 33.1608 128.165 33.7589L130.307 34.9918C131.353 35.5973 132.208 37.0709 132.208 38.2745V112.596C132.208 113.8 131.353 115.273 130.307 115.879L33.1232 171.861C32.0776 172.459 30.3666 172.459 29.3209 171.861L27.1785 170.628C26.1329 170.03 25.2774 168.549 25.2774 167.345L25.2847 167.352Z" fill="white"/>
    <path d="M34.1981 57.103V151.96C34.1981 153.171 35.0462 153.66 36.0992 153.054L127.346 100.494C128.391 99.8882 129.247 98.4219 129.247 97.2109V2.35402C129.247 1.14305 128.399 0.654285 127.346 1.25977L36.0992 53.8202C35.0462 54.4257 34.1981 55.892 34.1981 57.103Z" fill="#FAFAFA" stroke="#E0E0E0" stroke-miterlimit="10"/>
    <path d="M32.2238 94.8398L25.6357 91.0464C25.4163 91.7394 25.2847 92.4543 25.2847 93.0306V167.352C25.2847 168.556 26.1402 170.037 27.1859 170.635L29.3283 171.868C30.3739 172.473 32.0849 172.473 33.1305 171.868L34.0445 171.342L32.2311 94.8398H32.2238Z" fill="#7B61FF"/>
    <g opacity="0.1">
        <path d="M32.2238 94.8398L25.6357 91.0464C25.4163 91.7394 25.2847 92.4543 25.2847 93.0306V167.352C25.2847 168.556 26.1402 170.037 27.1859 170.635L29.3283 171.868C30.3739 172.473 32.0849 172.473 33.1305 171.868L34.0445 171.342L32.2311 94.8398H32.2238Z" fill="black"/>
    </g>
    <path d="M132.216 38.289V112.61C132.216 113.231 131.989 113.924 131.623 114.529C131.324 115.025 130.943 115.47 130.512 115.769L130.439 115.813C130.395 115.842 130.358 115.871 130.314 115.893L33.1305 171.868H33.1159C32.6113 172.16 32.158 172.196 31.8216 172.021C31.456 171.831 31.2294 171.401 31.2294 170.773V96.452C31.2294 95.2483 32.1799 94.4897 33.3645 94.7742L74.2313 104.469L79.5837 105.739C80.7683 106.016 82.2965 105.447 82.9984 104.462L89.199 95.8465L130.936 37.8732C131.638 36.8957 132.216 37.078 132.216 38.289Z" fill="#7B61FF"/>
    <path opacity="0.3" d="M132.216 38.289V112.61C132.216 113.231 131.989 113.924 131.623 114.529C131.324 115.025 130.943 115.47 130.512 115.769L130.439 115.813C130.395 115.842 130.358 115.871 130.314 115.893L33.1305 171.868H33.1159C32.6113 172.16 32.158 172.196 31.8216 172.021C31.456 171.831 31.2294 171.401 31.2294 170.773V96.452C31.2294 95.2483 32.1799 94.4897 33.3645 94.7742L74.2313 104.469L79.5837 105.739C80.7683 106.016 82.2965 105.447 82.9984 104.462L89.199 95.8465L130.936 37.8732C131.638 36.8957 132.216 37.078 132.216 38.289Z" fill="white"/>
    <path d="M130.314 115.893C130.358 115.871 130.395 115.842 130.439 115.813L130.512 115.769C130.943 115.47 131.324 115.025 131.623 114.529C131.982 113.931 132.208 113.253 132.216 112.64L89.199 95.8467L118.001 122.984L130.314 115.893Z" fill="#7B61FF"/>
    <path d="M31.2294 170.773C31.2294 171.401 31.456 171.831 31.8216 172.021C32.158 172.196 32.6113 172.16 33.1159 171.875H33.1305L66.5903 152.594L74.2313 104.469L31.2294 169.541V170.773Z" fill="#7B61FF"/>
    <path d="M131.623 114.529C131.324 115.025 130.943 115.47 130.512 115.769L130.439 115.813L33.1305 171.868H33.1159C32.6113 172.16 32.158 172.196 31.8217 172.021L78.3626 97.8966C80.293 94.8254 84.1903 93.629 87.5099 95.0953L131.623 114.522V114.529Z" fill="#7B61FF"/>
    <path opacity="0.3" d="M131.623 114.529C131.324 115.025 130.943 115.47 130.512 115.769L130.439 115.813L33.1305 171.868H33.1159C32.6113 172.16 32.158 172.196 31.8217 172.021L78.3626 97.8966C80.293 94.8254 84.1903 93.629 87.5099 95.0953L131.623 114.522V114.529Z" fill="white"/>
    <path d="M74.3703 78.9515C72.3595 79.1193 70.7947 78.5795 69.6833 77.3466C68.5718 76.1065 68.0161 74.2098 68.0161 71.6492C68.0161 68.7239 68.6084 65.9299 69.8002 63.2746C70.9848 60.6192 72.6592 58.1753 74.8236 55.9504C76.988 53.7254 79.5325 51.763 82.4646 50.0779C85.2067 48.5022 87.5465 47.6268 89.4915 47.4517C91.4365 47.2839 92.9135 47.78 93.9226 48.9545C94.9243 50.129 95.4288 51.9089 95.4288 54.2944C95.4288 56.8331 94.8804 59.1091 93.791 61.1152C92.7015 63.1214 91.2537 64.6387 89.4622 65.6746C88.5848 66.178 87.8609 66.3749 87.2979 66.2509C86.7276 66.1269 86.3546 65.7621 86.1572 65.1494C85.5576 66.2874 84.7899 67.3306 83.8612 68.2789C82.9326 69.2346 81.887 70.037 80.7317 70.7082C78.7428 71.8316 77.1561 72.189 75.9789 71.7805C74.8017 71.372 74.2167 70.1829 74.2167 68.2206C74.2167 65.784 74.9479 63.4788 76.403 61.2976C77.8581 59.1164 79.8469 57.2927 82.3696 55.8409C83.4591 55.2136 84.5339 54.7832 85.5796 54.5497C86.6252 54.3236 87.4807 54.3163 88.1461 54.5278V62.2095C88.1461 62.8296 88.2558 63.2089 88.4678 63.3548C88.6799 63.5007 89.0308 63.4277 89.5281 63.1432C90.3616 62.6618 91.0124 61.8083 91.4731 60.5827C91.9337 59.3571 92.1604 57.8835 92.1604 56.1546C92.1604 54.236 91.7436 52.8427 90.91 51.9746C90.0765 51.1065 88.9285 50.7563 87.4588 50.9168C85.9964 51.0773 84.3219 51.7047 82.4354 52.7843C78.9914 54.7686 76.2714 57.2051 74.2825 60.0866C72.2936 62.9755 71.2992 66.1998 71.2992 69.7598C71.2992 71.8535 71.7306 73.3781 72.6007 74.3411C73.4709 75.304 74.6554 75.7125 76.1617 75.5739C77.668 75.428 79.3863 74.8079 81.3093 73.6918C82.355 73.0863 83.3713 72.3787 84.3438 71.5617C85.3163 70.7446 86.1133 69.9349 86.7349 69.1251C86.8372 69.0011 86.925 68.9209 86.9908 68.8844C87.0566 68.8479 87.1151 68.8771 87.1809 68.9647L87.9852 70.4237C88.0291 70.5258 88.051 70.5914 88.051 70.6133C88.051 70.7227 87.9779 70.8613 87.8244 71.0291C87.0347 71.9994 86.0622 72.9623 84.9215 73.918C83.7735 74.8736 82.5816 75.7125 81.3459 76.4274C78.7136 77.9448 76.3957 78.7837 74.3776 78.9515H74.3703ZM83.9051 65.2296C84.6729 64.2229 85.0604 63.2454 85.0604 62.3043V57.8544C84.2707 57.8617 83.2982 58.1972 82.1429 58.8611C80.6878 59.7 79.5325 60.7724 78.677 62.0709C77.8215 63.3767 77.3901 64.7554 77.3901 66.2071C77.3901 67.4473 77.6972 68.1768 78.3187 68.4102C78.9403 68.6437 79.9054 68.3811 81.207 67.6297C82.2307 67.0388 83.13 66.2363 83.9051 65.2296Z" fill="#E0E0E0"/>
    <path d="M143.909 137.891V136.724H143.624C143.288 136.046 142.659 135.404 141.73 134.871C138.82 133.193 134.096 133.193 131.186 134.871C130.258 135.404 129.629 136.046 129.292 136.724H129.007V137.855C128.985 138.971 129.709 140.094 131.186 140.941C134.096 142.618 138.82 142.618 141.73 140.941C143.193 140.102 143.917 138.993 143.909 137.891Z" fill="#37474F"/>
    <path d="M131.186 133.689C134.097 132.011 138.82 132.011 141.73 133.689C144.64 135.367 144.64 138.081 141.73 139.758C138.82 141.436 134.097 141.436 131.186 139.758C128.276 138.081 128.276 135.367 131.186 133.689Z" fill="#455A64"/>
    <path d="M134.543 100.949V136.213C134.543 136.498 134.733 136.782 135.106 136.994C135.851 137.424 137.073 137.424 137.818 136.994C138.191 136.775 138.381 136.498 138.381 136.213V100.949H134.543Z" fill="#37474F"/>
    <path d="M145.05 74.5487C143.185 73.4764 141.489 73.3888 140.217 74.0964L116.54 87.7527L128.422 111.527L152.186 97.8125V87.4025C152.186 82.5659 148.991 76.8102 145.057 74.5414L145.05 74.5487Z" fill="#455A64"/>
    <path d="M128.422 101.117V111.52L114.164 103.306V92.903C114.164 88.0737 117.352 85.9873 121.286 88.256C123.808 89.7005 126.024 92.5893 127.289 95.7407C128.006 97.5134 128.415 99.3736 128.415 101.11L128.422 101.117Z" fill="#37474F"/>
    <path d="M128.422 101.117V111.52L114.164 103.306L127.289 95.7407C128.006 97.5134 128.415 99.3736 128.415 101.11L128.422 101.117Z" fill="#263238"/>
    <path d="M126.046 104.684C124.737 100.905 120.482 96.0032 116.54 93.7345C112.607 91.4658 110.479 92.6913 111.788 96.4701L114.164 103.313L128.422 111.527C128.422 111.527 127.355 108.463 126.046 104.684Z" fill="#455A64"/>
    <path d="M135.844 101.511L135.047 101.051C134.777 100.898 134.396 100.92 133.987 101.161C133.153 101.642 132.473 102.809 132.473 103.772C132.473 104.254 132.641 104.589 132.912 104.75L133.658 105.173L133.789 104.947C133.928 104.918 134.075 104.867 134.221 104.779C135.054 104.298 135.734 103.13 135.734 102.167C135.734 102.021 135.712 101.897 135.683 101.781L135.844 101.511Z" fill="#263238"/>
    <path d="M134.74 101.591C133.906 102.073 133.226 103.24 133.226 104.203C133.226 105.166 133.906 105.552 134.74 105.071C135.574 104.589 136.254 103.422 136.254 102.459C136.254 101.496 135.574 101.11 134.74 101.591Z" fill="#37474F"/>
    <path d="M134.74 103.313V88.2559" stroke="#263238" stroke-width="1.2" stroke-miterlimit="10" stroke-linecap="round"/>
    <path d="M135.135 88.6571V92.5818L139.354 88.2559L135.135 88.6571Z" fill="#37474F"/>
</svg>
