<svg width="65" height="64" viewBox="0 0 65 64" fill="none" xmlns="http://www.w3.org/2000/svg">
    <path d="M39.0067 50.7999L43.06 54.8532L51.1667 46.7466" stroke="#43C465" stroke-width="1.5" stroke-linecap="round" stroke-linejoin="round"/>
    <path d="M32.9267 28.9868C32.66 28.9602 32.34 28.9602 32.0467 28.9868C25.7 28.7735 20.66 23.5735 20.66 17.1735C20.6333 10.6402 25.94 5.3335 32.4733 5.3335C39.0067 5.3335 44.3133 10.6402 44.3133 17.1735C44.3133 23.5735 39.2467 28.7735 32.9267 28.9868Z" stroke="#43C465" stroke-width="1.5" stroke-linecap="round" stroke-linejoin="round"/>
    <path d="M32.4733 58.1598C27.62 58.1598 22.7933 56.9332 19.1133 54.4798C12.66 50.1598 12.66 43.1198 19.1133 38.8265C26.4467 33.9198 38.4733 33.9198 45.8067 38.8265" stroke="#43C465" stroke-width="1.5" stroke-linecap="round" stroke-linejoin="round"/>
</svg>
