<svg width="32" height="33" viewBox="0 0 32 33" fill="#FFFFFF" xmlns="http://www.w3.org/2000/svg">
    <g clip-path="url(#clip0_416_540)">
        <path d="M32 10.5005L8.58929 20.4685C6.64795 21.2898 5.01729 21.7018 3.69862 21.7018C2.20529 21.7018 1.12129 21.1792 0.449287 20.1325C0.0266206 19.4605 -0.0973794 18.6085 0.0759539 17.5752C0.249287 16.5418 0.710621 15.4418 1.45729 14.2712C2.07995 13.3245 3.09995 12.0805 4.51995 10.5378C4.03831 11.296 3.68511 12.1286 3.47462 13.0018C3.10129 14.5952 3.43729 15.7645 4.48262 16.5112C4.97995 16.8592 5.66395 17.0338 6.53595 17.0338C7.23195 17.0338 8.01595 16.9218 8.88795 16.6978L32 10.5005Z" fill="#FFFFFF"/>
    </g>
    <defs>
        <clipPath id="clip0_416_540">
            <rect width="32" height="32" fill="#FFFFFF" transform="translate(-4.57764e-05 0.100586)"/>
        </clipPath>
    </defs>
</svg>
