<svg width="32" height="33" viewBox="0 0 32 33" fill="none" xmlns="http://www.w3.org/2000/svg">
    <g clip-path="url(#clip0_416_532)">
        <path d="M31.7933 4.11118C31.2373 3.40051 30.2653 3.96985 29.8373 4.21785C26.792 6.01252 26.3427 9.17251 25.2813 10.9872C24.4467 12.4405 23.0787 13.5072 21.8413 13.5898C20.9267 13.6552 19.9347 13.4778 18.9507 13.0498C16.5413 12.0085 15.244 10.6605 14.928 10.4232C14.2787 9.92985 9.288 5.06985 5.22134 4.87118C5.22134 4.87118 4.72534 3.87118 4.60134 3.85385C4.30534 3.82052 4.00134 4.45518 3.78 4.52185C3.58 4.59251 3.22934 3.83918 3.02667 3.87252C2.82267 3.89918 2.624 4.65385 2.22667 5.04185C1.93334 5.32585 1.57867 5.30852 1.37734 5.65918C1.308 5.78718 1.332 6.01252 1.25334 6.21918C1.084 6.64585 0.518671 6.69118 0.513338 7.14851C0.513338 7.65651 0.989338 7.75385 1.40534 8.10851C1.736 8.39118 1.75867 8.59118 2.144 8.72318C2.488 8.84051 2.98667 8.47385 3.42934 8.60585C3.79867 8.71385 4.15334 8.79252 4.232 9.16985C4.304 9.51118 4.232 10.0472 3.77867 9.98718C3.62934 9.96718 2.98134 9.75518 2.18134 9.84051C1.21467 9.94318 0.110671 10.2525 0.00267137 11.3205C-0.0519953 11.9165 0.688005 12.6138 1.40934 12.4752C1.904 12.3805 1.67067 11.8005 1.94134 11.5205C2.29734 11.1605 4.304 12.7792 6.17067 12.7792C6.96134 12.7792 7.54534 12.5792 8.12667 11.9725C8.18 11.9338 8.25067 11.8365 8.33334 11.8258C8.42604 11.8499 8.51397 11.8896 8.59334 11.9432C10.1013 13.1392 11.2387 15.5432 16.7667 15.5712C17.5427 15.5805 18.4333 15.9432 19.1613 16.6072C19.8013 17.1845 20.18 18.1072 20.544 19.0405C21.1013 20.4445 22.092 21.7992 23.6 23.3112C23.68 23.4018 24.92 24.3512 25.0133 24.4218C25.0293 24.4352 25.1253 24.6445 25.084 24.7618C25.0573 25.6818 24.92 28.3218 26.904 28.4325C27.392 28.4592 27.2707 28.1245 27.2707 27.8858C27.264 27.4312 27.184 26.9725 27.4213 26.4992C27.7587 25.8618 26.72 25.5538 26.7427 24.1578C26.768 23.1125 25.8827 23.2898 25.4307 22.4912C25.1773 22.0338 24.94 21.7818 24.964 21.2298C25.0613 18.0565 24.2747 15.9658 23.8907 15.4605C23.588 15.0685 23.3267 14.9232 23.6147 14.7405C25.268 13.6538 25.648 12.6418 25.648 12.6418C26.528 10.5872 27.3227 8.71518 28.4147 7.88185C28.636 7.72185 29.2 7.29518 29.5507 7.13518C30.568 6.65251 31.1147 6.36451 31.4013 6.08451C31.876 5.63518 32.248 4.68051 31.7933 4.11118Z" fill="#b054c5"/>
    </g>
    <defs>
        <clipPath id="clip0_416_532">
            <rect width="32" height="32" fill="white" transform="translate(0 0.100586)"/>
        </clipPath>
    </defs>
</svg>
