<svg width="32" height="14" viewBox="0 0 32 14" fill="none" xmlns="http://www.w3.org/2000/svg">
    <g clip-path="url(#clip0_416_536)">
        <path d="M19.988 6.40727C23.6587 4.9406 25.944 4.09794 32 2.62061C28.7107 2.83794 21.4374 3.33661 16.424 4.31527L19.988 6.40861M8.57471 11.2766H13.3747C14.3254 9.83661 15.2707 9.13527 16.372 8.35527C15.5356 8.03185 14.6946 7.72026 13.8494 7.4206C10.7867 8.7726 9.08271 10.5873 8.5787 11.2766M9.52404 6.03927C5.24404 7.56861 2.86537 9.22994 1.2587 11.2766H6.55871C7.07471 10.5579 9.04137 8.48594 12.736 7.04461C11.6725 6.68584 10.6011 6.35065 9.52271 6.03927M11.72 2.81794H3.8147e-05C11.816 4.95127 17.5107 7.69794 26.6667 11.5806C25.884 10.9953 13.2654 3.56327 11.7214 2.81794" fill="#b054c5"/>
    </g>
    <defs>
        <clipPath id="clip0_416_536">
            <rect width="32" height="13" fill="#b054c5" transform="translate(3.8147e-05 0.100586)"/>
        </clipPath>
    </defs>
</svg>
