<svg width="31" height="31" viewBox="0 0 31 31" fill="none" xmlns="http://www.w3.org/2000/svg">
    <path d="M20.6073 15.4998C20.4689 15.6017 20.3294 15.702 20.1887 15.8007C19.1218 16.5564 17.5757 17.073 15.5646 17.073H15.4302C13.4204 17.073 11.8717 16.5564 10.8061 15.8007C10.666 15.7012 10.5265 15.6009 10.3876 15.4998C10.5038 15.4132 10.6407 15.3151 10.8061 15.1975C11.8717 14.4432 13.4204 13.9252 15.4302 13.9252H15.5646C17.5757 13.9252 19.1244 14.4432 20.1887 15.1975C20.3554 15.3138 20.4923 15.4132 20.6085 15.4998M31 9.27525C31 9.27525 30.0842 8.57646 27.1896 7.51212C24.6476 6.58083 22.7307 6.37158 22.7307 6.37158L22.7385 11.8521C22.7385 12.6245 22.5292 13.3285 21.9402 14.1319C19.7806 13.344 17.7372 12.8596 15.5065 12.8596C13.2745 12.8596 11.2336 13.344 9.07396 14.1319C8.48367 13.3324 8.27312 12.6232 8.27312 11.8521L8.28217 6.37158C8.28217 6.37158 6.35242 6.57825 3.80912 7.51212C0.915791 8.57904 0 9.27525 0 9.27525C0.120125 11.763 2.29917 13.9743 5.72854 15.5011C2.29529 17.024 0.11625 19.2288 0 21.723C0 21.723 0.915791 22.4205 3.80912 23.4862C6.35112 24.4175 8.26925 24.6267 8.26925 24.6267L8.26021 19.1449C8.26021 18.3737 8.47204 17.6685 9.05975 16.8664C11.2194 17.6543 13.2603 18.1361 15.4923 18.1361C17.723 18.1361 19.7664 17.653 21.9248 16.8664C22.515 17.6672 22.7256 18.3737 22.7256 19.1449L22.7178 24.6267C22.7178 24.6267 24.6347 24.42 27.1767 23.4862C30.0713 22.4193 30.9871 21.723 30.9871 21.723C30.867 19.234 28.6879 17.0214 25.2585 15.4985C28.6905 13.9717 30.8682 11.7682 30.9871 9.27267" fill="#FFFFFF"/>
</svg>
