<svg width="375" height="701" viewBox="0 0 375 701" fill="none" xmlns="http://www.w3.org/2000/svg">
<path d="M309.922 0.0147882C254.684 -0.700537 205.204 24.5867 172.46 64.6356C143.804 99.6959 101.24 119.679 56.5522 118.034C55.1493 117.978 53.7384 117.96 52.3193 117.951C-12.5597 117.904 -59.5425 171.851 -59.9966 238.107C-60.4588 305.347 -13.5004 360 52.2301 360C70.167 360 87.1713 355.931 102.408 348.648C146.115 327.745 195.303 328.916 239.975 347.579C260.515 356.154 284.095 359.619 307.651 359.619C404.877 359.619 479 279.112 479 179.803C479 81.116 406.531 1.25035 309.922 0.00549809V0.0147882Z" fill="#2F3C50"/>
<path d="M212.407 300.474C212.397 296.178 216.966 292.678 221.873 291.555C226.78 290.432 231.979 291.102 237.022 291.63C242.07 292.159 247.39 292.502 252.055 290.789C263.108 286.74 266.116 273.042 277.577 269.91C284.398 268.047 291.743 270.706 298.907 270.529C306.781 270.333 314.011 266.702 319.855 262.24C325.699 257.783 330.515 252.445 336.157 247.807C341.8 243.169 348.606 239.125 356.404 238.188C364.203 237.257 373.04 240.203 376.188 246.296V299.612L212.402 300.469L212.407 300.474Z" fill="url(#paint0_linear_1_1196)"/>
<path d="M153.781 301.224C153.791 296.445 149.222 292.552 144.315 291.298C139.408 290.049 134.753 291.741 129.71 292.325C124.662 292.914 118.798 292.35 114.133 290.447C103.08 285.944 100.073 270.695 88.6114 267.211C81.7901 265.136 74.4499 268.097 67.281 267.9C59.4068 267.684 52.1774 263.64 46.3335 258.674C40.4896 253.714 35.6734 247.777 30.031 242.615C24.3885 237.453 17.5824 232.95 9.78373 231.913C1.9851 230.876 -6.85133 234.154 -10 240.938V300.272L153.786 301.224H153.781Z" fill="url(#paint1_linear_1_1196)"/>
<path d="M375 701V293H186H-3V701H375Z" fill="url(#paint2_linear_1_1196)"/>
<path style="mix-blend-mode:multiply" d="M180.925 382.692C279.42 382.692 359.266 380.746 359.266 378.346C359.266 375.946 279.42 374 180.925 374C82.4306 374 2.58472 375.946 2.58472 378.346C2.58472 380.746 82.4306 382.692 180.925 382.692Z" fill="url(#paint3_linear_1_1196)"/>
<g opacity="0.2">
<path d="M292.535 138.554L272.666 134.639C271.365 133.176 269.468 132.248 267.354 132.248C266.269 132.248 265.246 132.498 264.325 132.932C263.003 128.698 259.052 125.629 254.377 125.629C251.741 125.629 249.348 126.612 247.512 128.224C245.926 121.829 240.16 117.081 233.268 117.081C226.376 117.081 220.84 121.639 219.118 127.851C217.35 126.469 215.127 125.636 212.708 125.636C208.039 125.636 204.088 128.705 202.76 132.939C201.838 132.505 200.815 132.254 199.731 132.254C197.589 132.254 195.672 133.203 194.371 134.707L174.786 138.568H192.67C192.67 138.568 192.67 138.588 192.67 138.602H274.408C274.408 138.602 274.408 138.581 274.408 138.568H292.528L292.535 138.554Z" fill="url(#paint4_linear_1_1196)"/>
<path d="M175.749 184.055L155.88 180.14C154.579 178.677 152.681 177.749 150.567 177.749C149.483 177.749 148.46 177.999 147.538 178.433C146.217 174.199 142.266 171.13 137.59 171.13C134.954 171.13 132.562 172.113 130.726 173.725C129.14 167.33 123.373 162.582 116.481 162.582C109.59 162.582 104.053 167.14 102.332 173.352C100.563 171.97 98.3406 171.137 95.9214 171.137C91.2524 171.137 87.3017 174.206 85.9735 178.44C85.0519 178.006 84.0286 177.755 82.9444 177.755C80.803 177.755 78.8852 178.704 77.5841 180.208L58 184.069H75.8832C75.8832 184.069 75.8832 184.089 75.8832 184.103H157.622C157.622 184.103 157.622 184.082 157.622 184.069H175.742L175.749 184.055Z" fill="url(#paint5_linear_1_1196)"/>
<path d="M342.681 194.67L322.813 190.755C321.512 189.291 319.614 188.363 317.5 188.363C316.416 188.363 315.392 188.614 314.471 189.047C313.149 184.814 309.199 181.745 304.523 181.745C301.887 181.745 299.495 182.727 297.658 184.34C296.073 177.945 290.306 173.196 283.414 173.196C276.522 173.196 270.986 177.755 269.265 183.967C267.496 182.585 265.273 181.752 262.854 181.752C258.185 181.752 254.234 184.821 252.906 189.054C251.985 188.621 250.961 188.37 249.877 188.37C247.736 188.37 245.818 189.318 244.517 190.822L224.933 194.683H242.816C242.816 194.683 242.816 194.704 242.816 194.717H324.554C324.554 194.717 324.554 194.697 324.554 194.683H342.675L342.681 194.67Z" fill="url(#paint6_linear_1_1196)"/>
</g>
<path d="M132.245 326.481L128.33 368.149L121.66 367.855C121.66 367.855 123.978 360.893 122.432 352.917L120.265 342.941C119.792 340.75 119.861 338.48 120.466 336.33L123.476 325.633L132.245 326.481Z" fill="#7A4736"/>
<path d="M122.75 366.052C123.424 366.939 124.329 367.93 125.431 367.758C126.192 367.642 126.757 366.991 127.114 366.317C127.477 365.642 127.708 364.887 128.175 364.276C128.642 363.666 129.443 363.216 130.17 363.47C131.023 363.769 131.3 364.801 131.594 365.654C132.701 368.87 135.86 371.273 139.262 371.475C140.196 371.532 141.32 371.527 141.81 372.322C142.283 373.094 141.799 374.114 141.165 374.76C139.712 376.253 137.544 376.869 135.463 376.875C133.381 376.881 131.34 376.339 129.328 375.797C126.249 374.973 123.176 374.149 120.098 373.325C119.579 373.187 119.043 373.042 118.593 372.743C118.143 372.443 117.786 371.953 117.786 371.417C117.786 370.835 118.178 370.345 118.512 369.867C119.429 368.576 119.919 367.164 120.265 365.637C120.38 365.129 120.547 364.317 121.274 364.409C121.891 364.49 122.421 365.602 122.761 366.052H122.75Z" fill="#DB5D5E"/>
<path d="M132.286 326.406C132.165 325.426 131.778 324.487 131.144 323.703L111.547 299.422L101.366 300.58C97.8717 300.978 95.2599 304.027 95.4732 307.531C95.9518 315.444 105.88 318.297 105.88 318.297L122.329 330.63C123.274 330.094 131.121 326.688 132.291 326.406H132.286Z" fill="#7A4736"/>
<path d="M124.641 315.467L111.686 299.422L101.504 300.58C98.0102 300.978 95.3985 304.027 95.6118 307.531C96.0903 315.444 106.018 318.297 106.018 318.297L113.093 323.599C117.203 322.965 122.871 319.749 124.641 315.467Z" fill="#A14445"/>
<path d="M98.6789 343.776L58.24 358.023L55.7609 351.828C55.7609 351.828 63.0599 351.073 69.6959 346.376C69.6959 346.376 77.8656 340.318 77.9002 340.295C82.5587 336.837 89.3215 335.915 94.989 336.18C95.7846 337.673 100.051 339.298 100.772 340.826C100.432 342.151 99.1804 343.615 98.6846 343.776H98.6789Z" fill="#9C5A45"/>
<path d="M57.848 352.076C57.3176 353.055 56.7872 354.283 57.3925 355.222C57.8076 355.868 58.6379 356.11 59.4047 356.162C60.1715 356.214 60.9498 356.116 61.6993 356.289C62.4488 356.462 63.1868 357.009 63.256 357.776C63.3367 358.675 62.5065 359.349 61.8492 359.971C59.3701 362.306 58.488 366.173 59.7045 369.354C60.0389 370.224 60.5059 371.25 59.9812 372.023C59.4739 372.772 58.3438 372.749 57.4906 372.438C55.5303 371.729 54.0716 370.011 53.2126 368.115C52.3478 366.219 52.0018 364.138 51.6675 362.081C51.1543 358.94 50.6354 355.799 50.1223 352.658C50.0358 352.128 49.9493 351.58 50.0358 351.05C50.1223 350.52 50.4221 349.989 50.9122 349.765C51.4426 349.523 52.0537 349.678 52.6245 349.788C54.1812 350.087 55.6687 349.955 57.2023 349.638C57.7096 349.534 58.5226 349.35 58.7417 350.053C58.9261 350.646 58.1305 351.586 57.8595 352.087L57.848 352.076Z" fill="#DB5D5E"/>
<path d="M90.3478 336.544C91.3164 337.477 92.579 338.019 93.7725 338.63C94.8622 339.189 95.9518 339.742 97.0646 340.244C98.2061 340.757 99.365 341.2 100.553 341.535C100.587 341.46 100.628 341.385 100.656 341.31C102.553 336.757 104.427 331.662 106.099 326.06C107.408 321.668 108.088 318.735 108.913 314.816C109.668 314.072 110.902 311.773 111.628 310.367C113.438 306.857 113.081 303.445 112.845 302.027C109.737 301.491 106.629 300.961 103.522 300.425C89.2581 301.335 92.9192 316.66 92.9192 316.66L90.342 336.544H90.3478Z" fill="#9C5A45"/>
<path d="M112.845 301.842C109.737 301.306 102.836 301.058 99.7282 300.522C85.8508 307.093 92.925 316.475 92.925 316.475L92.1985 322.1C94.0723 322.809 96.0153 323.259 98.1197 323.518C100.933 323.864 103.453 324.63 106.307 324.25C107.212 321.028 108.244 317.835 108.913 314.631C109.668 313.888 110.902 311.588 111.628 310.182C113.438 306.672 113.081 303.26 112.845 301.842Z" fill="#B84E4F"/>
<path d="M105.39 286.12L126.209 293.693L125.281 298.569L104.819 292.494C103.412 292.074 102.571 290.644 102.888 289.215L103.92 285.769L105.384 286.126L105.39 286.12Z" fill="#7A4736"/>
<path d="M127.356 293.146C128.561 292.627 129.824 291.982 131.11 292.212C132.539 292.472 133.612 293.837 133.79 295.278C133.969 296.719 133.37 298.177 132.447 299.301C131.807 300.079 130.948 300.753 129.945 300.869C128.884 300.99 127.864 300.477 126.918 299.975C125.88 299.422 124.802 298.846 124.105 297.901C123.459 297.025 122.882 295.065 123.626 294.074C124.047 293.515 124.612 293.78 125.235 293.739C125.967 293.693 126.687 293.44 127.356 293.152V293.146Z" fill="#7A4736"/>
<path d="M103.637 286.345L108.313 288.212L118.898 270.288C119.567 269.02 119.654 267.568 119.129 266.335C118.051 263.787 114.834 263.032 112.401 264.761L112.239 264.877C111.524 265.389 110.942 266.075 110.567 266.859L103.637 286.339V286.345Z" fill="#9C5A45"/>
<path d="M115.774 263.816C113.387 261.43 111.409 261.211 109.656 261.672C102.582 263.528 99.9877 266.974 99.4919 278C99.1286 286.057 100.703 296.315 97.007 302.125C106.007 308.684 113.877 303.249 113.877 303.249C114.05 300.131 114.396 295.924 114.678 291.388C116.229 282.311 118.61 282.824 120.017 279.268C121.245 276.161 121.072 274.628 119.452 271.96C118.316 270.087 116.644 264.686 115.774 263.822V263.816Z" fill="#42214A"/>
<g style="mix-blend-mode:multiply" opacity="0.88">
<path d="M106.37 275.372C108.134 271.787 108.82 265.776 105.055 263.517C101.389 265.799 99.855 269.804 99.4918 278C99.3996 280.034 99.4342 282.207 99.4745 284.414C102.057 281.602 104.686 278.807 106.376 275.378L106.37 275.372Z" fill="#C2C2C2"/>
</g>
<path d="M90.8264 282.138L108.596 295.831L106.197 300.177L88.3357 287.803C87.1307 286.967 86.7733 285.348 87.5228 284.086L89.362 280.968L90.8264 282.138Z" fill="#9C5A45"/>
<path d="M113.721 295.935C112.92 295.503 111.023 296.056 110.175 296.079C110.146 296.091 110.118 296.096 110.083 296.096C109.299 296.085 108.567 295.906 107.904 295.549C107.823 295.555 107.736 295.56 107.656 295.56C107.033 295.583 106.595 294.978 106.024 295.376C105.004 296.085 104.946 298.131 105.286 299.162C105.661 300.281 106.503 301.162 107.315 302.01C108.059 302.782 108.866 303.589 109.916 303.802C110.902 304.004 111.928 303.629 112.781 303.087C114.009 302.309 115.03 301.105 115.312 299.681C115.595 298.252 115.001 296.621 113.721 295.935Z" fill="#9C5A45"/>
<path d="M108.982 269.141C109.893 267.597 109.195 265.136 107.367 264.15C105.315 263.044 103.712 264.542 102.115 266.208L94.5105 274.905L94.4124 275.02L91.818 277.988L91.8699 278.023L89.3677 280.973L91.0108 287.849L97.4278 281.561L105.961 272.997C106.987 272 107.869 271.02 108.982 269.13V269.141Z" fill="#9C5A45"/>
<path d="M123.101 255.932C123.401 256.416 123.026 257.05 122.456 257.01C122.11 256.986 122.069 256.992 121.729 256.946C121.522 256.917 121.36 256.75 121.216 256.6C120.691 256.059 120.847 253.655 122.029 253.903C122.04 254.093 121.966 254.335 122.15 254.52C122.582 255.108 122.796 255.425 123.107 255.938L123.101 255.932Z" fill="#9C5A45"/>
<path d="M109.725 261.667C110.844 264.606 114.494 265.96 115.047 265.724C115.381 265.58 115.658 261.88 118.616 261.43C116.298 260.71 115.064 257.085 112.741 256.364C112.741 256.364 111.588 259.188 109.72 261.661L109.725 261.667Z" fill="#7D4837"/>
<path d="M119.896 248.347C118.287 247.068 115.964 246.791 114.055 247.564C112.147 248.336 110.694 250.082 110.169 252.076C109.645 254.065 113.237 255.644 113.3 257.695C113.363 259.747 113.934 261.372 115.998 261.689C118.131 262.012 117.993 262.162 120.155 261.759C120.686 261.661 120.974 261.251 121.106 260.617C121.233 260.024 122.409 253.915 121.971 251.794C121.793 250.924 121.493 249.241 121.014 248.491C120.536 247.742 119.798 247.944 118.916 248.036" fill="#9C5A45"/>
<path d="M109.31 255.488C109.31 257.275 107.984 258.727 106.347 258.727C104.71 258.727 103.384 257.275 103.384 255.488C103.384 253.702 104.71 252.25 106.347 252.25C107.984 252.25 109.31 253.702 109.31 255.488Z" fill="#29142E"/>
<path d="M113.352 254.693C115.099 252.993 122.3 251.396 122.075 248.232C121.983 246.941 120.34 245.892 119.313 245.408C116.759 244.198 113.277 244.452 110.798 245.823C108.411 247.143 107.35 249.639 107.275 252.284C107.177 255.782 108.67 257.569 110.498 258.468C111.265 258.848 112.222 259.851 113.346 254.699L113.352 254.693Z" fill="#29142E"/>
<path d="M110.158 262.329C110.158 262.329 114.609 273.487 116.8 273.28C118.991 273.072 117.757 269.585 115.566 265.344L112.28 262.059L110.158 262.335V262.329Z" fill="#7D4837"/>
<path d="M115.128 254.03C115.185 254.774 114.69 255.419 114.027 255.465C113.364 255.517 112.781 254.952 112.724 254.209C112.666 253.465 113.162 252.82 113.825 252.774C114.488 252.722 115.07 253.287 115.128 254.03Z" fill="#9C5A45"/>
<g style="mix-blend-mode:multiply" opacity="0.88">
<path d="M119.838 280.916L114.228 275.003L114.707 283.654L116.996 283.971C117.884 282.876 118.76 281.786 119.844 280.916H119.838Z" fill="#C2C2C2"/>
</g>
<path d="M122.686 284.167L115.491 282.783L114.021 274.536L120.795 276.461L122.686 284.167Z" fill="white"/>
<path d="M277.056 285.883L281.568 293.569L287.921 294.272L284.253 282.754L277.056 285.883Z" fill="#D99781"/>
<path d="M282.7 291.847L303.036 282.104L305.849 286.222L286.655 296.645C285.36 297.348 283.743 296.932 282.946 295.69L280.982 292.626L282.694 291.841L282.7 291.847Z" fill="#D99781"/>
<path d="M278.281 289.65L285.823 285.607L281.17 270.715C280.742 269.338 279.769 268.249 278.521 267.751C275.942 266.714 273.123 268.471 272.631 271.43L272.602 271.623C272.455 272.496 272.537 273.393 272.824 274.224L278.281 289.655V289.65Z" fill="#DEAA40"/>
<path d="M303.458 280.897C303.938 279.673 304.372 278.314 305.456 277.558C306.652 276.72 308.392 276.925 309.541 277.828C310.69 278.73 311.311 280.183 311.457 281.641C311.557 282.649 311.428 283.739 310.801 284.53C310.133 285.373 309.043 285.736 308.017 286.053C306.886 286.404 305.714 286.756 304.542 286.586C303.458 286.428 301.653 285.444 301.477 284.213C301.377 283.516 301.963 283.299 302.379 282.831C302.866 282.274 303.194 281.583 303.464 280.903L303.458 280.897Z" fill="#D99781"/>
<g style="mix-blend-mode:multiply" opacity="0.88">
<path d="M285.331 284.031L282.26 294.535L278.316 288.115C278.316 288.115 281.481 284.535 285.337 284.031H285.331Z" fill="#C2C2C2"/>
</g>
<path d="M297.228 330.571L305.327 373.068L298.763 374.603C298.763 374.603 299.115 367.204 295.435 359.875L290.605 350.771C289.545 348.773 288.994 346.553 288.994 344.291V333.078L297.234 330.565L297.228 330.571Z" fill="#D99781"/>
<path d="M299.332 372.558C300.228 373.238 301.377 373.953 302.403 373.484C303.106 373.162 303.481 372.377 303.645 371.621C303.809 370.865 303.833 370.068 304.12 369.354C304.407 368.633 305.063 367.977 305.837 368.024C306.745 368.082 307.296 369.008 307.818 369.758C309.77 372.582 313.503 374.052 316.855 373.32C317.775 373.121 318.871 372.81 319.563 373.449C320.237 374.07 320.037 375.195 319.598 375.997C318.59 377.843 316.656 379.038 314.634 379.612C312.612 380.186 310.479 380.215 308.375 380.239C305.163 380.28 301.946 380.315 298.734 380.356C298.189 380.362 297.632 380.368 297.117 380.198C296.601 380.028 296.114 379.653 295.968 379.131C295.81 378.569 296.056 377.983 296.249 377.427C296.782 375.921 296.876 374.415 296.794 372.834C296.765 372.306 296.706 371.474 297.439 371.363C298.06 371.269 298.881 372.207 299.332 372.552V372.558Z" fill="#42214A"/>
<path d="M263.723 349.605C257.03 350.425 219.61 353.741 219.61 353.741L218.696 347.068C218.696 347.068 226.033 348.105 233.676 345.129C233.676 345.129 243.152 341.186 243.193 341.168C248.603 338.919 255.448 339.663 260.939 341.303C261.631 344.057 263.16 346.828 263.735 349.605H263.723Z" fill="#D99781"/>
<path d="M256.374 339.587C256.825 340.325 257.054 341.737 257.511 342.446C258.39 343.822 259.292 345.187 260.248 346.517C261.097 347.701 262.006 348.831 262.973 349.909C263.061 349.88 263.143 349.862 263.231 349.827C264.667 349.294 265.809 348.175 266.372 346.752L277.976 317.477L269.267 305.485C254.873 306.405 258.566 321.871 258.566 321.871L256.374 339.581V339.587Z" fill="#29142E"/>
<path d="M220.683 347.818C219.921 348.65 219.106 349.722 219.47 350.788C219.722 351.521 220.472 351.96 221.21 352.2C221.949 352.434 222.734 352.534 223.425 352.886C224.117 353.237 224.709 353.952 224.592 354.719C224.451 355.621 223.472 356.078 222.681 356.524C219.686 358.205 217.876 361.779 218.292 365.188C218.409 366.126 218.614 367.239 217.911 367.871C217.231 368.481 216.129 368.182 215.367 367.672C213.621 366.501 212.613 364.462 212.232 362.394C211.851 360.326 212.015 358.205 212.191 356.108C212.454 352.903 212.712 349.704 212.976 346.5C213.023 345.955 213.07 345.404 213.281 344.901C213.492 344.397 213.92 343.957 214.453 343.858C215.027 343.752 215.59 344.051 216.123 344.297C217.571 344.971 219.065 345.199 220.642 345.27C221.169 345.293 222.007 345.311 222.048 346.049C222.083 346.676 221.07 347.402 220.689 347.824L220.683 347.818Z" fill="#42214A"/>
<path d="M288.959 336.862C289.779 336.206 290.611 335.556 291.449 334.929C292.909 333.845 294.386 332.791 295.851 331.713C296.402 331.303 296.929 330.863 297.462 330.436C297.263 329.914 296.982 329.422 296.624 328.983L276.845 304.477L262.709 306.68C256.427 319.662 271.125 323.529 271.125 323.529L288.543 336.587C288.677 336.687 288.824 336.78 288.965 336.868L288.959 336.862Z" fill="#42214A"/>
<path d="M281.563 268.331C278.861 266.409 276.27 263.943 276.27 263.943C271.037 264.365 266.372 270.012 266.02 282.713C265.745 292.731 266.366 291.823 265.692 295.157C264.631 300.394 261.15 309.299 261.15 309.299L279.242 307.77C279.418 304.636 279.336 300.318 279.617 295.76C281.176 286.638 286.011 288.291 287.423 284.717C289.662 279.034 285.296 278.319 281.557 268.331H281.563Z" fill="#7769AB"/>
<g style="mix-blend-mode:multiply" opacity="0.88">
<path d="M271.295 279.193C272.819 277.054 273.997 274.6 274.635 272.051C275.198 269.825 275.632 266.427 273.44 264.921C273.44 264.921 273.44 264.921 273.44 264.916C269.455 266.89 266.313 272.561 266.026 282.901C266.009 283.563 265.991 284.178 265.985 284.746C267.954 283.083 269.8 281.296 271.301 279.193H271.295Z" fill="#C2C2C2"/>
</g>
<path d="M289.205 260.147C289.468 260.656 289.041 261.26 288.472 261.178C288.126 261.125 288.085 261.131 287.745 261.055C287.54 261.008 287.388 260.832 287.253 260.668C286.767 260.088 287.101 257.68 288.273 258.02C288.273 258.213 288.179 258.448 288.349 258.647C288.736 259.268 288.929 259.602 289.205 260.141V260.147Z" fill="#D99781"/>
<path d="M276.27 263.966C279.054 269.016 280.261 269.959 280.836 269.766C281.182 269.649 281.223 269.139 281.545 268.436C282.324 266.743 283.877 265.788 285.167 265.237C282.893 264.341 281.105 261.084 278.826 260.188C278.826 260.188 278.538 262.543 276.265 263.966H276.27Z" fill="#CC8E79"/>
<path d="M286.556 252.29C285.032 250.884 282.723 250.433 280.748 251.066C278.773 251.699 277.179 253.345 276.505 255.307C275.831 257.27 279.324 259.121 279.23 261.189C279.136 263.251 279.587 264.933 281.644 265.402C283.76 265.888 283.614 266.028 285.817 265.782C286.356 265.724 286.679 265.337 286.86 264.71C287.03 264.124 288.671 258.073 288.39 255.905C288.279 255.015 288.103 253.304 287.675 252.519C287.247 251.728 286.497 251.88 285.6 251.904" fill="#D99781"/>
<g style="mix-blend-mode:multiply" opacity="0.88">
<path d="M278.591 274.125L281.252 282.514L288.039 281.735L287.81 279.901L278.591 274.125Z" fill="#C2C2C2"/>
</g>
<path d="M289.234 281.003L281.803 281.46L278.269 273.709L285.425 273.896L289.234 281.003Z" fill="white"/>
<path d="M257.37 280.189L260.476 302.515L255.694 303.945L251.592 282.497C251.316 281.05 252.201 279.638 253.625 279.257L257.212 278.513L257.364 280.183L257.37 280.189Z" fill="#D99781"/>
<path d="M261.502 303.283C262.521 304.115 263.688 304.941 264.075 306.2C264.508 307.595 263.782 309.188 262.58 310.014C261.373 310.84 259.796 310.981 258.366 310.682C257.376 310.471 256.38 310.02 255.811 309.176C255.207 308.286 255.196 307.138 255.207 306.06C255.219 304.876 255.237 303.652 255.752 302.586C256.233 301.601 257.716 300.178 258.947 300.389C259.638 300.506 259.667 301.133 259.99 301.666C260.371 302.299 260.933 302.82 261.502 303.283Z" fill="#D99781"/>
<path d="M252.447 279.661L257.03 283.212L275.339 273.932C276.581 273.205 277.431 272.016 277.642 270.686C278.081 267.939 275.737 265.584 272.748 265.765L272.555 265.777C271.67 265.83 270.814 266.105 270.07 266.574L252.453 279.661H252.447Z" fill="#D99781"/>
<path d="M279.64 258.172C281.416 256.444 288.736 254.821 288.507 251.605C288.414 250.293 286.743 249.227 285.7 248.735C283.104 247.504 279.564 247.762 277.044 249.156C274.618 250.498 273.539 253.035 273.463 255.724C273.364 259.28 274.882 261.096 276.739 262.01C277.519 262.391 278.492 263.416 279.634 258.178L279.64 258.172Z" fill="#29142E"/>
<path d="M261.59 262.244C262.059 261.916 262.527 261.582 262.82 261.102C263.442 260.088 262.574 259.215 262.996 258.266C263.512 257.112 264.502 257.551 265.018 256.397C265.434 255.466 264.889 254.657 265.077 253.644C265.422 251.781 267.31 250.744 269.091 250.668C270.205 250.621 271.359 251.031 272.08 251.88C272.678 252.583 272.936 253.597 272.672 254.487C272.408 255.39 271.459 255.747 271.09 256.579C270.732 257.381 271.535 258.284 271.16 259.127C270.644 260.281 269.654 259.842 269.138 260.996C268.939 261.447 269.109 261.775 269.179 262.209C269.261 262.707 269.12 263.211 268.956 263.679C268.611 264.669 267.978 265.566 267.14 266.198C265.88 267.147 264.18 267.487 262.65 267.101C261.853 266.896 261.08 266.485 260.587 265.829C260.095 265.167 259.931 264.236 260.3 263.503C260.576 262.965 261.074 262.607 261.578 262.25L261.59 262.244Z" fill="#29142E"/>
<path d="M272.883 255.876C273.747 255.876 274.448 254.926 274.448 253.755C274.448 252.584 273.747 251.634 272.883 251.634C272.019 251.634 271.318 252.584 271.318 253.755C271.318 254.926 272.019 255.876 272.883 255.876Z" fill="#DB5D5E"/>
<path d="M281.064 257.962C281.064 258.712 280.519 259.321 279.851 259.321C279.183 259.321 278.638 258.712 278.638 257.962C278.638 257.212 279.183 256.603 279.851 256.603C280.519 256.603 281.064 257.212 281.064 257.962Z" fill="#D99781"/>
<path d="M263.304 271.121L261.776 272.218C261.387 272.497 261.298 273.039 261.578 273.428L265.455 278.824C265.734 279.212 266.276 279.301 266.666 279.022L268.193 277.925C268.582 277.645 268.671 277.104 268.392 276.715L264.515 271.319C264.235 270.93 263.693 270.841 263.304 271.121Z" fill="#DB5D5E"/>
<path d="M195.824 283.254L213.641 318.896C214.42 320.702 214.393 322.756 213.572 324.548C211.938 328.097 207.704 329.607 204.195 327.884L203.45 327.519C202.491 327.05 201.65 326.361 200.995 325.513L183.95 303.325C183.95 303.325 166.54 292.6 178.806 278.698L195.817 283.247L195.824 283.254Z" fill="#C28773"/>
<path d="M213.524 319.64L229.19 373.003L220.984 375.788C220.984 375.788 220.508 366.283 214.882 357.364L207.566 346.322C205.96 343.902 204.974 341.125 204.691 338.23L203.291 323.879L213.517 319.64H213.524Z" fill="#C28773"/>
<path d="M221.536 371.887C222.66 372.803 224.094 373.775 225.439 373.224C226.363 372.845 226.873 371.852 227.121 370.887C227.369 369.922 227.438 368.902 227.838 367.992C228.238 367.083 229.121 366.269 230.107 366.366C231.272 366.483 231.934 367.703 232.568 368.689C234.94 372.411 239.664 374.471 244.007 373.693C245.2 373.479 246.621 373.134 247.476 373.989C248.31 374.823 248.007 376.25 247.4 377.263C246.021 379.586 243.477 381.026 240.849 381.674C238.222 382.322 235.485 382.253 232.782 382.184C228.652 382.081 224.522 381.978 220.391 381.874C219.688 381.854 218.978 381.84 218.316 381.599C217.661 381.357 217.054 380.854 216.889 380.172C216.709 379.441 217.054 378.697 217.33 378.001C218.088 376.091 218.275 374.161 218.247 372.128C218.24 371.453 218.199 370.377 219.143 370.267C219.943 370.177 220.95 371.418 221.522 371.887H221.536Z" fill="#42214A"/>
<path d="M197.699 315.394C200.285 314.223 202.843 312.996 205.374 311.72C206.635 311.086 207.911 310.473 209.125 309.749C209.269 309.66 209.421 309.563 209.58 309.467L196.879 282.371L178.813 278.705C166.547 292.607 183.957 303.332 183.957 303.332L194.355 316.862C195.479 316.387 196.596 315.897 197.706 315.401L197.699 315.394Z" fill="#29142E"/>
<path d="M182.647 335.39L135.318 364.621L130.464 357.453C130.464 357.453 139.51 354.475 146.619 346.694C146.619 346.694 155.3 336.761 155.335 336.72C160.286 331.054 168.601 328.015 175.862 326.781C178.227 329.565 180.399 332.509 182.647 335.39Z" fill="#D99781"/>
<path d="M133.187 357.184C132.781 358.577 132.457 360.279 133.484 361.299C134.194 362.002 135.304 362.085 136.29 361.933C137.276 361.782 138.235 361.444 139.235 361.458C140.234 361.472 141.324 361.961 141.62 362.912C141.972 364.029 141.11 365.118 140.448 366.083C137.952 369.722 137.897 374.878 140.317 378.565C140.979 379.579 141.855 380.75 141.407 381.874C140.965 382.97 139.531 383.245 138.366 383.087C135.69 382.729 133.367 380.95 131.746 378.786C130.126 376.622 129.112 374.078 128.12 371.562C126.596 367.723 125.079 363.884 123.555 360.038C123.3 359.39 123.038 358.721 123.003 358.018C122.969 357.322 123.196 356.564 123.762 356.15C124.369 355.702 125.182 355.723 125.934 355.709C127.988 355.661 129.836 355.082 131.698 354.255C132.319 353.979 133.298 353.524 133.76 354.351C134.153 355.054 133.408 356.467 133.201 357.171L133.187 357.184Z" fill="#42214A"/>
<path d="M193.01 306.117L183.364 333.639C182.64 335.472 181.171 336.906 179.323 337.595C175.662 338.953 171.594 337.037 170.325 333.336L170.056 332.557C169.711 331.544 169.601 330.468 169.739 329.407L173.076 303.69C173.221 302.56 173.318 301.416 173.345 300.279C173.476 295.268 174.579 279.759 186.86 281.848L191.328 287.382C195.631 292.717 195.548 299.748 193.017 306.117H193.01Z" fill="#D99781"/>
<path d="M178.055 278.14C172.042 283.612 171.091 296.729 170.987 300.782C170.953 302.023 170.856 303.257 170.691 304.483L169.194 316.036C175.435 318.083 181.889 319.482 188.322 320.785L194.059 304.532C195.307 301.271 197.823 296.55 197.754 290.464C197.72 287.769 197.41 285.356 196.989 283.309C190.618 281.793 184.198 280.421 178.048 278.14H178.055Z" fill="#42214A"/>
<path d="M200.664 261.914L224.253 276.154L222.336 282.275L196.527 271.219C194.789 270.475 193.921 268.51 194.534 266.725L196.058 262.307L200.657 261.914H200.664Z" fill="#C28773"/>
<path d="M225.804 275.617C227.424 275.127 229.141 274.48 230.762 274.969C232.561 275.513 233.734 277.423 233.747 279.304C233.761 281.186 232.775 282.964 231.424 284.274C230.486 285.177 229.286 285.914 227.983 285.914C226.597 285.914 225.37 285.101 224.225 284.315C222.97 283.454 221.681 282.551 220.915 281.234C220.212 280.014 219.764 277.416 220.867 276.251C221.488 275.596 222.081 275.493 222.887 275.534C223.839 275.582 224.894 275.886 225.797 275.617H225.804Z" fill="#C28773"/>
<path d="M195.313 269.951L202.76 271.64L205.877 240.574C205.973 238.727 204.188 236.728 202.912 235.57C200.264 233.165 196.079 234.033 194.169 237.376L194.045 237.597C193.479 238.582 193.176 239.706 193.155 240.829L195.307 269.951H195.313Z" fill="#C28773"/>
<path d="M201.692 231.07C201.374 230.739 201.009 230.449 200.616 230.208C198.995 229.202 188.239 232.276 185.743 236.804C183.957 240.044 182.695 244.614 182.378 251.058C181.502 268.607 176.531 278.498 176.531 278.498C178.413 280.035 181.93 282.516 186.998 283.902C192.031 285.28 196.265 285.722 198.665 285.363C199.395 285.253 199.747 277.478 200.044 276.403C201.03 272.825 201.96 269.138 203.229 265.65C204.312 262.666 207.139 260.039 207.683 256.855C209.056 248.818 208.573 237.266 201.692 231.076V231.07Z" fill="#DB5D5E"/>
<g style="mix-blend-mode:multiply" opacity="0.88">
<path d="M192.459 249.604C194.603 246.95 197.148 242.601 195.12 239.237C193.679 236.845 190.845 235.66 188.349 234.336C187.212 235.15 186.288 236.06 185.75 237.038C183.964 240.278 182.702 244.848 182.385 251.292C182.254 253.932 182.026 256.393 181.744 258.681C185.715 256.11 189.508 253.264 192.466 249.604H192.459Z" fill="#C2C2C2"/>
</g>
<path d="M204.05 223.874C203.339 224.797 202.671 226.693 201.298 227.727C200.595 228.257 197.499 230.098 196.879 230.435C196.617 232.324 203.491 241.057 205.953 242.201C205.691 240.574 203.691 235.591 205.718 233.978C207.332 232.689 208.883 231.724 210.228 231.001C208.166 228.623 206.104 226.252 204.043 223.874H204.05Z" fill="#CC8E79"/>
<path d="M216.971 217.829C215.703 215.395 213.027 213.81 210.283 213.721C207.546 213.624 205.422 215.189 203.712 217.325C202.002 219.462 201.14 222.019 201.498 224.735C201.65 225.872 201.526 226.92 202.016 228.002C202.719 229.539 203.588 230.387 204.974 231.242C207.463 232.779 209.89 233.778 212.779 234.123C213.496 234.212 214.248 234.261 214.785 233.785C215.392 233.247 215.599 232.4 215.772 231.614C216.392 228.795 217.013 225.969 217.633 223.15C217.888 221.992 218.143 220.799 217.964 219.628C217.785 218.456 217.068 217.291 215.944 216.919" fill="#D99781"/>
<path d="M218.681 226.562C218.971 227.265 218.295 227.754 217.585 227.499C217.151 227.341 216.675 227.313 216.289 227.003C216.075 226.831 215.882 226.617 215.751 226.376C215.275 225.493 215.709 221.771 216.833 222.922C217.302 223.398 218.123 225.211 218.674 226.569L218.681 226.562Z" fill="#D99781"/>
<path d="M221.584 215.471C218.392 215.354 213.979 211.887 211.634 211.198C208.876 210.391 205.946 212.135 205.132 214.885C202.629 216.009 201.312 218.814 200.899 221.385C200.519 223.749 200.726 227.403 202.795 229.057C203.16 229.353 203.615 229.47 204.091 229.505C206.422 229.691 208.407 227.499 209.862 225.969C210.248 225.562 210.393 225.438 210.662 224.935C210.89 224.501 211.862 225.445 211.938 224.962C212.248 222.929 213.2 220.427 214.806 219.055C215.516 218.442 216.992 218.959 217.93 219.2C220.708 219.91 222.825 215.526 221.598 215.478L221.584 215.471ZM215.723 218.187L215.413 218.38C215.509 218.297 215.613 218.235 215.723 218.187Z" fill="#42214A"/>
<path d="M210.841 225.197C210.428 226.341 209.421 227.03 208.587 226.734C207.752 226.437 207.408 225.266 207.821 224.115C208.235 222.97 209.242 222.281 210.076 222.578C210.91 222.874 211.255 224.046 210.841 225.197Z" fill="#D99781"/>
<path d="M168.022 249.686L166.967 272.97L160.644 274.038L158.796 246.033C158.672 244.145 160.031 242.484 161.899 242.222L167.243 242.449L168.022 249.686Z" fill="#D99781"/>
<path d="M168.146 274.107C169.319 275.327 170.67 276.568 170.973 278.229C171.304 280.076 170.132 281.992 168.464 282.854C166.795 283.715 164.761 283.653 162.982 283.04C161.748 282.613 160.548 281.882 159.962 280.717C159.334 279.483 159.5 278.015 159.679 276.644C159.879 275.134 160.1 273.576 160.927 272.301C161.692 271.123 163.809 269.544 165.347 269.999C166.216 270.254 166.154 271.061 166.478 271.798C166.864 272.667 167.498 273.425 168.146 274.1V274.107Z" fill="#D99781"/>
<path d="M160.293 242.739L167.74 248.694L193.121 245.061C194.955 244.786 196.527 243.766 197.41 242.277C199.237 239.203 197.554 235.281 193.893 234.074L193.652 233.999C192.569 233.64 191.411 233.564 190.308 233.771L160.293 242.739Z" fill="#D99781"/>
<path d="M184.24 282.875C184.067 283.391 176.138 318.372 176.138 318.372L177.689 318.716L185.791 283.564L184.24 282.875Z" fill="#FCC149"/>
<path d="M187.225 283.984C187.053 284.501 179.151 318.882 179.151 318.882L180.703 319.227L188.777 284.37L187.225 283.984Z" fill="#FCC149"/>
<path d="M177.048 245.944L175.228 240.009C174.793 238.596 175.586 237.107 177 236.673C178.413 236.239 179.903 237.031 180.337 238.444L182.157 244.379C182.592 245.792 181.799 247.281 180.385 247.715C178.972 248.149 177.482 247.357 177.048 245.944Z" fill="#FCC149"/>
<path d="M70.9018 423.248C70.7002 422.594 69.9986 422.233 69.332 422.1C67.8603 421.801 66.3281 422.252 64.9396 422.882C63.9942 423.312 62.9402 423.981 62.0042 424.662C62.9388 423.08 63.7325 421.429 64.361 419.727L64.3788 419.732C66.6136 416.992 68.2342 413.494 67.7362 409.99C67.6184 409.167 67.2142 408.197 66.3855 408.096C65.927 408.044 65.471 408.292 65.1778 408.647C64.8786 409.001 64.7156 409.443 64.5765 409.89C63.6318 412.963 63.7772 416.258 64.1169 419.47C63.5083 421.146 62.7421 422.766 61.8392 424.324C62.1941 422.881 62.3658 421.382 62.2196 419.926C62.0556 418.369 61.6076 416.8 60.6379 415.557C60.1547 414.929 59.3487 414.362 58.6165 414.664C58.2369 414.818 57.9735 415.181 57.8249 415.569C57.5264 416.325 57.5827 417.164 57.6994 417.968C58.1124 420.74 59.3054 423.39 61.0961 425.548C59.4706 428.088 57.4878 430.435 55.2847 432.532C56.8493 429.339 56.6713 425.761 55.2477 422.494C55.0821 422.111 54.885 421.727 54.5786 421.44C54.2706 421.16 53.823 420.995 53.4243 421.125C53.1596 421.207 52.9512 421.413 52.7845 421.63C52.2489 422.342 52.1076 423.274 52.1003 424.159C52.0738 427.261 53.7222 429.88 55.2072 432.607C53.3008 434.407 51.2286 436.016 49.0748 437.405C50.1756 434.298 49.9355 430.761 48.4324 427.958C48.1989 427.519 47.9248 427.088 47.521 426.807C47.1232 426.528 46.5715 426.419 46.1246 426.656C45.5132 426.984 45.3231 427.789 45.289 428.488C45.2224 430.143 45.6696 431.763 46.3557 433.23C47.0129 434.638 47.987 436.246 48.8736 437.536C48.7435 437.616 48.6179 437.704 48.4895 437.778C48.3595 437.858 44.3467 440.179 44.2183 440.253C44.0354 440.364 44.2119 440.634 44.3873 440.528C44.5097 440.452 48.5193 438.144 48.6358 438.066C48.7431 437.999 48.858 437.928 48.9654 437.861C49.9968 438.993 51.1009 440.067 52.2648 441.062C52.9344 441.637 53.6283 442.194 54.4146 442.596C54.9991 442.893 55.6509 443.106 56.3101 443.053C56.9634 442.998 57.6189 442.625 57.8878 442.026C58.1073 441.517 58.0305 440.922 57.8161 440.411C57.3802 439.369 56.4322 438.617 55.3829 438.195C54.3396 437.775 53.203 437.656 52.0775 437.591C51.242 437.539 50.096 437.621 49.1968 437.712C51.3868 436.307 53.4833 434.68 55.4079 432.859C57.6711 434.232 60.2788 435.224 62.9901 434.948C63.5551 434.889 64.1302 434.769 64.6216 434.46C65.1071 434.149 65.4947 433.608 65.4937 433.04C65.4846 432.335 64.9011 431.796 64.2852 431.497C62.9243 430.832 61.2805 430.89 59.7378 431.166C58.5643 431.375 57.1648 431.855 55.9476 432.346C57.9738 430.361 59.794 428.168 61.3147 425.805C61.3207 425.807 61.3294 425.822 61.3338 425.829C61.3907 425.736 61.446 425.649 61.497 425.554C61.497 425.554 61.497 425.554 61.4986 425.548C63.9676 426.248 66.6472 426.519 69.0754 425.631C69.5917 425.444 70.1062 425.192 70.4841 424.783C70.856 424.372 71.0724 423.779 70.9137 423.251L70.9018 423.248Z" fill="#42214A"/>
<path d="M-26.5526 416.624C-24.7087 404.428 -16.7861 394.665 -6.33641 389.913C2.23928 397.541 6.91398 409.218 5.07164 421.408C3.2277 433.604 -4.69495 443.367 -15.1446 448.119C-23.7203 440.491 -28.395 428.814 -26.5526 416.624Z" fill="url(#paint7_linear_1_1196)"/>
<path d="M-14.5226 444.75L-11.5049 423.835C-11.5049 423.835 -11.5315 423.815 -11.5462 423.799L-17.2602 416.025C-17.3261 415.937 -17.3061 415.814 -17.2182 415.749C-17.1303 415.683 -17.008 415.703 -16.9421 415.791L-11.43 423.294L-10.1047 414.105C-10.1217 414.05 -10.1133 413.995 -10.0811 413.946L-8.88593 405.648L-14.5063 398.001C-14.5722 397.914 -14.5522 397.791 -14.4643 397.725C-14.3764 397.66 -14.2541 397.68 -14.1882 397.767L-8.80188 405.096L-7.38851 395.293C-7.3717 395.183 -7.2703 395.114 -7.16583 395.13C-7.05539 395.146 -6.98517 395.242 -7.00198 395.352L-8.47738 405.553C-8.42344 405.638 -8.44025 405.749 -8.51462 405.812L-9.63851 413.605L-1.2343 407.43C-1.14802 407.371 -1.02407 407.385 -0.958212 407.472C-0.892354 407.56 -0.91235 407.683 -1.00023 407.748L-9.72096 414.151L-12.6186 434.235L-4.175 428.033C-4.08712 427.968 -3.96476 427.988 -3.89891 428.076C-3.83305 428.163 -3.85305 428.286 -3.94093 428.352L-12.701 434.782L-14.1496 444.811C-14.1612 444.878 -14.2026 444.937 -14.2598 444.96C-14.296 444.976 -14.329 444.98 -14.3723 444.975C-14.4827 444.958 -14.553 444.863 -14.5361 444.752L-14.5226 444.75Z" fill="#29142E"/>
<path d="M14.8075 409.692C13.7515 407.794 9.55239 399.347 13.8113 391.794C14.9584 397.093 16.4474 402.356 15.2612 408.952C17.1264 405.947 19.1099 403.025 21.2176 400.188C20.243 396.556 20.1265 392.701 20.8779 389.015C23.2393 392.571 22.1899 397.607 21.6139 399.662C23.1136 397.663 24.6709 395.712 26.2857 393.809C25.9056 390.866 26.13 387.288 27.462 384.676C28.9122 387.867 27.3889 391.813 26.6581 393.372C28.3505 391.394 30.1048 389.47 31.9151 387.6C31.498 386.415 30.1121 381.793 32.6217 378.456C33.3165 381.106 32.9455 384.588 32.1876 387.322C32.7433 386.749 33.3093 386.186 33.8737 385.628C35.8963 382.155 37.9885 380.067 41.8402 378.609C39.7578 384.403 35.2964 385.729 33.9917 385.998C32.3616 387.649 30.7772 389.344 29.2385 391.083C30.8401 390.325 35.7222 388.358 39.165 390.5C36.0539 391.958 32.3225 392.133 28.9548 391.402C26.7584 393.904 24.6669 396.49 22.6801 399.162C24.4041 398.424 31.1107 395.702 34.7214 396.216C31.8564 399.687 26.6886 401.028 22.4811 399.428C20.2815 402.394 18.2148 405.46 16.2859 408.607C18.3906 406.758 23.553 402.792 28.7654 403.168C25.4996 406.633 20.5076 408.819 15.7613 409.469C13.7376 412.827 11.8723 416.285 10.1718 419.819C11.7291 418.225 14.7297 415.321 16.7685 414.456C19.6226 413.242 22.7065 412.696 25.7617 412.161C21.9982 417.198 15.9514 420.461 9.67999 420.868C8.33785 423.732 3.16176 435.757 2.04401 438.713L1.59077 437.902C2.7331 434.997 7.48031 423.477 8.83351 420.667C8.30409 419.044 6.96723 414.62 7.24373 412.134C7.59002 409.054 8.55243 406.082 9.50847 403.134C10.2762 408.752 10.0187 414.218 9.25642 419.804C10.9524 416.358 12.8013 412.985 14.8043 409.704L14.8075 409.692Z" fill="#42214A"/>
<path d="M-5.11755 452.881C-5.11755 452.881 31.1452 425.554 64.0276 442.325C64.0276 442.325 30.1198 467.512 -5.11755 452.881Z" fill="url(#paint8_linear_1_1196)"/>
<path d="M-11.0723 431.062C-8.44462 426.57 -3.29849 423.665 1.90555 423.738C4.53975 423.774 7.11438 424.509 9.73517 424.809C12.356 425.109 15.2066 424.909 17.2994 423.318C20.0802 421.21 20.7433 417.353 22.6564 414.432C25.2959 410.396 30.6358 408.341 35.3089 409.562C39.9761 410.78 43.6294 415.187 43.9558 419.998C44.2882 424.811 41.2684 429.67 36.8088 431.514C33.0317 433.075 28.3414 432.705 25.3369 435.481C22.9434 437.693 22.4075 441.195 21.1602 444.205C18.6249 450.331 12.5008 454.812 5.88871 455.37C-6.74053 456.435 -18.0294 442.941 -11.0707 431.056L-11.0723 431.062Z" fill="url(#paint9_linear_1_1196)"/>
<path d="M-3.73938 446.521C-3.82279 446.499 -3.89823 446.447 -3.95376 446.368C-4.07356 446.196 -4.03515 445.957 -3.86099 445.831L34.5575 418.967C34.7301 418.848 34.9688 418.886 35.0946 419.06C35.2144 419.233 35.176 419.471 35.0018 419.597L-3.41668 446.461C-3.51212 446.531 -3.63053 446.544 -3.73778 446.516L-3.73938 446.521Z" fill="#42214A"/>
<path d="M25.6023 426.149C25.4057 426.097 25.282 425.891 25.3287 425.693C25.377 425.489 25.5841 425.359 25.7883 425.408L34.3845 427.43C34.5751 427.481 34.7183 427.686 34.67 427.89C34.6217 428.094 34.4146 428.223 34.2104 428.175L25.6142 426.153L25.6023 426.149Z" fill="#42214A"/>
<path d="M1.07082 443.036C0.874199 442.983 0.750464 442.777 0.797169 442.579C0.845471 442.375 1.05261 442.246 1.25678 442.294L9.85894 444.318C10.0436 444.367 10.1928 444.573 10.1445 444.778C10.0962 444.982 9.88906 445.111 9.68489 445.063L1.08273 443.039L1.07082 443.036Z" fill="#42214A"/>
<path d="M7.58363 438.487C7.42872 438.445 7.31127 438.312 7.29914 438.142L6.73594 429.329C6.72306 429.115 6.8802 428.934 7.09437 428.921C7.30259 428.906 7.48835 429.071 7.50282 429.279L8.06602 438.093C8.0789 438.307 7.92175 438.488 7.70758 438.501C7.66268 438.502 7.62534 438.498 7.58363 438.487Z" fill="#42214A"/>
<path d="M301.756 417.955C302.027 417.326 302.768 417.04 303.449 416.976C304.954 416.832 306.439 417.441 307.761 418.212C308.661 418.738 309.645 419.513 310.509 420.288C309.742 418.617 309.124 416.892 308.677 415.134L308.659 415.137C306.715 412.179 305.466 408.53 306.339 405.097C306.544 404.29 307.052 403.367 307.892 403.354C308.357 403.349 308.787 403.643 309.042 404.027C309.304 404.41 309.42 404.867 309.511 405.327C310.129 408.481 309.631 411.743 308.949 414.904C309.379 416.633 309.973 418.325 310.71 419.969C310.509 418.496 310.497 416.988 310.799 415.554C311.129 414.023 311.745 412.508 312.848 411.373C313.398 410.799 314.265 410.319 314.966 410.695C315.329 410.888 315.554 411.277 315.661 411.678C315.879 412.461 315.733 413.29 315.531 414.077C314.822 416.792 313.345 419.303 311.323 421.264C312.678 423.959 314.412 426.501 316.393 428.816C315.168 425.476 315.728 421.936 317.501 418.835C317.708 418.471 317.946 418.109 318.283 417.856C318.621 417.609 319.087 417.492 319.472 417.662C319.728 417.772 319.915 417.998 320.058 418.231C320.518 418.995 320.56 419.937 320.473 420.819C320.168 423.907 318.239 426.34 316.462 428.899C318.178 430.888 320.08 432.704 322.087 434.31C321.317 431.104 321.935 427.611 323.738 424.979C324.019 424.566 324.339 424.166 324.773 423.929C325.201 423.693 325.765 423.642 326.186 423.925C326.763 424.314 326.867 425.134 326.827 425.834C326.717 427.486 326.097 429.051 325.253 430.439C324.446 431.771 323.299 433.269 322.274 434.461C322.396 434.554 322.512 434.655 322.633 434.742C322.754 434.835 326.522 437.561 326.643 437.648C326.814 437.777 326.608 438.028 326.444 437.904C326.33 437.816 322.564 435.102 322.456 435.013C322.355 434.935 322.248 434.852 322.148 434.774C320.995 435.793 319.775 436.747 318.504 437.615C317.773 438.118 317.019 438.599 316.189 438.917C315.573 439.152 314.898 439.296 314.244 439.174C313.596 439.052 312.98 438.612 312.775 437.989C312.609 437.46 312.75 436.876 313.019 436.39C313.566 435.399 314.595 434.749 315.69 434.439C316.779 434.13 317.929 434.129 319.062 434.182C319.904 434.217 321.042 434.418 321.932 434.602C319.89 432.977 317.966 431.14 316.235 429.128C313.823 430.258 311.108 430.974 308.424 430.417C307.865 430.3 307.302 430.12 306.844 429.762C306.391 429.402 306.061 428.824 306.122 428.259C306.207 427.559 306.848 427.083 307.497 426.85C308.929 426.33 310.568 426.558 312.082 426.993C313.234 427.323 314.584 427.947 315.749 428.562C313.934 426.377 312.346 424.005 311.077 421.497C311.07 421.498 311.06 421.512 311.055 421.519C311.008 421.42 310.962 421.327 310.921 421.228C310.921 421.228 310.921 421.228 310.92 421.222C308.375 421.661 305.664 421.652 303.329 420.516C302.832 420.276 302.344 419.972 302.01 419.526C301.682 419.078 301.528 418.466 301.744 417.957L301.756 417.955Z" fill="#42214A"/>
<path d="M399.984 421.509C399.441 409.185 392.555 398.649 382.605 392.835C373.209 399.53 367.285 410.659 367.828 422.977C368.371 435.301 375.257 445.837 385.207 451.651C394.603 444.956 400.527 433.827 399.984 421.509Z" fill="url(#paint10_linear_1_1196)"/>
<path d="M384.944 448.234L384.157 427.116C384.157 427.116 384.185 427.099 384.202 427.084L390.75 419.945C390.825 419.865 390.818 419.741 390.737 419.667C390.656 419.592 390.532 419.599 390.456 419.68L384.14 426.569L383.794 417.292C383.817 417.238 383.814 417.182 383.787 417.13L383.477 408.752L389.917 401.731C389.993 401.65 389.986 401.526 389.905 401.452C389.824 401.377 389.699 401.384 389.624 401.465L383.452 408.194L383.084 398.296C383.079 398.185 382.985 398.106 382.878 398.11C382.766 398.115 382.686 398.203 382.691 398.314L383.078 408.615C383.015 408.694 383.02 408.806 383.088 408.876L383.381 416.745L375.63 409.729C375.55 409.66 375.424 409.661 375.349 409.742C375.274 409.822 375.281 409.946 375.362 410.021L383.405 417.297L384.161 437.577L376.374 430.529C376.293 430.455 376.168 430.462 376.093 430.542C376.018 430.623 376.025 430.747 376.105 430.821L384.185 438.129L384.564 448.257C384.569 448.325 384.604 448.388 384.659 448.417C384.693 448.436 384.726 448.443 384.77 448.443C384.882 448.437 384.963 448.35 384.957 448.238L384.944 448.234Z" fill="#29142E"/>
<path d="M359.336 410.309C360.595 408.531 365.699 400.566 362.243 392.609C360.529 397.761 358.478 402.842 358.961 409.526C357.415 406.343 355.742 403.23 353.936 400.188C355.298 396.677 355.827 392.854 355.468 389.109C352.725 392.401 353.238 397.52 353.595 399.623C352.308 397.48 350.958 395.377 349.545 393.315C350.239 390.428 350.397 386.845 349.342 384.108C347.551 387.132 348.654 391.215 349.219 392.842C347.736 390.698 346.186 388.602 344.574 386.553C345.118 385.418 346.998 380.964 344.843 377.384C343.865 379.948 343.865 383.45 344.331 386.248C343.836 385.62 343.33 385.001 342.825 384.388C341.171 380.723 339.301 378.427 335.602 376.577C337.067 382.556 341.39 384.34 342.667 384.744C344.122 386.555 345.527 388.406 346.881 390.296C345.359 389.375 340.684 386.911 337.01 388.683C339.967 390.457 343.683 391.019 347.131 390.644C349.062 393.36 350.879 396.151 352.582 399.016C350.935 398.102 344.514 394.696 340.846 394.832C343.343 398.582 348.371 400.454 352.752 399.301C354.637 402.48 356.378 405.745 357.972 409.076C356.063 407.018 351.321 402.536 346.065 402.366C348.963 406.154 353.725 408.848 358.405 409.988C360.072 413.539 361.569 417.173 362.894 420.865C361.505 419.118 358.813 415.916 356.865 414.844C354.138 413.339 351.111 412.475 348.11 411.625C351.339 417.027 357.042 420.902 363.274 421.96C364.311 424.949 368.207 437.449 369.01 440.506L369.551 439.746C368.718 436.738 365.197 424.784 364.142 421.848C364.845 420.289 366.655 416.027 366.644 413.525C366.626 410.426 365.98 407.369 365.338 404.337C363.97 409.846 363.645 415.31 363.811 420.945C362.482 417.341 360.992 413.793 359.338 410.322L359.336 410.309Z" fill="#42214A"/>
<path d="M374.665 455.344C374.665 455.344 341.294 424.387 306.599 437.647C306.599 437.647 337.841 466.23 374.665 455.344Z" fill="url(#paint11_linear_1_1196)"/>
<path d="M382.952 434.26C380.802 429.518 375.963 426.094 370.747 425.625C368.108 425.386 365.453 425.849 362.798 425.874C360.143 425.9 357.312 425.404 355.388 423.604C352.83 421.218 352.578 417.312 350.976 414.207C348.765 409.918 343.641 407.318 338.834 408.046C334.034 408.772 329.907 412.776 329.067 417.527C328.221 422.28 330.724 427.428 334.99 429.726C338.603 431.672 343.336 431.792 346.046 434.867C348.206 437.316 348.368 440.855 349.295 443.979C351.178 450.337 356.828 455.431 363.385 456.675C375.91 459.049 388.646 446.801 382.952 434.254L382.952 434.26Z" fill="url(#paint12_linear_1_1196)"/>
<path d="M373.964 448.875C374.05 448.862 374.131 448.818 374.195 448.745C374.334 448.586 374.321 448.344 374.16 448.201L338.582 417.48C338.422 417.343 338.179 417.357 338.035 417.517C337.896 417.676 337.909 417.917 338.07 418.06L373.648 448.781C373.736 448.861 373.853 448.886 373.964 448.869L373.964 448.875Z" fill="#42214A"/>
<path d="M346.777 425.556C346.979 425.524 347.125 425.333 347.1 425.131C347.073 424.923 346.879 424.772 346.67 424.799L337.852 425.916C337.656 425.947 337.491 426.136 337.517 426.344C337.544 426.552 337.737 426.702 337.947 426.675L346.765 425.558L346.777 425.556Z" fill="#42214A"/>
<path d="M369.523 444.907C369.725 444.875 369.871 444.683 369.846 444.482C369.819 444.273 369.626 444.123 369.416 444.15L360.592 445.268C360.402 445.298 360.231 445.487 360.257 445.695C360.284 445.903 360.477 446.054 360.687 446.027L369.511 444.909L369.523 444.907Z" fill="#42214A"/>
<path d="M363.491 439.704C363.651 439.679 363.783 439.558 363.813 439.391L365.317 430.683C365.353 430.471 365.215 430.274 365.002 430.239C364.795 430.203 364.592 430.348 364.555 430.553L363.051 439.262C363.015 439.473 363.153 439.67 363.366 439.705C363.411 439.71 363.448 439.711 363.491 439.704Z" fill="#42214A"/>
<defs>
<linearGradient id="paint0_linear_1_1196" x1="294.303" y1="246.009" x2="294.303" y2="302.639" gradientUnits="userSpaceOnUse">
<stop stop-color="#7769AB"/>
<stop offset="0.59" stop-color="#664795"/>
<stop offset="1" stop-color="#592E85"/>
</linearGradient>
<linearGradient id="paint1_linear_1_1196" x1="71.8907" y1="240.61" x2="71.8907" y2="303.636" gradientUnits="userSpaceOnUse">
<stop stop-color="#7769AB"/>
<stop offset="0.59" stop-color="#664795"/>
<stop offset="1" stop-color="#592E85"/>
</linearGradient>
<linearGradient id="paint2_linear_1_1196" x1="186" y1="76.25" x2="186" y2="701" gradientUnits="userSpaceOnUse">
<stop stop-color="#7B61FF"/>
<stop offset="1" stop-color="#7B61FF" stop-opacity="0"/>
</linearGradient>
<linearGradient id="paint3_linear_1_1196" x1="2.58472" y1="378.346" x2="359.266" y2="378.346" gradientUnits="userSpaceOnUse">
<stop offset="0.02" stop-color="#A8B8B8" stop-opacity="0"/>
<stop offset="0.07" stop-color="#ADBDBD" stop-opacity="0.14"/>
<stop offset="0.15" stop-color="#B4C5C5" stop-opacity="0.34"/>
<stop offset="0.24" stop-color="#BBCCCC" stop-opacity="0.52"/>
<stop offset="0.33" stop-color="#C0D2D2" stop-opacity="0.67"/>
<stop offset="0.43" stop-color="#C5D7D7" stop-opacity="0.79"/>
<stop offset="0.53" stop-color="#C8DBDB" stop-opacity="0.88"/>
<stop offset="0.65" stop-color="#CBDDDD" stop-opacity="0.95"/>
<stop offset="0.78" stop-color="#CCDFDF" stop-opacity="0.99"/>
<stop offset="1" stop-color="#CDE0E0"/>
</linearGradient>
<linearGradient id="paint4_linear_1_1196" x1="233.668" y1="119.282" x2="233.668" y2="143.696" gradientUnits="userSpaceOnUse">
<stop stop-color="white"/>
<stop offset="1" stop-color="white" stop-opacity="0"/>
</linearGradient>
<linearGradient id="paint5_linear_1_1196" x1="116.881" y1="164.783" x2="116.881" y2="189.197" gradientUnits="userSpaceOnUse">
<stop stop-color="white"/>
<stop offset="1" stop-color="white" stop-opacity="0"/>
</linearGradient>
<linearGradient id="paint6_linear_1_1196" x1="283.814" y1="175.391" x2="283.814" y2="199.811" gradientUnits="userSpaceOnUse">
<stop stop-color="white"/>
<stop offset="1" stop-color="white" stop-opacity="0"/>
</linearGradient>
<linearGradient id="paint7_linear_1_1196" x1="-7.74757" y1="397.348" x2="-13.8131" y2="441.18" gradientUnits="userSpaceOnUse">
<stop stop-color="#834394"/>
<stop offset="0.55" stop-color="#62326F"/>
<stop offset="1" stop-color="#46234F"/>
</linearGradient>
<linearGradient id="paint8_linear_1_1196" x1="-1.40875" y1="439.039" x2="60.4657" y2="455.618" gradientUnits="userSpaceOnUse">
<stop stop-color="#221126"/>
<stop offset="0.99" stop-color="#42214A"/>
</linearGradient>
<linearGradient id="paint9_linear_1_1196" x1="31.513" y1="417.72" x2="-12.7154" y2="452.384" gradientUnits="userSpaceOnUse">
<stop stop-color="#A399C4"/>
<stop offset="0.59" stop-color="#7962D1"/>
<stop offset="1" stop-color="#6041D9"/>
</linearGradient>
<linearGradient id="paint10_linear_1_1196" x1="383.224" y1="400.378" x2="384.686" y2="444.608" gradientUnits="userSpaceOnUse">
<stop stop-color="#834394"/>
<stop offset="0.55" stop-color="#62326F"/>
<stop offset="1" stop-color="#46234F"/>
</linearGradient>
<linearGradient id="paint11_linear_1_1196" x1="372.431" y1="441.189" x2="308.744" y2="451.241" gradientUnits="userSpaceOnUse">
<stop stop-color="#221126"/>
<stop offset="0.99" stop-color="#42214A"/>
</linearGradient>
<linearGradient id="paint12_linear_1_1196" x1="341.762" y1="416.556" x2="382.075" y2="455.892" gradientUnits="userSpaceOnUse">
<stop stop-color="#A399C4"/>
<stop offset="0.59" stop-color="#7962D1"/>
<stop offset="1" stop-color="#6041D9"/>
</linearGradient>
</defs>
</svg>
