<svg width="100" height="100" viewBox="0 0 100 100" fill="none" xmlns="http://www.w3.org/2000/svg">
    <path d="M92.9578 38.8052C95.9372 38.0545 98.9106 40.0661 99.3153 43.11C101.298 58.2646 96.1424 73.7887 85.2163 84.7149C75.6039 94.3273 62.8186 99.4883 49.224 99.2303C35.6235 98.9781 23.0376 93.3362 13.7595 83.3426C-3.52403 64.7218 -3.74687 35.3626 13.2435 16.4956C13.83 15.8387 14.434 15.1994 15.0616 14.5719C27.448 2.18544 45.3592 -2.78794 62.4433 1.56959C67.3052 2.80706 70.9942 6.43737 72.3255 11.2993C73.6744 16.214 72.3255 21.2929 68.7362 24.8822C65.147 28.4714 60.2616 29.7089 55.5463 28.5477C48.186 26.7472 40.6145 28.8644 35.2717 34.2072C33.477 36.0019 32.046 38.0546 31.0079 40.2656C29.5828 43.2742 28.8907 46.5937 28.9904 50.0481C29.184 56.0243 31.7645 61.502 36.2804 65.4784C44.2565 72.5161 56.7251 72.4692 64.666 65.3845C65.5575 64.5986 66.361 63.7482 67.0823 62.8392C70.3901 58.7573 72.0733 53.6138 71.8387 48.3824C71.7273 45.9603 73.4046 43.8138 75.7681 43.2449C78.8764 42.4942 81.9613 44.7345 82.1021 47.925C82.5302 57.3614 78.724 66.6102 71.5161 73.0557C62.1442 81.4306 48.9953 83.2604 37.9636 78.551C37.9518 78.5393 37.9225 78.5334 37.8932 78.5276C34.9021 77.2373 32.0577 75.4603 29.5007 73.2082L29.4831 73.1906C22.8265 67.3199 19.0144 59.2148 18.7329 50.3706C18.4573 41.6614 21.8354 33.1105 28.0052 26.9407C35.9051 19.0409 47.1186 15.909 57.9919 18.5717C59.2587 18.8884 60.5666 18.5306 61.4756 17.6216C62.8362 16.2609 62.5841 14.6481 62.414 14.0206C62.2439 13.4282 61.675 11.9796 59.898 11.528C45.6759 7.89774 30.7089 12.4371 20.8795 23.3691C7.40799 38.3185 7.58978 61.5959 21.2782 76.3517C28.6444 84.2809 38.6263 88.7499 49.4058 88.961C60.1912 89.1663 70.3256 85.0727 77.9498 77.4484C86.6297 68.7685 90.7175 56.4113 89.1164 44.3709C88.7762 41.8138 90.4653 39.4327 92.9637 38.7993L92.9578 38.8052Z" fill="url(#paint0_linear_314_1307)"/>
    <path style="mix-blend-mode:multiply" d="M27.5067 17.5044C25.1197 19.1876 22.8852 21.1406 20.8736 23.3751C12.1526 33.0462 9.15572 46.2127 11.8359 58.3C5.50192 72.833 14.2874 83.9058 14.2874 83.9058C14.1056 83.724 13.9238 83.5422 13.7537 83.3486C-3.52988 64.7279 -3.7527 35.3687 13.2377 16.5016C13.8241 15.8447 14.4282 15.2055 15.0557 14.5779C16.6627 12.971 18.3635 11.493 20.1405 10.1383L27.5008 17.4986L27.5067 17.5044Z" fill="url(#paint1_linear_314_1307)"/>
    <path style="mix-blend-mode:multiply" d="M67.0705 62.839C66.3491 63.748 65.5457 64.5984 64.6542 65.3843C56.7133 72.469 44.2447 72.5159 36.2686 65.4782C31.7586 61.5077 29.178 56.03 28.9786 50.0479C28.8731 46.5994 29.571 43.274 30.9961 40.2654C30.4918 40.6759 30.0109 41.1217 29.5417 41.5909C20.8207 50.3118 20.7972 64.4342 29.4771 73.1845L29.5416 73.249C31.9755 75.6829 34.8493 77.4424 37.8931 78.5274C37.9224 78.5332 37.9459 78.5449 37.9635 78.5508C45.8282 81.3014 54.9186 79.5302 61.1998 73.249C64.1792 70.2697 66.1439 66.6511 67.0823 62.839L67.0705 62.839Z" fill="url(#paint2_linear_314_1307)"/>
    <path d="M41.3762 41.0631C46.4129 36.0263 54.579 36.0263 59.6157 41.063C64.6524 46.0997 64.6524 54.2659 59.6157 59.3026C54.579 64.3393 46.4128 64.3393 41.3761 59.3026C36.3394 54.2659 36.3394 46.0998 41.3762 41.0631Z" fill="url(#paint3_linear_314_1307)"/>
    <path d="M59.6166 48.7582C54.5788 43.7203 46.415 43.7203 41.3771 48.7582C38.5117 51.6235 38.5176 56.4436 41.3829 59.3089C46.4149 64.3409 54.5846 64.3468 59.6166 59.3148C62.4815 56.4499 62.4815 51.6231 59.6166 48.7582Z" fill="url(#paint4_linear_314_1307)"/>
    <defs>
        <linearGradient id="paint0_linear_314_1307" x1="61.4047" y1="112.804" x2="39.9985" y2="-11.8314" gradientUnits="userSpaceOnUse">
            <stop stop-color="#5315B2"/>
            <stop offset="0.45" stop-color="#B339ED"/>
            <stop offset="1" stop-color="#F8624F"/>
        </linearGradient>
        <linearGradient id="paint1_linear_314_1307" x1="11.355" y1="35.439" x2="21.683" y2="53.5906" gradientUnits="userSpaceOnUse">
            <stop stop-color="white" stop-opacity="0"/>
            <stop offset="1" stop-color="#5315B2" stop-opacity="0.26"/>
        </linearGradient>
        <linearGradient id="paint2_linear_314_1307" x1="54.3439" y1="48.4468" x2="25.2779" y2="77.5128" gradientUnits="userSpaceOnUse">
            <stop stop-color="#5315B2" stop-opacity="0.69"/>
            <stop offset="1" stop-color="#3232B8" stop-opacity="0"/>
        </linearGradient>
        <linearGradient id="paint3_linear_314_1307" x1="51.2114" y1="37.8081" x2="49.9798" y2="58.9918" gradientUnits="userSpaceOnUse">
            <stop stop-color="#5315B2"/>
            <stop offset="0.45" stop-color="#C564FD"/>
            <stop offset="1" stop-color="#FF405E"/>
        </linearGradient>
        <linearGradient id="paint4_linear_314_1307" x1="55.0934" y1="31.5394" x2="57.3855" y2="60.7078" gradientUnits="userSpaceOnUse">
            <stop stop-color="#FF405E"/>
            <stop offset="0.45" stop-color="#B339ED"/>
            <stop offset="1" stop-color="#512BEE"/>
        </linearGradient>
    </defs>
</svg>
