<svg width="318" height="242" viewBox="0 0 318 242" fill="none" xmlns="http://www.w3.org/2000/svg">
    <path opacity="0.2" d="M218.247 4.00875C185.658 3.58552 156.465 18.5471 137.147 42.2427C120.24 62.9867 95.1287 74.8098 68.7636 73.8369C67.936 73.8039 67.1035 73.7929 66.2663 73.7874C27.9889 73.7599 0.269904 105.678 0.0019954 144.88C-0.270697 184.664 27.4339 217 66.2137 217C76.7961 217 86.8283 214.592 95.8176 210.283C121.604 197.916 150.624 198.609 176.98 209.651C189.098 214.724 203.01 216.775 216.908 216.775C274.269 216.775 318 169.142 318 110.383C318 51.9936 275.245 4.73979 218.247 4.00325V4.00875Z" fill="url(#paint0_linear_1_1158)"/>
    <path d="M49.36 131.791C62.8856 155.937 86.283 171.053 111.911 175.198C134.345 178.824 153.701 192.271 164.18 212.073C164.507 212.696 164.853 213.313 165.204 213.931C181.436 242.092 216.678 248.924 245.62 232.477C274.993 215.786 287.01 181.683 270.545 153.164C266.052 145.382 260.022 139.026 253.036 134.245C232.993 120.533 221.181 98.8971 218.111 74.8267C216.697 63.761 212.298 52.6595 206.397 42.4391C182.042 0.255605 128.445 -11.6802 85.2346 13.2676C42.2946 38.059 25.6973 89.5646 49.3559 131.793L49.36 131.791Z" fill="url(#paint1_linear_1_1158)"/>
    <path d="M187.407 108.315C187.407 108.315 189.739 113.409 189.31 115.313C188.882 117.217 185.283 120.188 182.95 120.826C180.617 121.464 178.285 117.855 177.228 115.104C176.172 112.342 173.619 107.258 175.743 105.344C177.866 103.44 185.712 104.706 187.407 108.315Z" fill="#F6BA99"/>
    <path d="M189.31 47.0146C189.31 47.0146 189.31 57.193 190.367 66.7438C191.423 76.284 193.756 83.7112 192.49 89.4333C191.224 95.1554 188.881 107.677 187.396 108.315C185.91 108.953 185.492 106.192 182.092 106.192C178.692 106.192 175.941 107.886 175.941 107.886C175.941 107.886 175.941 97.7078 176.37 87.7386C176.799 77.7695 173.399 66.1057 177.217 60.3731C181.036 54.6511 183.797 51.2513 185.063 49.3474C186.339 47.4436 189.31 47.0146 189.31 47.0146Z" fill="#9985FF"/>
    <path d="M173.828 150.315C173.828 150.315 167.248 151.8 166.401 151.8C165.554 151.8 167.886 144.164 167.886 144.164C167.886 144.164 170.857 144.373 171.705 145.649C172.552 146.926 173.828 150.315 173.828 150.315Z" fill="#39374A"/>
    <path d="M149.863 139.917C149.863 139.917 150.072 157.732 150.292 163.673C150.511 169.615 151.139 191.886 150.72 196.761C150.302 201.636 149.026 208.006 150.082 211.186C151.139 214.366 155.804 211.825 159.204 207.577C162.593 203.33 167.688 182.126 167.688 177.67C167.688 173.214 166.841 159.855 167.688 154.761C168.535 149.666 170.23 142.459 170.23 141.821C170.23 141.183 164.717 136.099 158.137 136.099C151.557 136.099 149.863 139.917 149.863 139.917Z" fill="#F6BA99"/>
    <path d="M129.715 146.497C129.715 146.497 130.562 156.885 132.048 160.923C133.533 164.96 141.588 169.406 144.779 165.797C147.959 162.188 149.444 152.648 149.026 152.01C148.607 151.372 129.725 146.497 129.725 146.497H129.715Z" fill="#F6BA99"/>
    <path d="M128.23 119.131C128.23 119.131 128.659 129.948 128.23 136.946C127.801 143.944 127.801 148.4 127.801 148.4C127.801 148.4 133.523 152.219 139.046 153.066C144.559 153.913 149.015 152.009 149.015 152.009L149.225 147.344C149.225 147.344 153.681 143.526 159.194 144.164C164.707 144.802 173.828 150.315 173.828 150.315C173.828 150.315 174.676 136.109 175.523 129.32C176.37 122.531 174.247 114.256 174.247 114.256L128.219 119.131H128.23Z" fill="#393762"/>
    <path d="M143.921 37.265C143.921 37.265 124.411 40.6543 122.079 42.5686C119.746 44.4725 103.626 77.7797 103.197 82.8637C102.768 87.9581 109.777 90.5001 113.166 89.2239C116.555 87.9477 127.372 69.2855 127.372 69.2855C127.372 69.2855 124.192 118.912 126.315 121.255C128.439 123.588 153.461 125.282 160.888 125.282C168.315 125.282 174.676 123.159 175.523 122.102C176.37 121.046 176.161 103.22 177.008 96.8603C177.856 90.5001 178.912 65.2581 179.55 63.5635C180.188 61.8688 186.339 55.9271 188.463 51.8997C190.587 47.8723 189.52 44.054 186.13 42.5686C182.741 41.0832 171.705 37.6939 167.887 37.9031C164.068 38.1123 149.863 35.9992 143.921 37.265Z" fill="#8168FF"/>
    <path d="M136.923 23.0487C136.923 23.0487 139.255 20.0778 148.168 18.3832C157.081 16.6885 162.803 16.6885 167.468 18.5924C172.134 20.4963 176.59 20.716 176.161 22.8395C175.732 24.963 174.676 32.1705 171.705 35.3506C168.734 38.5307 163.221 41.0727 156.861 40.4451C150.501 39.807 144.559 37.265 141.588 34.723C138.617 32.181 136.923 23.0592 136.923 23.0592V23.0487Z" fill="#4D81B5"/>
    <path d="M156.945 4.27155C153.712 5.03519 150.658 7.30518 149.099 10.0459C145.752 15.9354 147.718 23.4358 149.026 29.6286C149.873 33.656 154.748 37.265 157.3 37.9031C159.842 38.5412 166.213 36.4177 167.479 34.0849C168.755 31.7521 169.173 25.6012 169.173 20.2975C169.173 15.6425 168.242 9.79486 164.832 6.31141C162.646 4.07279 159.738 3.62298 156.955 4.27155H156.945Z" fill="#F6BA99"/>
    <path d="M156.945 4.27155C153.712 5.03519 150.658 7.30518 149.099 10.0459C146.672 14.3244 147.049 19.4397 147.927 24.2936C149.81 21.9085 153.712 17.7869 158.775 16.8978C164.299 15.9249 167.207 19.9209 169.121 23.0906C169.152 22.1491 169.163 21.2076 169.163 20.2975C169.163 15.6425 168.232 9.79486 164.822 6.31141C162.635 4.07279 159.727 3.62298 156.945 4.27155Z" fill="#DA5955"/>
    <path d="M136.922 23.0487C137.33 21.8875 140.741 27.0761 146.044 30.4758C151.348 33.8756 154.528 35.7795 159.622 36.4176C164.717 37.0557 169.382 31.9613 171.495 28.9904C173.619 26.0195 175.104 21.354 176.161 22.8394C177.218 24.3249 175.314 36.6268 174.466 39.3885C173.619 42.1501 163.65 44.4829 160.041 44.4829C156.432 44.4829 149.643 43.4263 143.283 40.6647C136.922 37.903 134.37 30.2771 136.922 23.0591V23.0487Z" fill="#9985FF"/>
    <path d="M145.197 80.1018C145.197 80.1018 149.224 79.8926 150.072 80.1018C150.919 80.311 151.976 81.378 150.919 82.2253C149.862 83.0726 147.948 83.5016 146.892 83.7108C145.835 83.92 145.197 80.1018 145.197 80.1018Z" fill="#F6BA99"/>
    <path d="M132.675 83.2928C132.675 83.2928 138.188 79.4746 139.035 78.4181C139.883 77.3615 141.577 77.9892 143.701 78.847C145.825 79.6943 148.366 81.6086 148.157 82.8743C147.948 84.1506 147.101 89.0253 144.977 89.6634C142.854 90.3015 139.674 89.0253 139.674 89.0253C139.674 89.0253 138.617 90.5107 136.703 91.1489C134.799 91.787 132.246 89.8727 131.608 89.6634C130.97 89.4542 132.665 83.3032 132.665 83.3032L132.675 83.2928Z" fill="#F6BA99"/>
    <path d="M111.68 76.7125C111.68 76.7125 119.108 79.2545 124.192 80.7399C129.286 82.2253 134.37 82.4345 133.732 83.7108C133.094 84.987 128.637 95.8035 128.637 95.8035C128.637 95.8035 111.032 94.7469 105.31 93.4707C99.5878 92.1945 97.8826 86.8908 99.5878 83.5015C101.282 80.1122 106.586 74.8086 106.586 74.8086" fill="#9985FF"/>
    <path opacity="0.1" d="M157.499 44.2632L155.585 124.644" stroke="white" stroke-width="0.5" stroke-miterlimit="10"/>
    <path d="M149.224 147.344L150.71 128.682" stroke="#393762" stroke-width="0.5" stroke-miterlimit="10"/>
    <path d="M159.832 203.76C159.832 203.76 156.442 199.941 154.319 199.941C152.195 199.941 147.959 205.454 147.32 209.911C146.682 214.367 147.959 215.423 147.32 217.118C146.682 218.813 145.417 219.022 145.417 220.936C145.417 222.851 148.597 224.754 150.929 223.698C153.262 222.641 157.08 219.032 159.622 212.881C162.164 206.73 159.832 203.76 159.832 203.76Z" fill="#DA5955"/>
    <defs>
        <linearGradient id="paint0_linear_1_1158" x1="5.5" y1="0.500001" x2="159" y2="217" gradientUnits="userSpaceOnUse">
            <stop stop-color="#BC3EDB"/>
            <stop offset="1" stop-color="#7B61FF" stop-opacity="0"/>
        </linearGradient>
        <linearGradient id="paint1_linear_1_1158" x1="-8.70635" y1="223.409" x2="231.149" y2="84.9287" gradientUnits="userSpaceOnUse">
            <stop stop-color="#7B61FF"/>
            <stop offset="1" stop-color="#7B61FF" stop-opacity="0"/>
        </linearGradient>
    </defs>
</svg>
