<svg width="32" height="27" viewBox="0 0 32 27" fill="none" xmlns="http://www.w3.org/2000/svg">
    <g clip-path="url(#clip0_352_1280)">
        <path d="M32 3.18153C30.8018 3.71237 29.5308 4.06082 28.2292 4.21528C29.5849 3.40278 30.6257 2.11616 31.1159 0.583153C29.8272 1.34788 28.4172 1.88668 26.947 2.17628C25.7494 0.900403 24.0432 0.103027 22.1549 0.103027C18.5291 0.103027 15.5895 3.04253 15.5895 6.66803C15.5895 7.18266 15.6476 7.68366 15.7595 8.16428C10.3032 7.89041 5.46575 5.27678 2.22762 1.30478C1.66262 2.27441 1.33888 3.40228 1.33888 4.60528C1.33888 6.88303 2.498 8.89241 4.2595 10.0698C3.21694 10.0371 2.19731 9.75554 1.28575 9.24853C1.28537 9.27603 1.28537 9.30353 1.28537 9.33116C1.28537 12.512 3.54837 15.1655 6.55162 15.7686C5.58486 16.0316 4.57079 16.0701 3.58687 15.8811C4.42225 18.4894 6.84688 20.3874 9.71963 20.4405C7.47275 22.2012 4.64188 23.2509 1.56613 23.2509C1.03613 23.2509 0.513625 23.2197 0 23.1591C2.90538 25.0219 6.35625 26.1087 10.0638 26.1087C22.1396 26.1087 28.743 16.1049 28.743 7.42941C28.743 7.14466 28.7368 6.86153 28.724 6.58003C30.0093 5.65088 31.1186 4.50004 32 3.18153Z" fill="#55ACEE"/>
    </g>
    <defs>
        <clipPath id="clip0_352_1280">
            <rect width="32" height="26.125" fill="white"/>
        </clipPath>
    </defs>
</svg>
